<?xml version="1.0" encoding="UTF-8" standalone="no"?>
<!-- Created with Inkscape (http://www.inkscape.org/) -->

<svg
   xmlns:ns0="http://www.iki.fi/pav/software/textext/"
   xmlns:dc="http://purl.org/dc/elements/1.1/"
   xmlns:cc="http://creativecommons.org/ns#"
   xmlns:rdf="http://www.w3.org/1999/02/22-rdf-syntax-ns#"
   xmlns:svg="http://www.w3.org/2000/svg"
   xmlns="http://www.w3.org/2000/svg"
   xmlns:sodipodi="http://sodipodi.sourceforge.net/DTD/sodipodi-0.dtd"
   xmlns:inkscape="http://www.inkscape.org/namespaces/inkscape"
   sodipodi:docname="oflow.svg"
   inkscape:version="0.92.3 (2405546, 2018-03-11)"
   version="1.1"
   id="svg2"
   viewBox="0 0 384.46314 187.51029"
   height="52.919571mm"
   width="108.50404mm">
  <sodipodi:namedview
     fit-margin-bottom="0"
     fit-margin-right="0"
     fit-margin-left="0"
     fit-margin-top="0"
     guidetolerance="1"
     gridtolerance="1"
     inkscape:window-maximized="0"
     inkscape:window-y="18"
     inkscape:window-x="0"
     inkscape:window-height="1041"
     inkscape:window-width="1916"
     showgrid="true"
     inkscape:current-layer="layer1"
     inkscape:document-units="px"
     inkscape:cy="107.55364"
     inkscape:cx="26.92259"
     inkscape:zoom="3.7383399"
     inkscape:pageshadow="2"
     inkscape:pageopacity="0.0"
     borderopacity="1.0"
     bordercolor="#666666"
     pagecolor="#ffffff"
     id="base">
    <inkscape:grid
       originy="19.678725"
       originx="-4.2138397"
       id="grid53433"
       type="xygrid" />
  </sodipodi:namedview>
  <defs
     id="defs4">
    <marker
       inkscape:stockid="Arrow1Mend"
       orient="auto"
       refY="0"
       refX="0"
       id="marker10300"
       style="overflow:visible"
       inkscape:isstock="true">
      <path
         id="path10298"
         d="M 0,0 5,-5 -12.5,0 5,5 Z"
         style="fill:#000000;fill-opacity:1;fill-rule:evenodd;stroke:#000000;stroke-width:1.00000003pt;stroke-opacity:1"
         transform="matrix(-0.4,0,0,-0.4,-4,0)"
         inkscape:connector-curvature="0" />
    </marker>
    <marker
       inkscape:collect="always"
       inkscape:isstock="true"
       style="overflow:visible"
       id="marker53445"
       refX="0"
       refY="0"
       orient="auto"
       inkscape:stockid="Arrow1Mend">
      <path
         inkscape:connector-curvature="0"
         transform="matrix(-0.4,0,0,-0.4,-4,0)"
         style="fill:#000000;fill-opacity:1;fill-rule:evenodd;stroke:#000000;stroke-width:1.00000003pt;stroke-opacity:1"
         d="M 0,0 5,-5 -12.5,0 5,5 Z"
         id="path53443" />
    </marker>
    <marker
       inkscape:isstock="true"
       style="overflow:visible"
       id="marker4660"
       refX="0"
       refY="0"
       orient="auto"
       inkscape:stockid="Arrow1Mend">
      <path
         transform="matrix(-0.4,0,0,-0.4,-4,0)"
         style="fill:#000000;fill-opacity:1;fill-rule:evenodd;stroke:#000000;stroke-width:1.00000003pt;stroke-opacity:1"
         d="M 0,0 5,-5 -12.5,0 5,5 Z"
         id="path4662"
         inkscape:connector-curvature="0" />
    </marker>
    <marker
       inkscape:stockid="Arrow1Lend"
       orient="auto"
       refY="0"
       refX="0"
       id="Arrow1Lend"
       style="overflow:visible"
       inkscape:isstock="true">
      <path
         id="path4351"
         d="M 0,0 5,-5 -12.5,0 5,5 Z"
         style="fill:#000000;fill-opacity:1;fill-rule:evenodd;stroke:#000000;stroke-width:1.00000003pt;stroke-opacity:1"
         transform="matrix(-0.8,0,0,-0.8,-10,0)"
         inkscape:connector-curvature="0" />
    </marker>
    <marker
       inkscape:isstock="true"
       style="overflow:visible"
       id="marker11857-6"
       refX="0"
       refY="0"
       orient="auto"
       inkscape:stockid="Arrow1Mend">
      <path
         inkscape:connector-curvature="0"
         transform="matrix(-0.4,0,0,-0.4,-4,0)"
         style="fill:#000000;fill-opacity:1;fill-rule:evenodd;stroke:#000000;stroke-width:1.00000003pt;stroke-opacity:1"
         d="M 0,0 5,-5 -12.5,0 5,5 Z"
         id="path11859-2" />
    </marker>
    <marker
       inkscape:collect="always"
       inkscape:stockid="Arrow1Mend"
       orient="auto"
       refY="0"
       refX="0"
       id="marker4866"
       style="overflow:visible"
       inkscape:isstock="true">
      <path
         inkscape:connector-curvature="0"
         id="path4868"
         d="M 0,0 5,-5 -12.5,0 5,5 Z"
         style="fill:#000000;fill-opacity:1;fill-rule:evenodd;stroke:#000000;stroke-width:1.00000003pt;stroke-opacity:1"
         transform="matrix(-0.4,0,0,-0.4,-4,0)" />
    </marker>
    <marker
       inkscape:collect="always"
       inkscape:isstock="true"
       style="overflow:visible"
       id="Arrow1Mend"
       refX="0"
       refY="0"
       orient="auto"
       inkscape:stockid="Arrow1Mend">
      <path
         inkscape:connector-curvature="0"
         transform="matrix(-0.4,0,0,-0.4,-4,0)"
         style="fill:#000000;fill-opacity:1;fill-rule:evenodd;stroke:#000000;stroke-width:1.00000003pt;stroke-opacity:1"
         d="M 0,0 5,-5 -12.5,0 5,5 Z"
         id="path4357" />
    </marker>
    <marker
       inkscape:collect="always"
       inkscape:isstock="true"
       style="overflow:visible"
       id="marker5380"
       refX="0"
       refY="0"
       orient="auto"
       inkscape:stockid="Arrow1Mend">
      <path
         inkscape:connector-curvature="0"
         transform="matrix(-0.4,0,0,-0.4,-4,0)"
         style="fill:#000000;fill-opacity:1;fill-rule:evenodd;stroke:#000000;stroke-width:1.00000003pt;stroke-opacity:1"
         d="M 0,0 5,-5 -12.5,0 5,5 Z"
         id="path5382" />
    </marker>
    <marker
       inkscape:collect="always"
       inkscape:stockid="Arrow1Mend"
       orient="auto"
       refY="0"
       refX="0"
       id="marker4866-2-3-2"
       style="overflow:visible"
       inkscape:isstock="true">
      <path
         inkscape:connector-curvature="0"
         id="path4868-8-6-9"
         d="M 0,0 5,-5 -12.5,0 5,5 Z"
         style="fill:#000000;fill-opacity:1;fill-rule:evenodd;stroke:#000000;stroke-width:1.00000003pt;stroke-opacity:1"
         transform="matrix(-0.4,0,0,-0.4,-4,0)" />
    </marker>
    <marker
       inkscape:collect="always"
       inkscape:stockid="Arrow1Mend"
       orient="auto"
       refY="0"
       refX="0"
       id="marker4866-2-3-2-2"
       style="overflow:visible"
       inkscape:isstock="true">
      <path
         inkscape:connector-curvature="0"
         id="path4868-8-6-9-7"
         d="M 0,0 5,-5 -12.5,0 5,5 Z"
         style="fill:#000000;fill-opacity:1;fill-rule:evenodd;stroke:#000000;stroke-width:1.00000003pt;stroke-opacity:1"
         transform="matrix(-0.4,0,0,-0.4,-4,0)" />
    </marker>
    <marker
       inkscape:stockid="Arrow1Mend"
       orient="auto"
       refY="0"
       refX="0"
       id="marker10300-6"
       style="overflow:visible"
       inkscape:isstock="true">
      <path
         id="path10298-0"
         d="M 0,0 5,-5 -12.5,0 5,5 Z"
         style="fill:#000000;fill-opacity:1;fill-rule:evenodd;stroke:#000000;stroke-width:1.00000003pt;stroke-opacity:1"
         transform="matrix(-0.4,0,0,-0.4,-4,0)"
         inkscape:connector-curvature="0" />
    </marker>
  </defs>
  <metadata
     id="metadata7">
    <rdf:RDF>
      <cc:Work
         rdf:about="">
        <dc:format>image/svg+xml</dc:format>
        <dc:type
           rdf:resource="http://purl.org/dc/dcmitype/StillImage" />
        <dc:title />
      </cc:Work>
    </rdf:RDF>
  </metadata>
  <g
     inkscape:groupmode="layer"
     id="layer2"
     inkscape:label="plate"
     transform="translate(-4.2138395,-884.53064)">
    <rect
       rx="3.5970211"
       ry="2.3898895"
       y="945.24609"
       x="98.4375"
       height="126.50164"
       width="259.43475"
       id="rect4270"
       style="fill:#fff4c2;fill-opacity:1;stroke:#050505;stroke-width:0.58639538;stroke-linecap:round;stroke-linejoin:round;stroke-miterlimit:4;stroke-dasharray:none;stroke-dashoffset:0;stroke-opacity:1" />
    <rect
       style="opacity:1;fill:#dcffdc;fill-opacity:1;stroke:#050505;stroke-width:1;stroke-linecap:round;stroke-linejoin:round;stroke-miterlimit:4;stroke-dasharray:none;stroke-dashoffset:0;stroke-opacity:1"
       id="rect4177-3-2"
       width="13.241231"
       height="84.746338"
       x="19.746483"
       y="951.77686" />
    <g
       id="g3700"
       transform="matrix(1,0,0,-1,-124.80747,1702.7889)"
       xml:space="preserve"
       stroke-miterlimit="10.433"
       font-style="normal"
       font-variant="normal"
       font-weight="normal"
       font-stretch="normal"
       font-size-adjust="none"
       letter-spacing="normal"
       word-spacing="normal"
       ns0:version="0.8.1"
       ns0:texconverter="pdflatex"
       ns0:pdfconverter="pstoedit"
       ns0:text="$4$"
       ns0:preamble="/is/sg/mniemeyer/.config/inkscape/extensions/default_packages.tex"
       ns0:scale="0.799999200001"
       ns0:alignment="middle center"
       inkscapeversion="0.92.3"
       ns0:jacobian_sqrt="1.0"
       style="font-style:normal;font-variant:normal;font-weight:normal;font-stretch:normal;letter-spacing:normal;word-spacing:normal;text-anchor:start;fill:none;fill-opacity:1;fill-rule:evenodd;stroke:#000000;stroke-linecap:butt;stroke-linejoin:miter;stroke-miterlimit:10.43299961;stroke-dasharray:none;stroke-dashoffset:0;stroke-opacity:1"><path
         d="m 151.64,658.87 v -0.86 c 0,-0.36 -0.02,-0.47 -0.75,-0.47 h -0.21 v -0.31 c 0.41,0.04 0.92,0.04 1.34,0.04 0.42,0 0.95,0 1.36,-0.04 v 0.31 h -0.21 c -0.74,0 -0.76,0.11 -0.76,0.47 v 0.86 h 1 v 0.31 h -1 v 4.52 c 0,0.2 0,0.26 -0.16,0.26 -0.09,0 -0.12,0 -0.2,-0.12 l -3.06,-4.66 h 0.28 l 2.43,3.71 v -3.71 h -2.43 -0.28 v -0.31 z"
         id="path3698"
         inkscape:connector-curvature="0"
         style="fill:#000000;stroke-width:0" /></g>  </g>
  <g
     inkscape:label="Layer 1"
     inkscape:groupmode="layer"
     id="layer1"
     transform="translate(-4.2138395,-884.53064)">
    <path
       inkscape:connector-curvature="0"
       id="path5372"
       d="m 314.51665,992.00025 h 56.19361"
       style="fill:none;fill-rule:evenodd;stroke:#000000;stroke-width:0.93750006;stroke-linecap:butt;stroke-linejoin:miter;stroke-miterlimit:4;stroke-dasharray:none;stroke-opacity:1;marker-end:url(#marker5380)" />
    <rect
       y="951.67432"
       x="50.355389"
       height="84.629204"
       width="39.268341"
       id="rect4177-3-6"
       style="fill:#c1f4ff;fill-opacity:1;stroke:#050505;stroke-width:1;stroke-linecap:round;stroke-linejoin:round;stroke-miterlimit:4;stroke-dasharray:none;stroke-dashoffset:0;stroke-opacity:1" />
    <rect
       y="951.67432"
       x="153.80954"
       height="84.629204"
       width="39.268341"
       id="rect4177-3-6-5"
       style="fill:#c1f4ff;fill-opacity:1;stroke:#050505;stroke-width:1;stroke-linecap:round;stroke-linejoin:round;stroke-miterlimit:4;stroke-dasharray:none;stroke-dashoffset:0;stroke-opacity:1" />
    <rect
       y="951.67432"
       x="231.57272"
       height="84.629204"
       width="39.268341"
       id="rect4177-3-6-3"
       style="fill:#c1f4ff;fill-opacity:1;stroke:#050505;stroke-width:1;stroke-linecap:round;stroke-linejoin:round;stroke-miterlimit:4;stroke-dasharray:none;stroke-dashoffset:0;stroke-opacity:1" />
    <rect
       y="951.67432"
       x="306.96329"
       height="84.629219"
       width="39.268291"
       id="rect4177-3-6-56"
       style="fill:#c1f4ff;fill-opacity:1;stroke:#050505;stroke-width:1;stroke-linecap:round;stroke-linejoin:round;stroke-miterlimit:4;stroke-dasharray:none;stroke-dashoffset:0;stroke-opacity:1" />
    <rect
       y="951.46545"
       x="374.74664"
       height="84.719643"
       width="13.311393"
       id="rect4177-3-6-56-0"
       style="fill:#c1f4ff;fill-opacity:1;stroke:#050505;stroke-width:1.23791146;stroke-linecap:round;stroke-linejoin:round;stroke-miterlimit:4;stroke-dasharray:none;stroke-dashoffset:0;stroke-opacity:1" />
    <path
       inkscape:connector-curvature="0"
       id="path4342"
       d="M 34.306428,993.2177 H 47.945806"
       style="fill:none;fill-rule:evenodd;stroke:#000000;stroke-width:0.93750006;stroke-linecap:butt;stroke-linejoin:miter;stroke-miterlimit:4;stroke-dasharray:none;stroke-opacity:1;marker-end:url(#Arrow1Mend)" />
    <circle
       r="9.4904795"
       cy="992.74792"
       cx="288.89844"
       id="path4736"
       style="fill:#dcdcdc;fill-opacity:1;stroke:#050505;stroke-width:1;stroke-linecap:round;stroke-linejoin:round;stroke-miterlimit:4;stroke-dasharray:none;stroke-dashoffset:0;stroke-opacity:1" />
    <text
       transform="scale(1.0991597,0.90978591)"
       id="text4738"
       y="1095.4941"
       x="257.08411"
       style="font-style:normal;font-weight:normal;line-height:0%;font-family:sans-serif;letter-spacing:0px;word-spacing:0px;fill:#000000;fill-opacity:1;stroke:none;stroke-width:1px;stroke-linecap:butt;stroke-linejoin:miter;stroke-opacity:1"
       xml:space="preserve"><tspan
         style="font-size:13.64910984px;line-height:1.25"
         y="1095.4941"
         x="257.08411"
         id="tspan4740"
         sodipodi:role="line">+</tspan></text>
    <path
       inkscape:connector-curvature="0"
       id="path4742"
       d="m 298.25831,992.5905 h 8.37121"
       style="fill:none;fill-rule:evenodd;stroke:#000000;stroke-width:1.00031257;stroke-linecap:butt;stroke-linejoin:miter;stroke-miterlimit:4;stroke-dasharray:none;stroke-opacity:1" />
    <path
       inkscape:connector-curvature="0"
       id="path4858"
       d="m 198.84364,992.9444 h 27.78392"
       style="fill:none;fill-rule:evenodd;stroke:#000000;stroke-width:0.93750006;stroke-linecap:butt;stroke-linejoin:miter;stroke-miterlimit:4;stroke-dasharray:none;stroke-opacity:1;marker-end:url(#marker4866)" />
    <path
       transform="matrix(0,0.68521848,-1.7506444,0,1587.8659,870.76468)"
       inkscape:transform-center-y="5.3450787"
       inkscape:transform-center-x="-0.11088652"
       d="m 36.132815,865.44812 -0.255029,-57.27463 49.728801,28.41645 z"
       inkscape:randomized="0"
       inkscape:rounded="0"
       inkscape:flatsided="true"
       sodipodi:arg2="3.13714"
       sodipodi:arg1="2.0899424"
       sodipodi:r2="15.710824"
       sodipodi:r1="33.067852"
       sodipodi:cy="836.73718"
       sodipodi:cx="52.539062"
       sodipodi:sides="3"
       id="path4406"
       style="fill:#dcffdc;fill-opacity:1;stroke:#000000;stroke-width:0.8167845;stroke-linecap:round;stroke-linejoin:round;stroke-miterlimit:4;stroke-dasharray:none;stroke-dashoffset:0;stroke-opacity:1"
       sodipodi:type="star" />
    <path
       sodipodi:nodetypes="cccc"
       inkscape:connector-curvature="0"
       id="path53435"
       d="m 142.07299,992.93313 -0.21021,54.89747 146.88722,-0.1559 -0.2136,-42.7004"
       style="fill:none;stroke:#000000;stroke-width:0.93750006;stroke-linecap:butt;stroke-linejoin:miter;stroke-miterlimit:4;stroke-dasharray:none;stroke-opacity:1;marker-end:url(#marker53445)" />
    <g
       ns0:jacobian_sqrt="1.0"
       inkscapeversion="0.92.3"
       ns0:alignment="middle center"
       ns0:scale="0.8"
       ns0:preamble="/is/sg/mniemeyer/.config/inkscape/extensions/default_packages.tex"
       ns0:text="for $i=1,\\dots,5$"
       ns0:pdfconverter="pstoedit"
       ns0:texconverter="pdflatex"
       ns0:version="0.8.1"
       word-spacing="normal"
       letter-spacing="normal"
       font-size-adjust="none"
       font-stretch="normal"
       font-weight="normal"
       font-variant="normal"
       font-style="normal"
       stroke-miterlimit="10.433"
       xml:space="preserve"
       transform="matrix(1,0,0,-1,-30.056314,1722.2319)"
       id="content"
       style="font-style:normal;font-variant:normal;font-weight:normal;font-stretch:normal;letter-spacing:normal;word-spacing:normal;text-anchor:start;fill:none;fill-opacity:1;fill-rule:evenodd;stroke:#000000;stroke-linecap:butt;stroke-linejoin:miter;stroke-miterlimit:10.43299961;stroke-dasharray:none;stroke-dashoffset:0;stroke-opacity:1"><path
         id="path54253"
         d="m 150.46,661.52 v 1.15 c 0,0.87 0.48,1.35 0.92,1.35 0.02,0 0.17,0 0.32,-0.07 -0.12,-0.04 -0.3,-0.17 -0.3,-0.42 0,-0.23 0.16,-0.42 0.43,-0.42 0.29,0 0.44,0.19 0.44,0.43 0,0.37 -0.37,0.7 -0.89,0.7 -0.7,0 -1.55,-0.53 -1.55,-1.58 v -1.14 h -0.79 v -0.31 h 0.79 v -3.22 c 0,-0.45 -0.11,-0.45 -0.78,-0.45 v -0.31 c 0.39,0.01 0.86,0.04 1.14,0.04 0.4,0 0.86,0 1.26,-0.04 v 0.31 h -0.21 c -0.73,0 -0.75,0.11 -0.75,0.47 v 3.2 h 1.13 v 0.31 z"
         inkscape:connector-curvature="0"
         style="fill:#000000;stroke-width:0" /><path
         id="path54255"
         d="m 156.45,659.36 v 0.12 l -0.01,0.12 -0.01,0.11 -0.02,0.12 -0.03,0.11 -0.03,0.11 -0.03,0.11 -0.04,0.1 -0.05,0.1 -0.05,0.1 -0.05,0.1 -0.06,0.09 -0.06,0.1 -0.06,0.08 -0.07,0.09 -0.08,0.08 -0.07,0.08 -0.08,0.07 -0.09,0.07 -0.08,0.06 -0.09,0.07 -0.09,0.05 -0.1,0.05 -0.1,0.05 -0.1,0.04 -0.1,0.04 -0.1,0.03 -0.11,0.03 -0.11,0.02 -0.11,0.01 -0.11,0.01 h -0.11 l -0.01,-0.21 c 0.44,0 0.87,-0.22 1.13,-0.65 0.26,-0.43 0.26,-1 0.26,-1.38 0,-0.36 0,-0.89 -0.22,-1.33 -0.22,-0.45 -0.66,-0.74 -1.16,-0.74 v 0 c -0.43,0 -0.87,0.21 -1.14,0.67 -0.25,0.44 -0.25,1.04 -0.25,1.4 0,0.39 0,0.92 0.24,1.36 0.27,0.46 0.74,0.67 1.14,0.67 l 0.01,0.21 c -1.25,0 -2.21,-1.08 -2.21,-2.32 0,-1.28 1.03,-2.23 2.2,-2.23 1.21,0 2.21,0.97 2.21,2.23 z"
         inkscape:connector-curvature="0"
         style="fill:#000000;stroke-width:0" /><path
         id="path54257"
         d="m 158.4,660.53 v 1.1 l -1.38,-0.11 v -0.31 c 0.69,0 0.77,-0.07 0.77,-0.56 v -2.66 c 0,-0.45 -0.11,-0.45 -0.77,-0.45 v -0.31 c 0.39,0.01 0.86,0.04 1.13,0.04 0.4,0 0.87,0 1.27,-0.04 v 0.31 h -0.21 c -0.74,0 -0.76,0.11 -0.76,0.47 v 1.53 c 0,0.98 0.42,1.87 1.18,1.87 0.07,0 0.09,0 0.11,-0.01 -0.03,-0.01 -0.23,-0.13 -0.23,-0.39 0,-0.28 0.21,-0.43 0.43,-0.43 0.18,0 0.43,0.12 0.43,0.44 0,0.32 -0.31,0.61 -0.74,0.61 -0.73,0 -1.09,-0.67 -1.23,-1.1 z"
         inkscape:connector-curvature="0"
         style="fill:#000000;stroke-width:0" /><path
         id="path54259"
         d="m 166.79,663.44 v 0.02 0.02 0.02 0.02 l -0.01,0.01 v 0.02 l -0.01,0.02 v 0.01 l -0.01,0.02 -0.01,0.01 v 0.02 l -0.01,0.01 -0.01,0.02 -0.01,0.01 -0.01,0.01 -0.02,0.02 -0.01,0.01 -0.01,0.01 -0.01,0.01 -0.02,0.01 -0.01,0.01 -0.02,0.01 -0.02,0.01 h -0.01 l -0.02,0.01 -0.02,0.01 h -0.02 -0.01 l -0.02,0.01 h -0.02 -0.02 -0.03 c -0.27,0 -0.53,-0.26 -0.53,-0.52 0,-0.19 0.13,-0.36 0.37,-0.36 0.23,0 0.53,0.23 0.53,0.52 z"
         inkscape:connector-curvature="0"
         style="fill:#000000;stroke-width:0" /><path
         id="path54261"
         d="m 166.04,659.71 0.01,0.02 0.01,0.03 0.01,0.02 v 0.02 l 0.01,0.03 0.01,0.02 0.01,0.01 0.01,0.02 v 0.02 l 0.01,0.02 0.01,0.01 v 0.02 l 0.01,0.01 v 0.02 l 0.01,0.02 0.01,0.03 0.01,0.03 0.01,0.02 v 0.01 l 0.01,0.02 0.01,0.01 v 0.02 l 0.01,0.02 v 0.02 l 0.01,0.01 0.01,0.03 0.01,0.02 0.01,0.02 0.01,0.02 c 0.07,0.2 0.12,0.34 0.12,0.53 0,0.45 -0.31,0.82 -0.81,0.82 -0.94,0 -1.32,-1.45 -1.32,-1.53 0,-0.1 0.1,-0.1 0.12,-0.1 0.1,0 0.11,0.02 0.16,0.17 0.27,0.94 0.67,1.24 1.01,1.24 0.08,0 0.25,0 0.25,-0.32 0,-0.21 -0.07,-0.42 -0.11,-0.52 -0.08,-0.26 -0.53,-1.41 -0.69,-1.84 -0.1,-0.25 -0.23,-0.58 -0.23,-0.79 0,-0.47 0.34,-0.81 0.82,-0.81 0.93,0 1.3,1.44 1.3,1.53 0,0.1 -0.09,0.1 -0.12,0.1 -0.1,0 -0.1,-0.04 -0.15,-0.18 -0.18,-0.63 -0.51,-1.24 -1.01,-1.24 -0.17,0 -0.24,0.1 -0.24,0.33 0,0.25 0.06,0.39 0.29,0.99 z"
         inkscape:connector-curvature="0"
         style="fill:#000000;stroke-width:0" /><path
         id="path54263"
         d="m 177.01,660.48 h 0.03 0.03 0.03 l 0.01,0.01 h 0.02 0.01 0.02 0.01 0.01 l 0.02,0.01 h 0.01 0.01 l 0.02,0.01 h 0.01 l 0.01,0.01 h 0.01 l 0.01,0.01 0.01,0.01 0.01,0.01 0.01,0.01 0.01,0.01 v 0 l 0.01,0.01 v 0 0.01 0.01 h 0.01 v 0.01 0.01 0 l 0.01,0.01 v 0.01 0.01 0.01 0 0.01 0.01 c 0,0.2 -0.19,0.2 -0.33,0.2 h -5.97 c -0.14,0 -0.33,0 -0.33,-0.2 0,-0.2 0.19,-0.2 0.34,-0.2 z"
         inkscape:connector-curvature="0"
         style="fill:#000000;stroke-width:0" /><path
         id="path54265"
         d="m 177.02,658.56 h 0.01 0.02 0.03 0.02 0.02 0.01 0.02 0.01 0.01 l 0.02,0.01 h 0.01 0.01 l 0.02,0.01 h 0.01 l 0.01,0.01 h 0.01 l 0.01,0.01 h 0.01 l 0.01,0.01 0.01,0.01 0.01,0.01 v 0 l 0.01,0.01 v 0.01 h 0.01 v 0.01 0 0.01 l 0.01,0.01 v 0 0.01 0.01 h 0.01 v 0.01 0.01 0.01 0.01 0.01 0.01 c 0,0.19 -0.19,0.19 -0.34,0.19 h -5.95 c -0.15,0 -0.34,0 -0.34,-0.19 0,-0.2 0.19,-0.2 0.33,-0.2 z"
         inkscape:connector-curvature="0"
         style="fill:#000000;stroke-width:0" /><path
         id="path54267"
         d="m 183.61,663.59 v 0.01 0.01 0.02 0.01 0 0.01 0.01 0.01 0.01 0.01 0.01 0.01 0 0.01 0.01 0 0.01 l -0.01,0.01 v 0.01 0.01 0.01 l -0.01,0.01 v 0.01 0 l -0.01,0.01 v 0.01 h -0.01 l -0.01,0.01 h -0.01 v 0.01 h -0.01 v 0 h -0.01 -0.01 v 0 h -0.01 v 0.01 h -0.01 -0.01 v 0 h -0.01 -0.01 -0.01 v 0 h -0.01 -0.01 -0.01 -0.01 -0.01 -0.01 -0.01 -0.01 c -0.62,-0.63 -1.5,-0.63 -1.81,-0.63 v -0.31 c 0.19,0 0.78,0 1.3,0.25 v -5.14 c 0,-0.36 -0.03,-0.48 -0.92,-0.48 h -0.32 v -0.31 c 0.35,0.04 1.21,0.04 1.61,0.04 0.4,0 1.27,0 1.62,-0.04 v 0.31 h -0.32 c -0.9,0 -0.93,0.11 -0.93,0.48 z"
         inkscape:connector-curvature="0"
         style="fill:#000000;stroke-width:0" /><path
         id="path54269"
         d="m 187.68,657.24 v 0.07 0.05 0.06 l -0.01,0.06 -0.01,0.05 v 0.05 l -0.01,0.06 -0.01,0.04 -0.01,0.05 -0.02,0.05 -0.01,0.04 -0.02,0.04 -0.01,0.04 -0.02,0.04 -0.02,0.04 -0.02,0.03 -0.02,0.04 -0.02,0.03 -0.03,0.02 -0.02,0.03 -0.03,0.03 -0.03,0.02 -0.02,0.02 -0.03,0.02 -0.03,0.01 -0.03,0.02 -0.03,0.01 -0.04,0.01 -0.03,0.01 h -0.03 l -0.04,0.01 h -0.04 c -0.33,0 -0.52,-0.25 -0.52,-0.53 0,-0.27 0.19,-0.53 0.52,-0.53 0.12,0 0.25,0.05 0.35,0.13 0.03,0.02 0.04,0.03 0.05,0.03 0.01,0 0.02,-0.01 0.02,-0.15 0,-0.73 -0.35,-1.33 -0.67,-1.65 -0.11,-0.11 -0.11,-0.13 -0.11,-0.16 0,-0.07 0.05,-0.11 0.09,-0.11 0.11,0 0.91,0.76 0.91,1.92 z"
         inkscape:connector-curvature="0"
         style="fill:#000000;stroke-width:0" /><path
         id="path54271"
         d="m 192,657.76 v 0.03 0.03 0.02 l -0.01,0.03 v 0.02 l -0.01,0.03 -0.01,0.02 -0.01,0.03 -0.01,0.02 -0.01,0.02 -0.01,0.02 -0.02,0.03 -0.01,0.02 -0.02,0.02 -0.01,0.01 -0.02,0.02 -0.02,0.02 -0.02,0.02 -0.02,0.01 -0.02,0.02 -0.02,0.01 -0.02,0.01 -0.03,0.02 -0.02,0.01 -0.02,0.01 h -0.03 l -0.02,0.01 -0.03,0.01 h -0.02 l -0.03,0.01 h -0.03 -0.02 c -0.29,0 -0.53,-0.24 -0.53,-0.53 0,-0.29 0.24,-0.53 0.53,-0.53 0.28,0 0.52,0.24 0.52,0.53 z"
         inkscape:connector-curvature="0"
         style="fill:#000000;stroke-width:0" /><path
         id="path54273"
         d="m 196.43,657.76 -0.01,0.03 v 0.03 0.02 l -0.01,0.03 v 0.02 l -0.01,0.03 -0.01,0.02 -0.01,0.03 -0.01,0.02 -0.01,0.02 -0.01,0.02 -0.02,0.03 -0.01,0.02 -0.02,0.02 -0.01,0.01 -0.02,0.02 -0.02,0.02 -0.02,0.02 -0.02,0.01 -0.02,0.02 -0.02,0.01 -0.02,0.01 -0.03,0.02 -0.02,0.01 -0.02,0.01 h -0.03 l -0.02,0.01 -0.03,0.01 h -0.02 l -0.03,0.01 h -0.03 -0.02 c -0.29,0 -0.53,-0.24 -0.53,-0.53 0,-0.29 0.24,-0.53 0.53,-0.53 0.29,0 0.53,0.24 0.53,0.53 z"
         inkscape:connector-curvature="0"
         style="fill:#000000;stroke-width:0" /><path
         id="path54275"
         d="m 200.86,657.76 v 0.03 l -0.01,0.03 v 0.02 0.03 l -0.01,0.02 -0.01,0.03 -0.01,0.02 -0.01,0.03 -0.01,0.02 -0.01,0.02 -0.01,0.02 -0.01,0.03 -0.02,0.02 -0.01,0.02 -0.02,0.01 -0.02,0.02 -0.02,0.02 -0.02,0.02 -0.02,0.01 -0.02,0.02 -0.02,0.01 -0.02,0.01 -0.02,0.02 -0.03,0.01 -0.02,0.01 h -0.03 l -0.02,0.01 -0.03,0.01 h -0.02 l -0.03,0.01 h -0.03 -0.02 c -0.29,0 -0.53,-0.24 -0.53,-0.53 0,-0.29 0.24,-0.53 0.53,-0.53 0.29,0 0.53,0.24 0.53,0.53 z"
         inkscape:connector-curvature="0"
         style="fill:#000000;stroke-width:0" /><path
         id="path54277"
         d="m 205.4,657.24 v 0.07 0.05 l -0.01,0.06 v 0.06 l -0.01,0.05 -0.01,0.05 -0.01,0.06 -0.01,0.04 -0.01,0.05 -0.01,0.05 -0.02,0.04 -0.01,0.04 -0.02,0.04 -0.02,0.04 -0.02,0.04 -0.02,0.03 -0.02,0.04 -0.02,0.03 -0.02,0.02 -0.03,0.03 -0.02,0.03 -0.03,0.02 -0.03,0.02 -0.03,0.02 -0.03,0.01 -0.03,0.02 -0.03,0.01 -0.03,0.01 -0.03,0.01 h -0.04 l -0.03,0.01 h -0.04 c -0.33,0 -0.53,-0.25 -0.53,-0.53 0,-0.27 0.2,-0.53 0.53,-0.53 0.12,0 0.25,0.05 0.35,0.13 0.03,0.02 0.04,0.03 0.05,0.03 0.01,0 0.02,-0.01 0.02,-0.15 0,-0.73 -0.35,-1.33 -0.68,-1.65 -0.11,-0.11 -0.11,-0.13 -0.11,-0.16 0,-0.07 0.05,-0.11 0.1,-0.11 0.11,0 0.91,0.76 0.91,1.92 z"
         inkscape:connector-curvature="0"
         style="fill:#000000;stroke-width:0" /><path
         id="path54279"
         d="m 212.27,659.23 v 0.11 0.11 l -0.02,0.11 -0.01,0.1 -0.02,0.11 -0.03,0.1 -0.03,0.1 -0.03,0.1 -0.04,0.1 -0.04,0.09 -0.04,0.09 -0.05,0.09 -0.05,0.09 -0.06,0.08 -0.06,0.08 -0.06,0.07 -0.06,0.08 -0.07,0.06 -0.07,0.07 -0.08,0.06 -0.07,0.06 -0.08,0.05 -0.09,0.05 -0.08,0.04 -0.09,0.04 -0.09,0.04 -0.09,0.03 -0.09,0.02 -0.09,0.02 -0.1,0.02 h -0.1 l -0.1,0.01 c -0.48,0 -0.91,-0.16 -1.27,-0.51 v 1.94 c 0.2,-0.06 0.53,-0.13 0.85,-0.13 1.23,0 1.93,0.9 1.93,1.03 0,0.06 -0.03,0.11 -0.1,0.11 -0.01,0 -0.03,0 -0.08,-0.03 -0.2,-0.09 -0.69,-0.29 -1.36,-0.29 -0.4,0 -0.86,0.07 -1.33,0.28 -0.08,0.03 -0.1,0.03 -0.12,0.03 -0.1,0 -0.1,-0.08 -0.1,-0.24 v -2.94 c 0,-0.18 0,-0.26 0.14,-0.26 0.07,0 0.09,0.03 0.13,0.09 0.11,0.16 0.48,0.7 1.29,0.7 0.52,0 0.77,-0.46 0.85,-0.64 0.16,-0.37 0.18,-0.75 0.18,-1.25 0,-0.35 0,-0.94 -0.24,-1.36 -0.24,-0.39 -0.61,-0.65 -1.07,-0.65 -0.73,0 -1.3,0.53 -1.46,1.12 0.03,-0.01 0.05,-0.02 0.16,-0.02 0.33,0 0.5,0.25 0.5,0.48 0,0.24 -0.17,0.49 -0.5,0.49 -0.13,0 -0.48,-0.07 -0.48,-0.53 0,-0.85 0.68,-1.81 1.8,-1.81 1.16,0 2.17,0.95 2.17,2.21 z"
         inkscape:connector-curvature="0"
         style="fill:#000000;stroke-width:0" /></g>    <path
       inkscape:connector-curvature="0"
       id="path4742-9"
       d="m 270.3749,992.9444 h 9.14806"
       style="fill:none;fill-rule:evenodd;stroke:#000000;stroke-width:1.16990626;stroke-linecap:butt;stroke-linejoin:miter;stroke-miterlimit:4;stroke-dasharray:none;stroke-opacity:1" />
    <rect
       y="-145.3125"
       x="951.30371"
       height="44.809517"
       width="7.6814504"
       id="rect4177-5"
       style="fill:#c1f4ff;fill-opacity:1;stroke:#050505;stroke-width:0.78493363;stroke-linecap:round;stroke-linejoin:round;stroke-miterlimit:4;stroke-dasharray:none;stroke-dashoffset:0;stroke-opacity:1"
       transform="rotate(90)" />
    <circle
       r="9.4904795"
       cy="992.74792"
       cx="124.08121"
       id="path4736-3"
       style="fill:#dcdcdc;fill-opacity:1;stroke:#050505;stroke-width:1;stroke-linecap:round;stroke-linejoin:round;stroke-miterlimit:4;stroke-dasharray:none;stroke-dashoffset:0;stroke-opacity:1" />
    <text
       transform="scale(1.0991597,0.9097859)"
       id="text4738-5"
       y="1095.4672"
       x="107.13571"
       style="font-style:normal;font-weight:normal;line-height:0%;font-family:sans-serif;letter-spacing:0px;word-spacing:0px;fill:#000000;fill-opacity:1;stroke:none;stroke-width:1px;stroke-linecap:butt;stroke-linejoin:miter;stroke-opacity:1"
       xml:space="preserve"><tspan
         style="font-size:13.64910984px;line-height:1.25;stroke-width:1px"
         y="1095.4672"
         x="107.13571"
         id="tspan4740-6"
         sodipodi:role="line">+</tspan></text>
    <path
       inkscape:connector-curvature="0"
       id="path4858-3-7-1"
       d="M 90.414163,993.2177 H 112.87931"
       style="fill:none;fill-rule:evenodd;stroke:#000000;stroke-width:0.93750006;stroke-linecap:butt;stroke-linejoin:miter;stroke-miterlimit:4;stroke-dasharray:none;stroke-opacity:1;marker-end:url(#marker4866-2-3-2)" />
    <path
       inkscape:connector-curvature="0"
       id="path4858-3-7-1-0"
       d="m 133.32459,993.2177 h 18.9145"
       style="fill:none;fill-rule:evenodd;stroke:#000000;stroke-width:0.93750006;stroke-linecap:butt;stroke-linejoin:miter;stroke-miterlimit:4;stroke-dasharray:none;stroke-opacity:1;marker-end:url(#marker4866-2-3-2-2)" />
    <path
       sodipodi:nodetypes="cc"
       inkscape:connector-curvature="0"
       id="path10290"
       d="m 123.62053,959.05779 -1e-5,22.05441"
       style="fill:none;stroke:#000000;stroke-width:0.93750006;stroke-linecap:butt;stroke-linejoin:miter;stroke-miterlimit:4;stroke-dasharray:none;stroke-opacity:1;marker-end:url(#marker10300)" />
    <g
       style="font-style:normal;font-variant:normal;font-weight:normal;font-stretch:normal;letter-spacing:normal;word-spacing:normal;text-anchor:start;fill:none;fill-opacity:1;fill-rule:evenodd;stroke:#000000;stroke-linecap:butt;stroke-linejoin:miter;stroke-miterlimit:10.43299961;stroke-dasharray:none;stroke-dashoffset:0;stroke-opacity:1"
       id="g12871"
       transform="matrix(1,0,0,-1,230.20234,1702.5188)"
       xml:space="preserve"
       stroke-miterlimit="10.433"
       font-style="normal"
       font-variant="normal"
       font-weight="normal"
       font-stretch="normal"
       font-size-adjust="none"
       letter-spacing="normal"
       word-spacing="normal"
       ns0:version="0.8.1"
       ns0:texconverter="pdflatex"
       ns0:pdfconverter="pstoedit"
       ns0:text="$3$"
       ns0:preamble="/is/sg/mniemeyer/.config/inkscape/extensions/default_packages.tex"
       ns0:scale="0.799999200001"
       ns0:alignment="middle center"
       inkscapeversion="0.92.3"
       ns0:jacobian_sqrt="1.0"><path
         style="fill:#000000;stroke-width:0"
         inkscape:connector-curvature="0"
         d="m 151.6,660.73 0.08,0.03 0.07,0.03 0.08,0.03 0.07,0.03 0.07,0.04 0.07,0.04 0.06,0.04 0.07,0.04 0.06,0.04 0.06,0.05 0.06,0.05 0.06,0.05 0.05,0.05 0.05,0.05 0.05,0.06 0.05,0.05 0.04,0.06 0.05,0.06 0.04,0.06 0.03,0.06 0.04,0.07 0.03,0.06 0.03,0.07 0.03,0.06 0.02,0.07 0.02,0.07 0.02,0.07 0.01,0.07 0.02,0.07 v 0.07 l 0.01,0.08 v 0.07 c 0,0.81 -0.88,1.37 -1.84,1.37 -1,0 -1.76,-0.59 -1.76,-1.35 0,-0.33 0.22,-0.52 0.51,-0.52 0.31,0 0.51,0.22 0.51,0.51 0,0.5 -0.47,0.5 -0.62,0.5 0.31,0.48 0.97,0.61 1.32,0.61 0.41,0 0.96,-0.22 0.96,-1.11 0,-0.12 -0.02,-0.7 -0.28,-1.13 -0.3,-0.48 -0.64,-0.51 -0.88,-0.52 -0.08,-0.01 -0.32,-0.03 -0.39,-0.03 -0.08,-0.01 -0.15,-0.02 -0.15,-0.12 0,-0.11 0.07,-0.11 0.24,-0.11 h 0.43 c 0.82,0 1.19,-0.67 1.19,-1.65 0,-1.35 -0.69,-1.64 -1.12,-1.64 -0.43,0 -1.18,0.17 -1.53,0.76 0.35,-0.05 0.66,0.17 0.66,0.55 0,0.35 -0.27,0.55 -0.56,0.55 -0.24,0 -0.56,-0.14 -0.56,-0.57 0,-0.91 0.93,-1.56 2.02,-1.56 1.21,0 2.12,0.9 2.12,1.91 0,0.82 -0.63,1.59 -1.67,1.8 z"
         id="path12869" /></g>    <g
       style="font-style:normal;font-variant:normal;font-weight:normal;font-stretch:normal;letter-spacing:normal;word-spacing:normal;text-anchor:start;fill:none;fill-opacity:1;fill-rule:evenodd;stroke:#000000;stroke-linecap:butt;stroke-linejoin:miter;stroke-miterlimit:10.43299961;stroke-dasharray:none;stroke-dashoffset:0;stroke-opacity:1"
       ns0:jacobian_sqrt="1.0"
       inkscapeversion="0.92.3"
       ns0:alignment="middle center"
       ns0:scale="0.8"
       ns0:preamble="/is/sg/mniemeyer/.config/inkscape/extensions/default_packages.tex"
       ns0:text="$N_{\\mathbf{p}}$ Points"
       ns0:pdfconverter="pstoedit"
       ns0:texconverter="pdflatex"
       ns0:version="0.8.1"
       word-spacing="normal"
       letter-spacing="normal"
       font-size-adjust="none"
       font-stretch="normal"
       font-weight="normal"
       font-variant="normal"
       font-style="normal"
       stroke-miterlimit="10.433"
       xml:space="preserve"
       transform="matrix(0,-1,-1,0,668.23384,1164.7404)"
       id="g14831"><path
         id="path14813"
         style="fill:#000000;fill-opacity:1;stroke:#000000;stroke-width:0;stroke-opacity:1"
         d="m 156.25,662.98 0.02,0.07 0.01,0.04 0.01,0.03 0.02,0.04 0.01,0.03 0.01,0.03 0.02,0.04 0.02,0.03 0.01,0.03 0.02,0.03 0.03,0.03 0.02,0.02 0.02,0.03 0.03,0.03 0.03,0.02 0.03,0.03 0.03,0.02 0.04,0.02 0.03,0.02 0.04,0.02 0.04,0.02 0.05,0.01 0.05,0.02 0.05,0.01 0.05,0.02 0.06,0.01 0.06,0.01 0.06,0.01 h 0.07 l 0.06,0.01 h 0.04 0.04 c 0.05,0 0.17,0.01 0.17,0.2 0,0.01 0,0.11 -0.13,0.11 -0.33,0 -0.68,-0.03 -1.01,-0.03 -0.34,0 -0.69,0.03 -1.02,0.03 -0.06,0 -0.18,0 -0.18,-0.2 0,-0.11 0.1,-0.11 0.18,-0.11 0.57,-0.01 0.68,-0.22 0.68,-0.43 0,-0.04 -0.02,-0.18 -0.03,-0.21 l -1.11,-4.42 -2.21,5.18 c -0.08,0.18 -0.09,0.19 -0.32,0.19 h -1.33 c -0.2,0 -0.29,0 -0.29,-0.2 0,-0.11 0.09,-0.11 0.28,-0.11 0.04,0 0.67,0 0.67,-0.09 l -1.33,-5.33 c -0.1,-0.4 -0.27,-0.72 -1.08,-0.75 -0.06,0 -0.17,-0.01 -0.17,-0.2 0,-0.06 0.05,-0.11 0.13,-0.11 0.32,0 0.67,0.04 1,0.04 0.34,0 0.7,-0.04 1.03,-0.04 0.04,0 0.17,0 0.17,0.2 0,0.1 -0.08,0.11 -0.19,0.11 -0.58,0.02 -0.66,0.24 -0.66,0.44 0,0.07 0.01,0.12 0.04,0.23 l 1.31,5.24 c 0.04,-0.06 0.04,-0.08 0.09,-0.17 l 2.49,-5.86 c 0.07,-0.16 0.09,-0.19 0.19,-0.19 0.1,0 0.1,0.04 0.15,0.21 z"
         inkscape:connector-curvature="0" /><path
         id="path14815"
         style="fill:#000000;fill-opacity:1;stroke:#000000;stroke-width:0;stroke-opacity:1"
         d="m 158.93,654.78 h -0.47 V 656 c 0.17,-0.12 0.52,-0.3 1,-0.3 l -0.09,0.32 c -0.53,0 -0.83,0.38 -0.91,0.49 v 1.46 c 0,0.13 0,0.13 0.1,0.23 0.34,0.29 0.75,0.32 0.9,0.32 0.59,0 0.97,-0.48 0.97,-1.23 0,-0.9 -0.53,-1.27 -1.06,-1.27 l 0.09,-0.32 c 1.21,0 1.94,0.67 1.94,1.59 0,0.84 -0.61,1.58 -1.8,1.58 -0.36,0 -0.78,-0.07 -1.19,-0.32 v 0.32 l -1.31,-0.05 v -0.4 c 0.12,0 0.26,0 0.35,-0.01 0.12,-0.02 0.12,-0.1 0.12,-0.23 v -3.4 h -0.47 v -0.39 c 0.01,0 0.58,0.03 0.91,0.03 0.34,0 0.91,-0.03 0.92,-0.03 z"
         inkscape:connector-curvature="0" /><path
         id="path14817"
         style="fill:#000000;fill-opacity:1;stroke:#000000;stroke-width:0;stroke-opacity:1"
         d="m 167.81,660.37 -0.03,0.26 v 2.69 c 0,0.32 0.02,0.39 0.49,0.39 h 0.88 c 1.59,0 1.59,-1.05 1.59,-1.54 0,-0.46 0,-1.54 -1.59,-1.54 h -1.37 l 0.03,-0.26 h 1.68 c 1.2,0 2.28,0.81 2.28,1.8 0,0.98 -0.99,1.85 -2.36,1.85 h -3.52 v -0.31 h 0.24 c 0.77,0 0.79,-0.11 0.79,-0.47 v -5.23 c 0,-0.36 -0.02,-0.47 -0.79,-0.47 h -0.24 v -0.31 c 0.35,0.04 1.09,0.04 1.47,0.04 0.38,0 1.13,0 1.48,-0.04 v 0.31 h -0.24 c -0.77,0 -0.79,0.11 -0.79,0.47 z"
         inkscape:connector-curvature="0" /><path
         id="path14819"
         style="fill:#000000;fill-opacity:1;stroke:#000000;stroke-width:0;stroke-opacity:1"
         d="m 176.74,659.36 v 0.12 l -0.01,0.12 -0.01,0.11 -0.02,0.12 -0.03,0.11 -0.03,0.11 -0.03,0.11 -0.04,0.1 -0.05,0.1 -0.05,0.1 -0.05,0.1 -0.06,0.09 -0.06,0.1 -0.06,0.08 -0.07,0.09 -0.08,0.08 -0.07,0.08 -0.08,0.07 -0.09,0.07 -0.08,0.06 -0.09,0.07 -0.09,0.05 -0.1,0.05 -0.1,0.05 -0.1,0.04 -0.1,0.04 -0.1,0.03 -0.11,0.03 -0.11,0.02 -0.11,0.01 -0.11,0.01 h -0.11 l -0.01,-0.21 c 0.44,0 0.87,-0.22 1.13,-0.65 0.26,-0.43 0.26,-1 0.26,-1.38 0,-0.36 0,-0.89 -0.22,-1.33 -0.22,-0.45 -0.66,-0.74 -1.16,-0.74 v 0 c -0.43,0 -0.87,0.21 -1.14,0.67 -0.25,0.44 -0.25,1.04 -0.25,1.4 0,0.39 0,0.92 0.24,1.36 0.27,0.46 0.74,0.67 1.14,0.67 l 0.01,0.21 c -1.25,0 -2.21,-1.08 -2.21,-2.32 0,-1.28 1.03,-2.23 2.2,-2.23 1.21,0 2.21,0.97 2.21,2.23 z"
         inkscape:connector-curvature="0" /><path
         id="path14821"
         style="fill:#000000;fill-opacity:1;stroke:#000000;stroke-width:0;stroke-opacity:1"
         d="m 178.79,661.63 -1.39,-0.11 v -0.31 c 0.64,0 0.73,-0.06 0.73,-0.55 v -2.67 c 0,-0.45 -0.11,-0.45 -0.77,-0.45 v -0.31 c 0.32,0.01 0.85,0.04 1.09,0.04 0.35,0 0.7,-0.03 1.04,-0.04 v 0.31 c -0.66,0 -0.7,0.05 -0.7,0.44 z"
         inkscape:connector-curvature="0" /><path
         id="path14823"
         style="fill:#000000;fill-opacity:1;stroke:#000000;stroke-width:0;stroke-opacity:1"
         d="m 178.83,663.35 v 0.03 0.03 0.03 l -0.01,0.03 v 0.02 l -0.01,0.03 -0.01,0.03 -0.01,0.02 -0.01,0.02 -0.01,0.03 -0.02,0.02 -0.01,0.02 -0.02,0.02 -0.01,0.02 -0.02,0.02 -0.02,0.02 -0.02,0.01 -0.01,0.02 -0.02,0.01 -0.03,0.02 -0.02,0.01 -0.02,0.01 -0.02,0.01 -0.03,0.01 -0.02,0.01 -0.02,0.01 -0.03,0.01 h -0.02 l -0.03,0.01 h -0.02 -0.03 -0.03 c -0.31,0 -0.52,-0.27 -0.52,-0.53 0,-0.26 0.21,-0.52 0.52,-0.52 0.28,0 0.53,0.21 0.53,0.52 z"
         inkscape:connector-curvature="0" /><path
         id="path14825"
         style="fill:#000000;fill-opacity:1;stroke:#000000;stroke-width:0;stroke-opacity:1"
         d="m 180.89,660.65 v -2.66 c 0,-0.45 -0.11,-0.45 -0.77,-0.45 v -0.31 c 0.34,0.01 0.85,0.04 1.12,0.04 0.26,0 0.78,-0.03 1.12,-0.04 v 0.31 c -0.67,0 -0.78,0 -0.78,0.45 v 1.83 c 0,1.03 0.71,1.59 1.35,1.59 0.62,0 0.73,-0.54 0.73,-1.11 v -2.31 c 0,-0.45 -0.11,-0.45 -0.77,-0.45 v -0.31 c 0.35,0.01 0.85,0.04 1.12,0.04 0.26,0 0.78,-0.03 1.12,-0.04 v 0.31 c -0.52,0 -0.77,0 -0.78,0.3 v 1.9 c 0,0.85 0,1.16 -0.31,1.52 -0.14,0.17 -0.47,0.37 -1.04,0.37 -0.73,0 -1.2,-0.43 -1.48,-1.05 v 1.05 l -1.4,-0.11 v -0.31 c 0.69,0 0.77,-0.07 0.77,-0.56 z"
         inkscape:connector-curvature="0" /><path
         id="path14827"
         style="fill:#000000;fill-opacity:1;stroke:#000000;stroke-width:0;stroke-opacity:1"
         d="m 186.78,661.21 h 1.42 v 0.31 h -1.42 v 1.82 h -0.25 c -0.01,-0.81 -0.31,-1.87 -1.29,-1.91 v -0.22 h 0.85 v -2.74 c 0,-1.23 0.93,-1.34 1.29,-1.34 0.7,0 0.98,0.7 0.98,1.34 v 0.56 h -0.25 v -0.54 c 0,-0.74 -0.3,-1.12 -0.66,-1.12 -0.67,0 -0.67,0.91 -0.67,1.08 z"
         inkscape:connector-curvature="0" /><path
         id="path14829"
         style="fill:#000000;fill-opacity:1;stroke:#000000;stroke-width:0;stroke-opacity:1"
         d="m 191,659.16 h 0.02 l 0.03,-0.01 h 0.03 l 0.03,-0.01 0.03,-0.01 0.04,-0.01 0.04,-0.01 0.03,-0.01 0.05,-0.01 0.04,-0.01 0.04,-0.02 0.05,-0.02 0.04,-0.01 0.04,-0.03 0.05,-0.02 0.04,-0.02 0.04,-0.03 0.05,-0.03 0.04,-0.03 0.04,-0.03 0.04,-0.03 0.03,-0.04 0.04,-0.04 0.03,-0.04 0.03,-0.05 0.01,-0.02 0.01,-0.03 0.01,-0.02 0.01,-0.03 0.01,-0.02 0.01,-0.03 0.01,-0.03 0.01,-0.02 v -0.03 l 0.01,-0.03 v -0.03 l 0.01,-0.04 v -0.03 -0.03 c 0,-0.51 -0.35,-0.91 -1.13,-0.91 -0.84,0 -1.2,0.57 -1.39,1.42 -0.03,0.12 -0.03,0.16 -0.14,0.16 -0.12,0 -0.12,-0.07 -0.12,-0.25 v -1.31 c 0,-0.16 0,-0.23 0.11,-0.23 0.04,0 0.06,0.01 0.24,0.19 0.02,0.02 0.02,0.04 0.2,0.23 0.44,-0.41 0.89,-0.42 1.1,-0.42 1.15,0 1.61,0.66 1.61,1.38 0,0.52 -0.3,0.82 -0.42,0.94 -0.33,0.32 -0.72,0.4 -1.14,0.48 -0.56,0.11 -1.23,0.23 -1.23,0.81 0,0.35 0.26,0.76 1.12,0.76 1.1,0 1.15,-0.9 1.17,-1.21 0.01,-0.08 0.1,-0.08 0.12,-0.08 0.13,0 0.13,0.05 0.13,0.23 v 1.01 c 0,0.17 0,0.23 -0.11,0.23 -0.05,0 -0.07,0 -0.2,-0.11 -0.03,-0.04 -0.13,-0.13 -0.17,-0.16 -0.38,0.27 -0.79,0.27 -0.94,0.27 -1.22,0 -1.59,-0.66 -1.59,-1.22 0,-0.34 0.15,-0.62 0.42,-0.84 0.32,-0.26 0.6,-0.32 1.32,-0.46 z"
         inkscape:connector-curvature="0" /></g>    <rect
       y="-145.24496"
       x="930.92523"
       height="44.674431"
       width="10.584717"
       id="rect4177-5-3"
       style="fill:#dcdcdc;fill-opacity:1;stroke:#050505;stroke-width:0.92001599;stroke-linecap:round;stroke-linejoin:round;stroke-miterlimit:4;stroke-dasharray:none;stroke-dashoffset:0;stroke-opacity:1"
       transform="matrix(0,1,-1,0,0,0)" />
    <path
       sodipodi:nodetypes="cc"
       inkscape:connector-curvature="0"
       id="path10290-6"
       d="m 123.62053,941.1486 -1e-5,8.52426"
       style="fill:none;stroke:#000000;stroke-width:0.93750006;stroke-linecap:butt;stroke-linejoin:miter;stroke-miterlimit:4;stroke-dasharray:none;stroke-opacity:1;marker-end:url(#marker10300-6)" />
    <g
       id="g1115"
       transform="matrix(1.000000,0.000000,0.000000,-1.000000,-84.591043,1702.409413)"
       xml:space="preserve"
       stroke="black"
       stroke-linecap="butt"
       stroke-linejoin="miter"
       stroke-miterlimit="10.433"
       stroke-dasharray="none"
       stroke-dashoffset="0"
       stroke-opacity="1"
       fill="none"
       fill-rule="evenodd"
       fill-opacity="1"
       font-style="normal"
       font-variant="normal"
       font-weight="normal"
       font-stretch="normal"
       font-size-adjust="none"
       letter-spacing="normal"
       word-spacing="normal"
       text-anchor="start"
       ns0:version="0.8.1"
       ns0:texconverter="pdflatex"
       ns0:pdfconverter="pstoedit"
       ns0:text="$512$"
       ns0:preamble="/is/sg/mniemeyer/.config/inkscape/extensions/default_packages.tex"
       ns0:scale="0.799999200001"
       ns0:alignment="middle center"
       inkscapeversion="0.92.3"
       ns0:jacobian_sqrt="1.0">
<path
   d="M153.19,659.23 L153.19,659.34 L153.18,659.45 L153.17,659.56 L153.15,659.66 L153.13,659.77 L153.11,659.87 L153.08,659.97 L153.05,660.07 L153.01,660.17 L152.97,660.26 L152.92,660.35 L152.87,660.44 L152.82,660.53 L152.77,660.61 L152.71,660.69 L152.65,660.76 L152.58,660.84 L152.51,660.9 L152.44,660.97 L152.37,661.03 L152.29,661.09 L152.21,661.14 L152.13,661.19 L152.05,661.23 L151.96,661.27 L151.87,661.31 L151.78,661.34 L151.69,661.36 L151.59,661.38 L151.49,661.4 L151.4,661.4 L151.29,661.41 C150.82,661.41,150.39,661.25,150.03,660.9 V662.84 C150.23,662.78,150.56,662.71,150.88,662.71 C152.1,662.71,152.8,663.61,152.8,663.74 C152.8,663.8,152.77,663.85,152.7,663.85 C152.69,663.85,152.67,663.85,152.62,663.82 C152.42,663.73,151.93,663.53,151.26,663.53 C150.87,663.53,150.41,663.6,149.94,663.81 C149.86,663.84,149.84,663.84,149.82,663.84 C149.72,663.84,149.72,663.76,149.72,663.6 V660.66 C149.72,660.48,149.72,660.4,149.86,660.4 C149.93,660.4,149.95,660.43,149.99,660.49 C150.1,660.65,150.47,661.19,151.27,661.19 C151.79,661.19,152.04,660.73,152.12,660.55 C152.28,660.18,152.3,659.8,152.3,659.3 C152.3,658.95,152.3,658.36,152.06,657.94 C151.82,657.55,151.45,657.29,151,657.29 C150.27,657.29,149.7,657.82,149.53,658.41 C149.56,658.4,149.59,658.39,149.7,658.39 C150.03,658.39,150.2,658.64,150.2,658.87 C150.2,659.11,150.03,659.36,149.7,659.36 C149.56,659.36,149.21,659.29,149.21,658.83 C149.21,657.98,149.9,657.02,151.02,657.02 C152.17,657.02,153.19,657.97,153.19,659.23 Z "
   stroke-width="0"
   fill="black"
   id="path1109" />
<path
   d="M156.62,663.59 L156.62,663.6 L156.62,663.61 L156.62,663.63 L156.62,663.64 L156.62,663.64 L156.62,663.65 L156.62,663.66 L156.62,663.67 L156.62,663.68 L156.62,663.69 L156.62,663.7 L156.62,663.71 L156.62,663.71 L156.62,663.72 L156.62,663.73 L156.62,663.73 L156.62,663.74 L156.62,663.75 L156.62,663.76 L156.62,663.77 L156.61,663.78 L156.61,663.79 L156.61,663.8 L156.6,663.8 L156.6,663.81 L156.59,663.82 L156.58,663.82 L156.58,663.83 L156.57,663.83 L156.56,663.84 L156.56,663.84 L156.55,663.84 L156.55,663.84 L156.54,663.84 L156.53,663.84 L156.53,663.84 L156.52,663.85 L156.52,663.85 L156.51,663.85 L156.5,663.85 L156.49,663.85 L156.49,663.85 L156.48,663.85 L156.47,663.85 L156.46,663.85 L156.45,663.85 L156.45,663.85 L156.44,663.85 L156.43,663.85 L156.42,663.85 L156.41,663.85 L156.4,663.85 C155.78,663.22,154.9,663.22,154.58,663.22 V662.91 C154.78,662.91,155.37,662.91,155.89,663.16 V658.02 C155.89,657.66,155.86,657.54,154.96,657.54 H154.64 V657.23 C154.99,657.27,155.86,657.27,156.26,657.27 C156.65,657.27,157.52,657.27,157.87,657.23 V657.54 H157.55 C156.65,657.54,156.62,657.65,156.62,658.02 Z "
   stroke-width="0"
   fill="black"
   id="path1111" />
<path
   d="M159.94,658 L161,659.02 C162.55,660.39,163.15,660.93,163.15,661.92 C163.15,663.06,162.26,663.85,161.04,663.85 C159.91,663.85,159.17,662.94,159.17,662.05 C159.17,661.5,159.67,661.5,159.7,661.5 C159.87,661.5,160.22,661.62,160.22,662.02 C160.22,662.28,160.04,662.54,159.69,662.54 C159.61,662.54,159.59,662.54,159.56,662.53 C159.79,663.17,160.33,663.54,160.91,663.54 C161.82,663.54,162.24,662.74,162.24,661.92 C162.24,661.13,161.75,660.34,161.2,659.73 L159.28,657.6 C159.17,657.49,159.17,657.47,159.17,657.23 H162.87 L163.15,658.96 H162.9 C162.85,658.66,162.78,658.23,162.68,658.08 C162.61,658,161.96,658,161.74,658 Z "
   stroke-width="0"
   fill="black"
   id="path1113" />
</g>    <g
       ns0:jacobian_sqrt="1.0"
       inkscapeversion="0.92.3"
       ns0:alignment="middle center"
       ns0:scale="0.799999200001"
       ns0:preamble="/is/sg/mniemeyer/.config/inkscape/extensions/default_packages.tex"
       ns0:text="$512$"
       ns0:pdfconverter="pstoedit"
       ns0:texconverter="pdflatex"
       ns0:version="0.8.1"
       text-anchor="start"
       word-spacing="normal"
       letter-spacing="normal"
       font-size-adjust="none"
       font-stretch="normal"
       font-weight="normal"
       font-variant="normal"
       font-style="normal"
       fill-opacity="1"
       fill-rule="evenodd"
       fill="none"
       stroke-opacity="1"
       stroke-dashoffset="0"
       stroke-dasharray="none"
       stroke-miterlimit="10.433"
       stroke-linejoin="miter"
       stroke-linecap="butt"
       stroke="black"
       xml:space="preserve"
       transform="matrix(1.000000,0.000000,0.000000,-1.000000,17.051802,1701.494183)"
       id="g1371">
<path
   id="path1365"
   fill="black"
   stroke-width="0"
   d="M153.19,659.23 L153.19,659.34 L153.18,659.45 L153.17,659.56 L153.15,659.66 L153.13,659.77 L153.11,659.87 L153.08,659.97 L153.05,660.07 L153.01,660.17 L152.97,660.26 L152.92,660.35 L152.87,660.44 L152.82,660.53 L152.77,660.61 L152.71,660.69 L152.65,660.76 L152.58,660.84 L152.51,660.9 L152.44,660.97 L152.37,661.03 L152.29,661.09 L152.21,661.14 L152.13,661.19 L152.05,661.23 L151.96,661.27 L151.87,661.31 L151.78,661.34 L151.69,661.36 L151.59,661.38 L151.49,661.4 L151.4,661.4 L151.29,661.41 C150.82,661.41,150.39,661.25,150.03,660.9 V662.84 C150.23,662.78,150.56,662.71,150.88,662.71 C152.1,662.71,152.8,663.61,152.8,663.74 C152.8,663.8,152.77,663.85,152.7,663.85 C152.69,663.85,152.67,663.85,152.62,663.82 C152.42,663.73,151.93,663.53,151.26,663.53 C150.87,663.53,150.41,663.6,149.94,663.81 C149.86,663.84,149.84,663.84,149.82,663.84 C149.72,663.84,149.72,663.76,149.72,663.6 V660.66 C149.72,660.48,149.72,660.4,149.86,660.4 C149.93,660.4,149.95,660.43,149.99,660.49 C150.1,660.65,150.47,661.19,151.27,661.19 C151.79,661.19,152.04,660.73,152.12,660.55 C152.28,660.18,152.3,659.8,152.3,659.3 C152.3,658.95,152.3,658.36,152.06,657.94 C151.82,657.55,151.45,657.29,151,657.29 C150.27,657.29,149.7,657.82,149.53,658.41 C149.56,658.4,149.59,658.39,149.7,658.39 C150.03,658.39,150.2,658.64,150.2,658.87 C150.2,659.11,150.03,659.36,149.7,659.36 C149.56,659.36,149.21,659.29,149.21,658.83 C149.21,657.98,149.9,657.02,151.02,657.02 C152.17,657.02,153.19,657.97,153.19,659.23 Z " />
<path
   id="path1367"
   fill="black"
   stroke-width="0"
   d="M156.62,663.59 L156.62,663.6 L156.62,663.61 L156.62,663.63 L156.62,663.64 L156.62,663.64 L156.62,663.65 L156.62,663.66 L156.62,663.67 L156.62,663.68 L156.62,663.69 L156.62,663.7 L156.62,663.71 L156.62,663.71 L156.62,663.72 L156.62,663.73 L156.62,663.73 L156.62,663.74 L156.62,663.75 L156.62,663.76 L156.62,663.77 L156.61,663.78 L156.61,663.79 L156.61,663.8 L156.6,663.8 L156.6,663.81 L156.59,663.82 L156.58,663.82 L156.58,663.83 L156.57,663.83 L156.56,663.84 L156.56,663.84 L156.55,663.84 L156.55,663.84 L156.54,663.84 L156.53,663.84 L156.53,663.84 L156.52,663.85 L156.52,663.85 L156.51,663.85 L156.5,663.85 L156.49,663.85 L156.49,663.85 L156.48,663.85 L156.47,663.85 L156.46,663.85 L156.45,663.85 L156.45,663.85 L156.44,663.85 L156.43,663.85 L156.42,663.85 L156.41,663.85 L156.4,663.85 C155.78,663.22,154.9,663.22,154.58,663.22 V662.91 C154.78,662.91,155.37,662.91,155.89,663.16 V658.02 C155.89,657.66,155.86,657.54,154.96,657.54 H154.64 V657.23 C154.99,657.27,155.86,657.27,156.26,657.27 C156.65,657.27,157.52,657.27,157.87,657.23 V657.54 H157.55 C156.65,657.54,156.62,657.65,156.62,658.02 Z " />
<path
   id="path1369"
   fill="black"
   stroke-width="0"
   d="M159.94,658 L161,659.02 C162.55,660.39,163.15,660.93,163.15,661.92 C163.15,663.06,162.26,663.85,161.04,663.85 C159.91,663.85,159.17,662.94,159.17,662.05 C159.17,661.5,159.67,661.5,159.7,661.5 C159.87,661.5,160.22,661.62,160.22,662.02 C160.22,662.28,160.04,662.54,159.69,662.54 C159.61,662.54,159.59,662.54,159.56,662.53 C159.79,663.17,160.33,663.54,160.91,663.54 C161.82,663.54,162.24,662.74,162.24,661.92 C162.24,661.13,161.75,660.34,161.2,659.73 L159.28,657.6 C159.17,657.49,159.17,657.47,159.17,657.23 H162.87 L163.15,658.96 H162.9 C162.85,658.66,162.78,658.23,162.68,658.08 C162.61,658,161.96,658,161.74,658 Z " />
</g>    <g
       id="g1623"
       transform="matrix(1.000000,0.000000,0.000000,-1.000000,94.766088,1701.494352)"
       xml:space="preserve"
       stroke="black"
       stroke-linecap="butt"
       stroke-linejoin="miter"
       stroke-miterlimit="10.433"
       stroke-dasharray="none"
       stroke-dashoffset="0"
       stroke-opacity="1"
       fill="none"
       fill-rule="evenodd"
       fill-opacity="1"
       font-style="normal"
       font-variant="normal"
       font-weight="normal"
       font-stretch="normal"
       font-size-adjust="none"
       letter-spacing="normal"
       word-spacing="normal"
       text-anchor="start"
       ns0:version="0.8.1"
       ns0:texconverter="pdflatex"
       ns0:pdfconverter="pstoedit"
       ns0:text="$512$"
       ns0:preamble="/is/sg/mniemeyer/.config/inkscape/extensions/default_packages.tex"
       ns0:scale="0.799999200001"
       ns0:alignment="middle center"
       inkscapeversion="0.92.3"
       ns0:jacobian_sqrt="1.0">
<path
   d="M153.19,659.23 L153.19,659.34 L153.18,659.45 L153.17,659.56 L153.15,659.66 L153.13,659.77 L153.11,659.87 L153.08,659.97 L153.05,660.07 L153.01,660.17 L152.97,660.26 L152.92,660.35 L152.87,660.44 L152.82,660.53 L152.77,660.61 L152.71,660.69 L152.65,660.76 L152.58,660.84 L152.51,660.9 L152.44,660.97 L152.37,661.03 L152.29,661.09 L152.21,661.14 L152.13,661.19 L152.05,661.23 L151.96,661.27 L151.87,661.31 L151.78,661.34 L151.69,661.36 L151.59,661.38 L151.49,661.4 L151.4,661.4 L151.29,661.41 C150.82,661.41,150.39,661.25,150.03,660.9 V662.84 C150.23,662.78,150.56,662.71,150.88,662.71 C152.1,662.71,152.8,663.61,152.8,663.74 C152.8,663.8,152.77,663.85,152.7,663.85 C152.69,663.85,152.67,663.85,152.62,663.82 C152.42,663.73,151.93,663.53,151.26,663.53 C150.87,663.53,150.41,663.6,149.94,663.81 C149.86,663.84,149.84,663.84,149.82,663.84 C149.72,663.84,149.72,663.76,149.72,663.6 V660.66 C149.72,660.48,149.72,660.4,149.86,660.4 C149.93,660.4,149.95,660.43,149.99,660.49 C150.1,660.65,150.47,661.19,151.27,661.19 C151.79,661.19,152.04,660.73,152.12,660.55 C152.28,660.18,152.3,659.8,152.3,659.3 C152.3,658.95,152.3,658.36,152.06,657.94 C151.82,657.55,151.45,657.29,151,657.29 C150.27,657.29,149.7,657.82,149.53,658.41 C149.56,658.4,149.59,658.39,149.7,658.39 C150.03,658.39,150.2,658.64,150.2,658.87 C150.2,659.11,150.03,659.36,149.7,659.36 C149.56,659.36,149.21,659.29,149.21,658.83 C149.21,657.98,149.9,657.02,151.02,657.02 C152.17,657.02,153.19,657.97,153.19,659.23 Z "
   stroke-width="0"
   fill="black"
   id="path1617" />
<path
   d="M156.62,663.59 L156.62,663.6 L156.62,663.61 L156.62,663.63 L156.62,663.64 L156.62,663.64 L156.62,663.65 L156.62,663.66 L156.62,663.67 L156.62,663.68 L156.62,663.69 L156.62,663.7 L156.62,663.71 L156.62,663.71 L156.62,663.72 L156.62,663.73 L156.62,663.73 L156.62,663.74 L156.62,663.75 L156.62,663.76 L156.62,663.77 L156.61,663.78 L156.61,663.79 L156.61,663.8 L156.6,663.8 L156.6,663.81 L156.59,663.82 L156.58,663.82 L156.58,663.83 L156.57,663.83 L156.56,663.84 L156.56,663.84 L156.55,663.84 L156.55,663.84 L156.54,663.84 L156.53,663.84 L156.53,663.84 L156.52,663.85 L156.52,663.85 L156.51,663.85 L156.5,663.85 L156.49,663.85 L156.49,663.85 L156.48,663.85 L156.47,663.85 L156.46,663.85 L156.45,663.85 L156.45,663.85 L156.44,663.85 L156.43,663.85 L156.42,663.85 L156.41,663.85 L156.4,663.85 C155.78,663.22,154.9,663.22,154.58,663.22 V662.91 C154.78,662.91,155.37,662.91,155.89,663.16 V658.02 C155.89,657.66,155.86,657.54,154.96,657.54 H154.64 V657.23 C154.99,657.27,155.86,657.27,156.26,657.27 C156.65,657.27,157.52,657.27,157.87,657.23 V657.54 H157.55 C156.65,657.54,156.62,657.65,156.62,658.02 Z "
   stroke-width="0"
   fill="black"
   id="path1619" />
<path
   d="M159.94,658 L161,659.02 C162.55,660.39,163.15,660.93,163.15,661.92 C163.15,663.06,162.26,663.85,161.04,663.85 C159.91,663.85,159.17,662.94,159.17,662.05 C159.17,661.5,159.67,661.5,159.7,661.5 C159.87,661.5,160.22,661.62,160.22,662.02 C160.22,662.28,160.04,662.54,159.69,662.54 C159.61,662.54,159.59,662.54,159.56,662.53 C159.79,663.17,160.33,663.54,160.91,663.54 C161.82,663.54,162.24,662.74,162.24,661.92 C162.24,661.13,161.75,660.34,161.2,659.73 L159.28,657.6 C159.17,657.49,159.17,657.47,159.17,657.23 H162.87 L163.15,658.96 H162.9 C162.85,658.66,162.78,658.23,162.68,658.08 C162.61,658,161.96,658,161.74,658 Z "
   stroke-width="0"
   fill="black"
   id="path1621" />
</g>    <g
       ns0:jacobian_sqrt="1.0"
       inkscapeversion="0.92.3"
       ns0:alignment="middle center"
       ns0:scale="0.799999200001"
       ns0:preamble="/is/sg/mniemeyer/.config/inkscape/extensions/default_packages.tex"
       ns0:text="$512$"
       ns0:pdfconverter="pstoedit"
       ns0:texconverter="pdflatex"
       ns0:version="0.8.1"
       text-anchor="start"
       word-spacing="normal"
       letter-spacing="normal"
       font-size-adjust="none"
       font-stretch="normal"
       font-weight="normal"
       font-variant="normal"
       font-style="normal"
       fill-opacity="1"
       fill-rule="evenodd"
       fill="none"
       stroke-opacity="1"
       stroke-dashoffset="0"
       stroke-dasharray="none"
       stroke-miterlimit="10.433"
       stroke-linejoin="miter"
       stroke-linecap="butt"
       stroke="black"
       xml:space="preserve"
       transform="matrix(1.000000,0.000000,0.000000,-1.000000,173.878600,1702.409413)"
       id="g1871">
<path
   id="path1865"
   fill="black"
   stroke-width="0"
   d="M153.19,659.23 L153.19,659.34 L153.18,659.45 L153.17,659.56 L153.15,659.66 L153.13,659.77 L153.11,659.87 L153.08,659.97 L153.05,660.07 L153.01,660.17 L152.97,660.26 L152.92,660.35 L152.87,660.44 L152.82,660.53 L152.77,660.61 L152.71,660.69 L152.65,660.76 L152.58,660.84 L152.51,660.9 L152.44,660.97 L152.37,661.03 L152.29,661.09 L152.21,661.14 L152.13,661.19 L152.05,661.23 L151.96,661.27 L151.87,661.31 L151.78,661.34 L151.69,661.36 L151.59,661.38 L151.49,661.4 L151.4,661.4 L151.29,661.41 C150.82,661.41,150.39,661.25,150.03,660.9 V662.84 C150.23,662.78,150.56,662.71,150.88,662.71 C152.1,662.71,152.8,663.61,152.8,663.74 C152.8,663.8,152.77,663.85,152.7,663.85 C152.69,663.85,152.67,663.85,152.62,663.82 C152.42,663.73,151.93,663.53,151.26,663.53 C150.87,663.53,150.41,663.6,149.94,663.81 C149.86,663.84,149.84,663.84,149.82,663.84 C149.72,663.84,149.72,663.76,149.72,663.6 V660.66 C149.72,660.48,149.72,660.4,149.86,660.4 C149.93,660.4,149.95,660.43,149.99,660.49 C150.1,660.65,150.47,661.19,151.27,661.19 C151.79,661.19,152.04,660.73,152.12,660.55 C152.28,660.18,152.3,659.8,152.3,659.3 C152.3,658.95,152.3,658.36,152.06,657.94 C151.82,657.55,151.45,657.29,151,657.29 C150.27,657.29,149.7,657.82,149.53,658.41 C149.56,658.4,149.59,658.39,149.7,658.39 C150.03,658.39,150.2,658.64,150.2,658.87 C150.2,659.11,150.03,659.36,149.7,659.36 C149.56,659.36,149.21,659.29,149.21,658.83 C149.21,657.98,149.9,657.02,151.02,657.02 C152.17,657.02,153.19,657.97,153.19,659.23 Z " />
<path
   id="path1867"
   fill="black"
   stroke-width="0"
   d="M156.62,663.59 L156.62,663.6 L156.62,663.61 L156.62,663.63 L156.62,663.64 L156.62,663.64 L156.62,663.65 L156.62,663.66 L156.62,663.67 L156.62,663.68 L156.62,663.69 L156.62,663.7 L156.62,663.71 L156.62,663.71 L156.62,663.72 L156.62,663.73 L156.62,663.73 L156.62,663.74 L156.62,663.75 L156.62,663.76 L156.62,663.77 L156.61,663.78 L156.61,663.79 L156.61,663.8 L156.6,663.8 L156.6,663.81 L156.59,663.82 L156.58,663.82 L156.58,663.83 L156.57,663.83 L156.56,663.84 L156.56,663.84 L156.55,663.84 L156.55,663.84 L156.54,663.84 L156.53,663.84 L156.53,663.84 L156.52,663.85 L156.52,663.85 L156.51,663.85 L156.5,663.85 L156.49,663.85 L156.49,663.85 L156.48,663.85 L156.47,663.85 L156.46,663.85 L156.45,663.85 L156.45,663.85 L156.44,663.85 L156.43,663.85 L156.42,663.85 L156.41,663.85 L156.4,663.85 C155.78,663.22,154.9,663.22,154.58,663.22 V662.91 C154.78,662.91,155.37,662.91,155.89,663.16 V658.02 C155.89,657.66,155.86,657.54,154.96,657.54 H154.64 V657.23 C154.99,657.27,155.86,657.27,156.26,657.27 C156.65,657.27,157.52,657.27,157.87,657.23 V657.54 H157.55 C156.65,657.54,156.62,657.65,156.62,658.02 Z " />
<path
   id="path1869"
   fill="black"
   stroke-width="0"
   d="M159.94,658 L161,659.02 C162.55,660.39,163.15,660.93,163.15,661.92 C163.15,663.06,162.26,663.85,161.04,663.85 C159.91,663.85,159.17,662.94,159.17,662.05 C159.17,661.5,159.67,661.5,159.7,661.5 C159.87,661.5,160.22,661.62,160.22,662.02 C160.22,662.28,160.04,662.54,159.69,662.54 C159.61,662.54,159.59,662.54,159.56,662.53 C159.79,663.17,160.33,663.54,160.91,663.54 C161.82,663.54,162.24,662.74,162.24,661.92 C162.24,661.13,161.75,660.34,161.2,659.73 L159.28,657.6 C159.17,657.49,159.17,657.47,159.17,657.23 H162.87 L163.15,658.96 H162.9 C162.85,658.66,162.78,658.23,162.68,658.08 C162.61,658,161.96,658,161.74,658 Z " />
</g>    <g
       id="g4897"
       ns0:jacobian_sqrt="1.0"
       inkscapeversion="0.92.3"
       ns0:alignment="middle center"
       ns0:scale="0.8"
       ns0:preamble="/home/mniemeyer/.config/inkscape/extensions/textext/default_packages.tex"
       ns0:text="$c_t$"
       ns0:pdfconverter="pdf2svg"
       ns0:texconverter="pdflatex"
       ns0:version="0.11.0"
       transform="matrix(1.000000,0.000000,0.000000,1.000000,-29.483695,802.396655)">
      <g
         id="surface1">
        <g
           id="g4890"
           style="fill:rgb(0%,0%,0%);fill-opacity:1;">
          <path
             id="path4888"
             transform="translate(148.712,134.765)"
             d="M 3.953125 -3.78125 C 3.78125 -3.78125 3.65625 -3.78125 3.515625 -3.65625 C 3.34375 -3.5 3.328125 -3.328125 3.328125 -3.265625 C 3.328125 -3.015625 3.515625 -2.90625 3.703125 -2.90625 C 3.984375 -2.90625 4.25 -3.15625 4.25 -3.546875 C 4.25 -4.03125 3.78125 -4.40625 3.078125 -4.40625 C 1.734375 -4.40625 0.40625 -2.984375 0.40625 -1.578125 C 0.40625 -0.671875 0.984375 0.109375 2.03125 0.109375 C 3.453125 0.109375 4.28125 -0.953125 4.28125 -1.0625 C 4.28125 -1.125 4.234375 -1.203125 4.171875 -1.203125 C 4.109375 -1.203125 4.09375 -1.171875 4.03125 -1.09375 C 3.25 -0.109375 2.15625 -0.109375 2.046875 -0.109375 C 1.421875 -0.109375 1.140625 -0.59375 1.140625 -1.203125 C 1.140625 -1.609375 1.34375 -2.578125 1.6875 -3.1875 C 2 -3.765625 2.546875 -4.1875 3.09375 -4.1875 C 3.421875 -4.1875 3.8125 -4.0625 3.953125 -3.78125 Z M 3.953125 -3.78125 "
             style="stroke:none;stroke-width:0" />
        </g>
        <g
           id="g4894"
           style="fill:rgb(0%,0%,0%);fill-opacity:1;">
          <path
             id="path4892"
             transform="translate(153.024,136.259)"
             d="M 1.71875 -2.75 L 2.421875 -2.75 C 2.5625 -2.75 2.640625 -2.75 2.640625 -2.90625 C 2.640625 -3 2.5625 -3 2.4375 -3 L 1.78125 -3 L 2.03125 -4.03125 C 2.046875 -4.0625 2.0625 -4.109375 2.0625 -4.125 C 2.0625 -4.265625 1.953125 -4.359375 1.8125 -4.359375 C 1.640625 -4.359375 1.546875 -4.234375 1.484375 -4.0625 C 1.4375 -3.875 1.53125 -4.21875 1.21875 -3 L 0.515625 -3 C 0.390625 -3 0.296875 -3 0.296875 -2.84375 C 0.296875 -2.75 0.375 -2.75 0.5 -2.75 L 1.15625 -2.75 L 0.75 -1.109375 C 0.703125 -0.9375 0.640625 -0.6875 0.640625 -0.59375 C 0.640625 -0.1875 1 0.0625 1.390625 0.0625 C 2.171875 0.0625 2.609375 -0.90625 2.609375 -1 C 2.609375 -1.09375 2.515625 -1.09375 2.5 -1.09375 C 2.40625 -1.09375 2.40625 -1.078125 2.34375 -0.953125 C 2.15625 -0.515625 1.796875 -0.125 1.421875 -0.125 C 1.265625 -0.125 1.171875 -0.21875 1.171875 -0.46875 C 1.171875 -0.53125 1.203125 -0.6875 1.21875 -0.75 Z M 1.71875 -2.75 "
             style="stroke:none;stroke-width:0" />
        </g>
      </g>
    </g>
  </g>
  <g
     transform="translate(-4.2138395,-186.49914)"
     inkscape:label="Text"
     id="layer3"
     inkscape:groupmode="layer">
    <g
       style="font-style:normal;font-variant:normal;font-weight:normal;font-stretch:normal;letter-spacing:normal;word-spacing:normal;text-anchor:start;fill:none;fill-opacity:1;fill-rule:evenodd;stroke:#000000;stroke-linecap:butt;stroke-linejoin:miter;stroke-miterlimit:10.43299961;stroke-dasharray:none;stroke-dashoffset:0;stroke-opacity:1"
       ns0:jacobian_sqrt="1.066667"
       inkscapeversion="0.91"
       ns0:alignment="middle center"
       ns0:scale="0.8"
       ns0:preamble="/is/sg/mniemeyer/.config/inkscape/extensions/default_packages.tex"
       ns0:text="Input $\\mathbf{x}$"
       ns0:pdfconverter="pstoedit"
       ns0:texconverter="pdflatex"
       ns0:version="0.8.1"
       word-spacing="normal"
       letter-spacing="normal"
       font-size-adjust="none"
       font-stretch="normal"
       font-weight="normal"
       font-variant="normal"
       font-style="normal"
       stroke-miterlimit="10.433"
       xml:space="preserve"
       transform="matrix(1.066667,0,0,-1.066667,-53.588301,894.78736)"
       id="g6226">
<path
   id="path6214"
   style="fill:#000000;fill-opacity:1;stroke:#000000;stroke-width:0;stroke-opacity:1"
   d="m 150.96,663.24 v 0.04 0.03 0.03 0.03 0.03 0.02 l 0.01,0.03 v 0.02 l 0.01,0.02 0.01,0.02 0.01,0.02 0.01,0.02 0.01,0.02 0.01,0.01 0.02,0.02 0.02,0.01 0.02,0.02 0.02,0.01 h 0.02 l 0.01,0.01 h 0.01 l 0.02,0.01 h 0.01 l 0.02,0.01 h 0.02 l 0.01,0.01 h 0.02 0.02 l 0.02,0.01 h 0.02 0.03 0.02 l 0.02,0.01 h 0.03 0.02 0.03 l 0.02,0.01 h 0.03 0.03 0.03 0.03 0.03 0.04 0.03 0.04 0.03 0.26 v 0.31 c -0.35,-0.03 -1.13,-0.03 -1.51,-0.03 -0.39,0 -1.18,0 -1.53,0.03 v -0.31 h 0.26 c 0.79,0 0.82,-0.11 0.82,-0.47 v -5.23 c 0,-0.36 -0.03,-0.47 -0.82,-0.47 h -0.26 v -0.31 c 0.35,0.04 1.14,0.04 1.52,0.04 0.39,0 1.17,0 1.52,-0.04 v 0.31 h -0.26 c -0.78,0 -0.81,0.11 -0.81,0.47 z"
   inkscape:connector-curvature="0" />
<path
   id="path6216"
   style="fill:#000000;fill-opacity:1;stroke:#000000;stroke-width:0;stroke-opacity:1"
   d="m 153.41,660.65 v -2.66 c 0,-0.45 -0.11,-0.45 -0.78,-0.45 v -0.31 c 0.35,0.01 0.86,0.04 1.13,0.04 0.25,0 0.77,-0.03 1.11,-0.04 v 0.31 c -0.67,0 -0.77,0 -0.77,0.45 v 1.83 c 0,1.03 0.7,1.59 1.34,1.59 0.63,0 0.74,-0.54 0.74,-1.11 v -2.31 c 0,-0.45 -0.11,-0.45 -0.78,-0.45 v -0.31 c 0.35,0.01 0.86,0.04 1.13,0.04 0.26,0 0.78,-0.03 1.12,-0.04 v 0.31 c -0.52,0 -0.77,0 -0.78,0.3 v 1.9 c 0,0.85 0,1.16 -0.31,1.52 -0.14,0.17 -0.47,0.37 -1.05,0.37 -0.73,0 -1.2,-0.43 -1.47,-1.05 v 1.05 l -1.41,-0.11 v -0.31 c 0.7,0 0.78,-0.07 0.78,-0.56 z"
   inkscape:connector-curvature="0" />
<path
   id="path6218"
   style="fill:#000000;fill-opacity:1;stroke:#000000;stroke-width:0;stroke-opacity:1"
   d="m 159.56,660.97 v 0.66 l -1.44,-0.11 v -0.31 c 0.71,0 0.78,-0.06 0.78,-0.5 v -4.65 c 0,-0.44 -0.11,-0.44 -0.78,-0.44 v -0.31 c 0.34,0.01 0.86,0.03 1.12,0.03 0.27,0 0.78,-0.02 1.13,-0.03 v 0.31 c -0.67,0 -0.78,0 -0.78,0.44 v 1.67 0.09 l 0.14,0.13 c -0.14,0.21 -0.14,0.22 -0.14,0.42 v 0 2.21 c 0.29,0.51 0.78,0.8 1.29,0.8 0.72,0 1.33,-0.88 1.33,-2 0,-1.2 -0.7,-2.04 -1.43,-2.04 -0.4,0 -0.78,0.2 -1.05,0.61 l -0.14,-0.13 c 0.05,-0.16 0.47,-0.69 1.23,-0.69 1.18,0 2.22,0.97 2.22,2.25 0,1.26 -0.97,2.25 -2.08,2.25 -0.78,0 -1.2,-0.44 -1.4,-0.66 z"
   inkscape:connector-curvature="0" />
<path
   id="path6220"
   style="fill:#000000;fill-opacity:1;stroke:#000000;stroke-width:0;stroke-opacity:1"
   d="m 167.28,658.02 v -0.89 l 1.43,0.1 v 0.31 c -0.69,0 -0.77,0.07 -0.77,0.56 v 3.53 l -1.47,-0.11 v -0.31 c 0.7,0 0.78,-0.07 0.78,-0.56 v -1.77 c 0,-0.86 -0.48,-1.54 -1.21,-1.54 -0.83,0 -0.88,0.47 -0.88,0.99 v 3.3 l -1.46,-0.11 v -0.31 c 0.78,0 0.78,-0.03 0.78,-0.92 v -1.49 c 0,-0.77 0,-1.67 1.51,-1.67 0.56,0 1,0.27 1.29,0.89 z"
   inkscape:connector-curvature="0" />
<path
   id="path6222"
   style="fill:#000000;fill-opacity:1;stroke:#000000;stroke-width:0;stroke-opacity:1"
   d="m 170.64,661.21 h 1.43 v 0.31 h -1.43 v 1.82 h -0.25 c -0.01,-0.81 -0.31,-1.87 -1.29,-1.91 v -0.22 h 0.85 v -2.74 c 0,-1.23 0.93,-1.34 1.29,-1.34 0.71,0 0.99,0.7 0.99,1.34 v 0.56 h -0.25 v -0.54 c 0,-0.74 -0.3,-1.12 -0.67,-1.12 -0.67,0 -0.67,0.91 -0.67,1.08 z"
   inkscape:connector-curvature="0" />
<path
   id="path6224"
   style="fill:#000000;fill-opacity:1;stroke:#000000;stroke-width:0;stroke-opacity:1"
   d="m 179.56,659.68 1.17,1.29 c 0.13,0.14 0.19,0.21 1.01,0.21 v 0.47 c -0.34,-0.02 -0.86,-0.03 -0.91,-0.03 -0.25,0 -0.75,0.02 -1.03,0.03 v -0.47 c 0.14,0 0.26,-0.02 0.38,-0.09 -0.04,-0.06 -0.04,-0.08 -0.08,-0.12 l -0.84,-0.93 -0.98,1.14 h 0.4 v 0.47 c -0.26,-0.01 -0.89,-0.03 -1.2,-0.03 -0.32,0 -0.77,0.02 -1.1,0.03 v -0.47 h 0.71 l 1.55,-1.83 -1.3,-1.46 c -0.17,-0.19 -0.53,-0.19 -1.01,-0.19 v -0.47 c 0.35,0.03 0.87,0.04 0.92,0.04 0.25,0 0.82,-0.03 1.02,-0.04 v 0.47 c -0.18,0 -0.37,0.05 -0.37,0.11 0,0.01 0,0.02 0.08,0.1 l 0.96,1.08 1.1,-1.29 h -0.39 v -0.47 c 0.26,0.01 0.87,0.04 1.2,0.04 0.32,0 0.77,-0.03 1.09,-0.04 v 0.47 h -0.7 z"
   inkscape:connector-curvature="0" />
</g>    <g
       id="g5445"
       transform="matrix(1.066667,0.000000,0.000000,-1.066667,-39.748297,914.085757)"
       xml:space="preserve"
       stroke="black"
       stroke-linecap="butt"
       stroke-linejoin="miter"
       stroke-miterlimit="10.433"
       stroke-dasharray="none"
       stroke-dashoffset="0"
       stroke-opacity="1"
       fill="none"
       fill-rule="evenodd"
       fill-opacity="1"
       font-style="normal"
       font-variant="normal"
       font-weight="normal"
       font-stretch="normal"
       font-size-adjust="none"
       letter-spacing="normal"
       word-spacing="normal"
       text-anchor="start"
       ns0:version="0.8.1"
       ns0:texconverter="pdflatex"
       ns0:pdfconverter="pstoedit"
       ns0:text="$g_t$"
       ns0:preamble="/is/sg/mniemeyer/.config/inkscape/extensions/default_packages.tex"
       ns0:scale="0.8"
       ns0:alignment="middle center"
       inkscapeversion="0.92.3"
       ns0:jacobian_sqrt="1.066667"
       style="stroke:#000000;stroke-opacity:1;fill-opacity:1">
<path
   d="M153.41,660.98 L153.41,660.99 L153.41,661 L153.42,661.01 L153.42,661.02 L153.42,661.04 L153.43,661.06 L153.43,661.07 L153.43,661.08 L153.43,661.09 L153.43,661.1 L153.44,661.11 L153.44,661.12 L153.44,661.13 L153.44,661.13 L153.44,661.14 L153.44,661.15 L153.44,661.15 L153.44,661.16 C153.44,661.33,153.32,661.43,153.15,661.43 C153.05,661.43,152.78,661.36,152.74,661 C152.56,661.37,152.21,661.63,151.81,661.63 L151.82,661.41 C152.48,661.41,152.62,660.6,152.62,660.55 C152.62,660.5,152.6,660.44,152.59,660.4 L152.11,658.51 C152.05,658.25,151.82,658,151.6,657.81 C151.4,657.63,151.09,657.45,150.8,657.45 C150.3,657.45,150.15,657.97,150.15,658.37 C150.15,658.84,150.44,660.02,150.71,660.52 C150.98,661.01,151.4,661.41,151.82,661.41 L151.81,661.63 C150.68,661.63,149.44,660.23,149.44,658.8 C149.44,657.82,150.05,657.23,150.77,657.23 C151.35,657.23,151.82,657.7,151.92,657.81 L151.93,657.8 C151.72,656.92,151.6,656.51,151.6,656.49 C151.56,656.4,151.23,655.42,150.17,655.42 C149.98,655.42,149.65,655.43,149.37,655.52 C149.67,655.61,149.78,655.86,149.78,656.03 C149.78,656.19,149.67,656.38,149.4,656.38 C149.18,656.38,148.86,656.2,148.86,655.8 C148.86,655.4,149.23,655.2,150.19,655.2 C151.43,655.2,152.15,655.97,152.3,656.57 Z "
   stroke-width="0"
   fill="black"
   style="stroke:#000000;stroke-opacity:1;fill-opacity:1"
   id="path5441" />
<path
   d="M155.18,658.49 H155.9 C156.03,658.49,156.12,658.49,156.12,658.64 C156.12,658.74,156.03,658.74,155.91,658.74 H155.25 L155.51,659.77 C155.51,659.8,155.53,659.84,155.53,659.86 C155.53,659.99,155.43,660.09,155.29,660.09 C155.11,660.09,155.01,659.97,154.96,659.79 C154.91,659.61,155,659.95,154.7,658.74 H153.98 C153.85,658.74,153.76,658.74,153.76,658.59 C153.76,658.49,153.84,658.49,153.97,658.49 H154.63 L154.22,656.85 C154.18,656.67,154.11,656.42,154.11,656.33 C154.11,655.92,154.46,655.67,154.86,655.67 C155.64,655.67,156.08,656.65,156.08,656.73 C156.08,656.83,155.99,656.83,155.97,656.83 C155.88,656.83,155.88,656.81,155.82,656.69 C155.62,656.26,155.27,655.87,154.88,655.87 C154.74,655.87,154.64,655.96,154.64,656.21 C154.64,656.28,154.67,656.42,154.68,656.49 Z "
   stroke-width="0"
   fill="black"
   style="stroke:#000000;stroke-opacity:1;fill-opacity:1"
   id="path5443" />
</g>  </g>
</svg>
