<?xml version="1.0" encoding="UTF-8" standalone="no"?>
<!-- Created with Inkscape (http://www.inkscape.org/) -->

<svg
   xmlns:dc="http://purl.org/dc/elements/1.1/"
   xmlns:cc="http://creativecommons.org/ns#"
   xmlns:rdf="http://www.w3.org/1999/02/22-rdf-syntax-ns#"
   xmlns:svg="http://www.w3.org/2000/svg"
   xmlns="http://www.w3.org/2000/svg"
   xmlns:sodipodi="http://sodipodi.sourceforge.net/DTD/sodipodi-0.dtd"
   xmlns:inkscape="http://www.inkscape.org/namespaces/inkscape"
   version="1.1"
   id="svg2"
   xml:space="preserve"
   width="509.47208"
   height="296.18802"
   viewBox="0 0 509.47208 296.18802"
   sodipodi:docname="twoview_triangulation.svg"
   inkscape:version="0.92.3 (unknown)"><metadata
     id="metadata8"><rdf:RDF><cc:Work
         rdf:about=""><dc:format>image/svg+xml</dc:format><dc:type
           rdf:resource="http://purl.org/dc/dcmitype/StillImage" /><dc:title></dc:title></cc:Work></rdf:RDF></metadata><defs
     id="defs6"><clipPath
       clipPathUnits="userSpaceOnUse"
       id="clipPath102"><path
         d="m 0,97.141 h 41 v -29 H 0 Z"
         id="path100"
         inkscape:connector-curvature="0" /></clipPath><clipPath
       clipPathUnits="userSpaceOnUse"
       id="clipPath108"><path
         d="m 40.281,68.231 c -7.804,3.387 -31.91,3.781 -39.945,0.113 7.969,3.672 24.656,19.895 28.168,28.117"
         id="path106"
         inkscape:connector-curvature="0" /></clipPath><clipPath
       clipPathUnits="userSpaceOnUse"
       id="clipPath118"><path
         d="M 21,69 H 33 V 92 H 21 Z"
         id="path116"
         inkscape:connector-curvature="0" /></clipPath><clipPath
       clipPathUnits="userSpaceOnUse"
       id="clipPath132"><path
         d="m 20,85.141 h 11 v -14 H 20 Z"
         id="path130"
         inkscape:connector-curvature="0" /></clipPath><clipPath
       clipPathUnits="userSpaceOnUse"
       id="clipPath138"><path
         d="m 21.965,74.723 c 0.652,0.484 -0.219,0.324 -0.219,0.508 0,0.301 0.223,-0.235 0.07,0.219 -0.007,0.031 -0.07,0.039 -0.07,0.07 0,0.035 0.07,0.039 0.07,0.074 0,0.07 -0.144,0.078 -0.144,0.145 0,0.035 0.074,0.039 0.074,0.074 0,0.066 -0.144,0.074 -0.144,0.144 0,0.036 0.07,0.039 0.07,0.075 0,0.191 -0.223,-0.086 -0.07,0.214 0.027,0.063 0.144,0.079 0.144,0.145 0,0.148 -0.184,0.109 -0.219,0.219 -0.015,0.047 0.016,0.101 0,0.144 -0.011,0.035 -0.062,0.043 -0.074,0.075 -0.015,0.046 0.016,0.097 0,0.144 -0.019,0.066 -0.144,0.078 -0.144,0.145 0,0.035 0.074,0.039 0.074,0.074 0,0.035 -0.063,0.039 -0.074,0.074 -0.016,0.043 0.015,0.098 0,0.145 -0.039,0.113 -0.106,0.027 -0.145,0.144 -0.016,0.047 0.016,0.098 0,0.145 -0.012,0.031 -0.059,0.043 -0.074,0.074 -0.031,0.066 -0.031,0.152 -0.07,0.215 -0.036,0.058 -0.133,0.078 -0.149,0.148 -0.012,0.074 0.074,0.141 0.074,0.215 0.153,0.207 -0.125,0.187 -0.144,0.293 -0.039,0.187 0.039,0.391 0,0.578 -0.008,0.035 -0.074,0.039 -0.074,0.074 0,0.035 0.085,0.039 0.074,0.074 -0.024,0.063 -0.133,0.079 -0.145,0.145 -0.015,0.074 0.086,0.141 0.071,0.215 -0.012,0.07 -0.122,0.082 -0.145,0.148 -0.012,0.032 0.074,0.039 0.074,0.071 0,0.035 -0.066,0.039 -0.074,0.074 -0.02,0.094 0,0.191 0,0.289 0,0.051 -0.023,0.101 0,0.144 0.031,0.063 0.145,0.079 0.145,0.149 0,0.066 -0.122,0.078 -0.145,0.144 -0.012,0.032 0.074,0.039 0.074,0.071 0,0.035 -0.074,0.039 -0.074,0.074 0,0.301 0.223,-0.234 0.074,0.219 -0.011,0.031 -0.074,0.035 -0.074,0.07 0,0.035 0.063,0.039 0.074,0.074 0.028,0.09 -0.031,0.199 0,0.289 0.008,0.032 0.047,0.051 0.071,0.074 0.05,0.047 0.125,0.079 0.144,0.145 0.012,0.031 -0.07,0.039 -0.07,0.074 0,0.094 0.144,0.047 0.144,0.145 0,0.031 -0.074,0.039 -0.074,0.07 0,0.07 0.125,0.082 0.149,0.145 0.015,0.046 -0.016,0.101 0,0.148 0.019,0.059 0.289,0.25 0.289,0.289 0,0.035 -0.082,0.039 -0.071,0.074 0.016,0.043 0.301,0.301 0.364,0.36 l 1.671,1.672 c 0.024,0.023 0.047,0.046 0.075,0.074 0.023,0.023 0.039,0.082 0.07,0.07 0.066,-0.019 0.082,-0.121 0.144,-0.144 0.036,-0.012 0.051,0.046 0.075,0.074 0.195,0.191 -0.047,0 0.144,0 0.071,0 0.078,0.144 0.145,0.144 0.07,0 0.078,-0.144 0.148,-0.144 0.067,0 0.078,0.121 0.145,0.144 0.047,0.016 0.097,-0.015 0.144,0 0.035,0.012 0.039,0.071 0.075,0.071 0.066,0 0.078,-0.145 0.144,-0.145 0.035,0 0.039,0.074 0.074,0.074 0.067,0 0.074,-0.144 0.145,-0.144 0.035,0 0.039,0.07 0.074,0.07 0.031,0 0.035,-0.07 0.07,-0.07 0.035,0 0.039,0.07 0.075,0.07 0.066,0 0.074,-0.144 0.144,-0.144 0.035,0 0.039,0.074 0.074,0.074 0.032,0 0.039,-0.074 0.071,-0.074 0.035,0 0.039,0.074 0.074,0.074 0.066,0 0.078,-0.149 0.144,-0.149 0.035,0 0.039,0.075 0.075,0.075 0.066,0 0.074,-0.145 0.144,-0.145 0.035,0 0.039,0.07 0.074,0.07 0.032,0 0.035,-0.07 0.071,-0.07 0.035,0 0.039,0.07 0.074,0.07 0.035,0 0.254,-0.289 0.289,-0.289 0.035,0 0.039,0.075 0.074,0.075 0.035,0 0.047,-0.051 0.074,-0.075 0.024,-0.023 0.047,-0.047 0.071,-0.074 0.195,-0.191 -0.047,0 0.144,0 0.071,0 0.078,-0.144 0.149,-0.144 0.031,0 0.035,0.074 0.07,0.074 0.074,0 0.144,-0.219 0.219,-0.219 0.035,0 0.039,0.074 0.074,0.074 0.035,0 0.047,-0.051 0.07,-0.074 0.028,-0.023 0.051,-0.047 0.074,-0.07 l 1.09,-1.09 c 0.024,-0.024 0.086,-0.043 0.075,-0.074 -0.024,-0.063 -0.126,-0.078 -0.145,-0.145 -0.008,-0.019 0.199,-0.199 0.219,-0.219 0.191,-0.191 0,0.051 0,-0.144 -0.004,-0.035 0.047,-0.047 0.07,-0.074 0.023,-0.024 0.051,-0.047 0.074,-0.071 0.051,-0.05 0.426,-0.406 0.434,-0.437 0.152,-0.453 -0.07,0.082 -0.07,-0.215 0,-0.074 0.218,-0.148 0.218,-0.219 0,-0.035 -0.074,-0.039 -0.074,-0.074 0,-0.035 0.063,-0.039 0.074,-0.07 0,-0.485 -0.035,0.101 0.071,-0.219 0.015,-0.047 -0.016,-0.102 0,-0.145 0.031,-0.089 0.191,-0.132 0.218,-0.218 0.153,-0.453 -0.07,0.082 -0.07,-0.219 0,-0.067 0.145,-0.074 0.145,-0.145 0,-0.035 -0.075,-0.039 -0.075,-0.074 0,-0.031 0.075,-0.035 0.075,-0.07 0,-0.035 -0.075,-0.039 -0.075,-0.074 0,-0.036 0.063,-0.039 0.075,-0.071 0,-0.484 -0.036,0.102 0.07,-0.218 0,-0.481 -0.031,0.101 0.074,-0.219 0.016,-0.047 -0.016,-0.098 0,-0.145 0.012,-0.031 0.074,-0.039 0.074,-0.074 0,-0.031 -0.074,-0.035 -0.074,-0.07 0,-0.071 0.145,-0.078 0.145,-0.145 0,-0.035 -0.071,-0.039 -0.071,-0.074 0,-0.074 0.219,-0.145 0.219,-0.219 0,-0.031 -0.074,-0.039 -0.074,-0.07 0,-0.07 0.144,-0.078 0.144,-0.145 0,-0.035 -0.07,-0.039 -0.07,-0.074 0,-0.035 0.047,-0.047 0.07,-0.074 -0.023,-0.023 -0.07,-0.039 -0.07,-0.07 0,-0.036 0.07,-0.039 0.07,-0.075 0,-0.035 -0.07,-0.039 -0.07,-0.07 0,-0.035 0.07,-0.039 0.07,-0.074 0,-0.035 -0.07,-0.039 -0.07,-0.074 0,-0.032 0.07,-0.035 0.07,-0.071 0,-0.035 -0.07,-0.039 -0.07,-0.074 0,-0.07 0.215,-0.144 0.215,-0.219 0,-0.031 -0.07,-0.035 -0.07,-0.07 0,-0.07 0.144,-0.078 0.144,-0.144 0,-0.036 -0.074,-0.04 -0.074,-0.075 0,-0.035 0.051,-0.047 0.074,-0.07 -0.023,-0.027 -0.074,-0.039 -0.074,-0.074 0,-0.071 0.148,-0.078 0.148,-0.145 0,-0.035 -0.074,-0.039 -0.074,-0.074 0,-0.035 0.074,-0.039 0.074,-0.07 0,-0.035 -0.074,-0.039 -0.074,-0.074 0,-0.071 0.145,-0.079 0.145,-0.145 0,-0.035 -0.071,-0.039 -0.071,-0.074 0,-0.067 0.145,-0.074 0.145,-0.145 0,-0.035 -0.074,-0.039 -0.074,-0.074 0,-0.031 0.062,-0.039 0.074,-0.07 0.015,-0.047 -0.016,-0.102 0,-0.145 0.012,-0.035 0.07,-0.039 0.07,-0.074 0,-0.035 -0.07,-0.039 -0.07,-0.07 0,-0.071 0.144,-0.078 0.144,-0.149 0,-0.031 -0.074,-0.035 -0.074,-0.07 0.195,-0.195 0,0.047 0,-0.145 0,-0.035 0.074,-0.039 0.074,-0.074 0,-0.035 -0.074,-0.039 -0.074,-0.074 0,-0.066 0.149,-0.074 0.149,-0.145 0,-0.031 -0.075,-0.039 -0.075,-0.07 0,-0.07 0.145,-0.078 0.145,-0.144 0,-0.036 -0.07,-0.04 -0.07,-0.075 0,-0.035 0.046,-0.047 0.07,-0.074 -0.024,-0.023 -0.07,-0.039 -0.07,-0.07 0,-0.035 0.07,-0.039 0.07,-0.074 0,-0.036 -0.07,-0.039 -0.07,-0.071 0,-0.07 0.121,-0.082 0.144,-0.148 0.031,-0.09 -0.031,-0.195 0,-0.289 0.012,-0.031 0.074,-0.039 0.074,-0.074 0,-0.032 -0.074,-0.036 -0.074,-0.071 0,-0.035 0.074,-0.039 0.074,-0.074 -0.195,-0.191 0,0.051 0,-0.145 0,-0.035 -0.062,-0.039 -0.074,-0.07 -0.015,-0.047 0.016,-0.101 0,-0.148 -0.012,-0.032 -0.074,-0.039 -0.074,-0.071 0,-0.035 0.074,-0.039 0.074,-0.074 0,-0.035 -0.074,-0.039 -0.074,-0.07 0,-0.035 0.074,-0.039 0.074,-0.074 0,-0.035 -0.074,-0.039 -0.074,-0.075 0,-0.031 0.074,-0.035 0.074,-0.07 0,-0.074 -0.219,-0.144 -0.219,-0.219 0,-0.035 0.075,-0.039 0.075,-0.074 0,-0.066 -0.125,-0.078 -0.149,-0.144 -0.012,-0.043 0.016,-0.098 0,-0.145 -0.008,-0.031 -0.058,-0.039 -0.07,-0.07 -0.016,-0.047 0.015,-0.102 0,-0.149 -0.016,-0.043 -0.219,-0.187 -0.219,-0.214 0,-0.036 0.074,-0.04 0.074,-0.075 0,-0.008 -0.332,-0.328 -0.367,-0.363 l -0.433,-0.434 c -0.024,-0.027 -0.04,-0.074 -0.075,-0.074 -0.07,0.024 -0.144,0.047 -0.218,0.074 -0.024,-0.027 -0.039,-0.074 -0.071,-0.074 -0.035,0 -0.039,0.074 -0.074,0.074 -0.035,0 -0.039,-0.062 -0.074,-0.074 -0.043,-0.015 -0.098,0.016 -0.145,0 -0.031,-0.012 -0.039,-0.074 -0.07,-0.074 -0.035,0 -0.039,0.074 -0.074,0.074 -0.035,0 -0.039,-0.062 -0.074,-0.074 -0.454,-0.148 0.085,0.074 -0.219,0.074 -0.031,0 -0.035,-0.074 -0.07,-0.074 -0.036,0 -0.04,0.074 -0.075,0.074 -0.035,0 -0.039,-0.074 -0.07,-0.074 -0.035,0 -0.039,0.074 -0.074,0.074 -0.035,0 -0.039,-0.074 -0.074,-0.074 -0.032,0 -0.04,0.062 -0.071,0.074 -0.047,0.016 -0.101,-0.015 -0.144,0 -0.035,0.012 -0.039,0.074 -0.075,0.074 -0.035,0 -0.039,-0.074 -0.074,-0.074 -0.066,0 -0.078,0.125 -0.144,0.145 -0.047,0.015 -0.098,-0.016 -0.145,0 -0.035,0.011 -0.039,0.062 -0.074,0.074 -0.047,0.016 -0.098,-0.016 -0.145,0 -0.031,0.012 -0.039,0.07 -0.074,0.07 -0.031,0 -0.039,-0.07 -0.07,-0.07 -0.07,0 -0.078,0.144 -0.149,0.144 -0.031,0 -0.035,-0.074 -0.07,-0.074 -0.07,0 -0.078,0.149 -0.144,0.149 -0.036,0 -0.039,-0.075 -0.075,-0.075 -0.07,0 -0.082,0.125 -0.144,0.145 -0.047,0.016 -0.102,-0.016 -0.145,0 -0.066,0.023 -0.082,0.125 -0.148,0.145 -0.043,0.015 -0.098,-0.016 -0.145,0 -0.058,0.019 -0.25,0.293 -0.289,0.293 -0.035,0 -0.039,-0.075 -0.074,-0.075 -0.035,0 -0.047,0.047 -0.074,0.075 l -0.363,0.363 c -0.028,0.023 -0.286,0.289 -0.289,0.289 -0.036,0 -0.04,-0.074 -0.075,-0.074 -0.004,0 -0.199,0.203 -0.218,0.218 -0.032,0.032 -0.184,0.207 -0.219,0.219 -0.043,0.016 -0.098,-0.015 -0.145,0 -0.027,0.008 -0.383,0.383 -0.437,0.434 -0.024,0.027 -0.035,0.074 -0.071,0.074 -0.035,0 -0.039,-0.074 -0.074,-0.074 -0.004,0 -0.199,0.203 -0.219,0.218 -0.191,0.196 0.051,0 -0.144,0 -0.027,0 -0.176,0.204 -0.219,0.219 -0.047,0.016 -0.097,-0.015 -0.144,0 -0.032,0.012 -0.039,0.071 -0.075,0.071 -0.031,0 -0.035,-0.071 -0.07,-0.071 -0.07,0 -0.078,0.145 -0.144,0.145 -0.036,0 -0.039,-0.074 -0.075,-0.074 -0.074,0 -0.144,0.218 -0.218,0.218 -0.035,0 -0.047,-0.047 -0.075,-0.07 -0.023,-0.027 -0.035,-0.074 -0.07,-0.074 -0.035,0 -0.051,0.047 -0.074,0.074 -0.098,0.094 -0.192,0.191 -0.289,0.289 z"
         id="path136"
         inkscape:connector-curvature="0" /></clipPath><clipPath
       clipPathUnits="userSpaceOnUse"
       id="clipPath148"><path
         d="M 24,76 H 34 V 86 H 24 Z"
         id="path146"
         inkscape:connector-curvature="0" /></clipPath><clipPath
       clipPathUnits="userSpaceOnUse"
       id="clipPath168"><path
         d="m 343,59.141 h 39 v -35 h -39 z"
         id="path166"
         inkscape:connector-curvature="0" /></clipPath><clipPath
       clipPathUnits="userSpaceOnUse"
       id="clipPath174"><path
         d="m 361.766,58.973 c 0.964,-8.441 12.672,-29.477 19.875,-34.59 -7.172,5.055 -29.59,11.367 -38.477,10.293"
         id="path172"
         inkscape:connector-curvature="0" /></clipPath><clipPath
       clipPathUnits="userSpaceOnUse"
       id="clipPath184"><path
         d="m 350,33 h 17 v 21 h -17 z"
         id="path182"
         inkscape:connector-curvature="0" /></clipPath><clipPath
       clipPathUnits="userSpaceOnUse"
       id="clipPath198"><path
         d="m 354,49.141 h 12 v -14 h -12 z"
         id="path196"
         inkscape:connector-curvature="0" /></clipPath><clipPath
       clipPathUnits="userSpaceOnUse"
       id="clipPath204"><path
         d="m 365.289,39.891 c -0.746,0.324 -0.172,-0.352 -0.332,-0.441 -0.258,-0.153 0.094,0.308 -0.223,-0.047 -0.023,-0.028 0.004,-0.082 -0.027,-0.102 -0.031,-0.015 -0.07,0.043 -0.098,0.028 -0.062,-0.036 0.004,-0.165 -0.054,-0.2 -0.032,-0.015 -0.071,0.047 -0.102,0.028 -0.058,-0.036 0.008,-0.164 -0.051,-0.2 -0.031,-0.015 -0.07,0.047 -0.101,0.028 -0.168,-0.098 0.187,-0.153 -0.153,-0.172 -0.066,-0.004 -0.136,0.09 -0.199,0.055 -0.125,-0.075 0,-0.211 -0.078,-0.297 -0.031,-0.039 -0.094,-0.039 -0.125,-0.075 -0.023,-0.023 -0.004,-0.074 -0.027,-0.097 -0.031,-0.039 -0.094,-0.039 -0.125,-0.074 -0.047,-0.051 0.004,-0.164 -0.055,-0.2 -0.031,-0.015 -0.07,0.043 -0.098,0.028 -0.031,-0.016 -0.003,-0.074 -0.027,-0.098 -0.031,-0.039 -0.094,-0.039 -0.125,-0.074 -0.082,-0.09 0.027,-0.106 -0.055,-0.199 -0.031,-0.036 -0.093,-0.036 -0.125,-0.071 -0.023,-0.027 -0.007,-0.07 -0.027,-0.101 -0.043,-0.063 -0.117,-0.102 -0.152,-0.172 -0.035,-0.059 -0.004,-0.152 -0.055,-0.195 -0.059,-0.051 -0.16,-0.008 -0.227,-0.047 -0.25,0.027 -0.097,-0.2 -0.175,-0.274 -0.149,-0.125 -0.36,-0.16 -0.504,-0.289 -0.028,-0.023 0,-0.082 -0.028,-0.097 -0.031,-0.02 -0.078,0.05 -0.101,0.027 -0.043,-0.055 0,-0.156 -0.051,-0.199 -0.059,-0.051 -0.168,0.004 -0.227,-0.047 -0.05,-0.047 -0.007,-0.149 -0.054,-0.199 -0.02,-0.024 -0.067,0.043 -0.098,0.027 -0.031,-0.016 0,-0.078 -0.027,-0.098 -0.071,-0.066 -0.168,-0.097 -0.25,-0.148 -0.043,-0.024 -0.078,-0.067 -0.129,-0.07 -0.066,-0.004 -0.137,0.085 -0.195,0.05 -0.063,-0.031 -0.008,-0.144 -0.055,-0.195 -0.024,-0.027 -0.07,0.043 -0.102,0.023 -0.027,-0.015 0.004,-0.082 -0.023,-0.097 -0.262,-0.149 0.09,0.312 -0.227,-0.047 -0.023,-0.024 0.004,-0.082 -0.027,-0.098 -0.027,-0.015 -0.066,0.035 -0.098,0.028 -0.097,-0.02 -0.156,-0.125 -0.254,-0.145 -0.031,-0.008 -0.066,0.016 -0.097,0.023 -0.067,0.02 -0.133,0.067 -0.199,0.055 -0.036,-0.008 0.003,-0.082 -0.028,-0.097 -0.082,-0.051 -0.113,0.101 -0.199,0.05 -0.027,-0.015 0.004,-0.082 -0.027,-0.097 -0.059,-0.036 -0.129,0.066 -0.196,0.05 -0.05,-0.007 -0.082,-0.062 -0.129,-0.07 -0.058,-0.012 -0.363,0.125 -0.394,0.106 -0.031,-0.016 0.004,-0.094 -0.027,-0.098 -0.051,-0.012 -0.415,0.109 -0.497,0.133 l -1.292,0.343 -0.993,0.266 c -0.035,0.008 -0.066,0.02 -0.101,0.027 -0.032,0.008 -0.094,-0.007 -0.098,0.028 -0.016,0.066 0.066,0.129 0.051,0.195 -0.004,0.035 -0.067,0.02 -0.098,0.027 -0.265,0.071 0.024,-0.039 -0.074,0.125 -0.035,0.063 -0.164,-0.003 -0.199,0.055 -0.031,0.059 0.09,0.141 0.054,0.199 -0.035,0.059 -0.148,0.008 -0.199,0.051 -0.035,0.035 -0.035,0.094 -0.07,0.129 -0.027,0.02 -0.086,-0.004 -0.102,0.023 -0.035,0.063 0.09,0.141 0.055,0.2 -0.019,0.031 -0.082,-0.004 -0.102,0.027 -0.031,0.059 0.09,0.141 0.055,0.199 -0.015,0.028 -0.082,-0.004 -0.101,0.028 -0.016,0.027 0.046,0.066 0.027,0.097 -0.016,0.032 -0.082,-0.004 -0.098,0.028 -0.035,0.058 0.086,0.136 0.055,0.199 -0.02,0.027 -0.086,-0.004 -0.102,0.023 -0.015,0.032 0.043,0.071 0.028,0.102 -0.016,0.027 -0.082,-0.004 -0.102,0.027 -0.031,0.059 0.09,0.137 0.055,0.195 -0.016,0.032 -0.082,0 -0.098,0.028 -0.035,0.058 0.086,0.14 0.051,0.199 -0.016,0.031 -0.082,-0.004 -0.098,0.027 -0.019,0.028 0.043,0.071 0.028,0.098 -0.02,0.031 -0.082,-0.004 -0.102,0.027 -0.015,0.032 0.125,0.368 0.106,0.399 -0.016,0.027 -0.082,-0.004 -0.098,0.023 -0.016,0.032 0.02,0.067 0.027,0.102 0.008,0.031 0.016,0.066 0.028,0.097 0.07,0.266 0.023,-0.042 -0.075,0.125 -0.035,0.059 0.086,0.141 0.055,0.2 -0.019,0.031 -0.082,-0.004 -0.101,0.027 -0.036,0.063 0.117,0.234 0.082,0.297 -0.02,0.031 -0.082,-0.004 -0.102,0.027 -0.016,0.028 0.02,0.067 0.027,0.098 0.008,0.035 0.02,0.066 0.028,0.101 l 0.398,1.489 c 0.008,0.031 -0.008,0.09 0.027,0.097 0.067,0.012 0.133,-0.066 0.2,-0.054 0.019,0.004 0.07,0.273 0.078,0.297 0.07,0.265 -0.039,-0.024 0.129,0.074 0.027,0.015 0.015,0.066 0.023,0.097 0.012,0.036 0.02,0.067 0.028,0.102 0.019,0.07 0.14,0.57 0.16,0.594 0.316,0.359 -0.035,-0.106 0.226,0.047 0.063,0.035 0.016,0.261 0.078,0.297 0.032,0.019 0.071,-0.043 0.102,-0.028 0.027,0.02 0.004,0.074 0.023,0.102 0.418,0.238 -0.07,-0.082 0.153,0.172 0.035,0.035 0.093,0.035 0.129,0.07 0.058,0.07 0.019,0.23 0.078,0.297 0.316,0.359 -0.035,-0.102 0.226,0.047 0.059,0.035 -0.007,0.164 0.051,0.199 0.031,0.016 0.07,-0.043 0.102,-0.027 0.031,0.019 -0.004,0.082 0.027,0.101 0.027,0.016 0.07,-0.047 0.098,-0.027 0.031,0.015 0.004,0.074 0.027,0.097 0.418,0.243 -0.07,-0.082 0.152,0.172 0.418,0.243 -0.07,-0.082 0.153,0.172 0.031,0.035 0.093,0.035 0.125,0.074 0.023,0.024 0,0.082 0.027,0.098 0.031,0.016 0.07,-0.043 0.102,-0.027 0.058,0.035 -0.008,0.164 0.05,0.199 0.032,0.016 0.071,-0.043 0.102,-0.027 0.062,0.039 0.016,0.261 0.078,0.296 0.031,0.02 0.07,-0.042 0.102,-0.023 0.058,0.031 -0.008,0.164 0.05,0.195 0.032,0.02 0.071,-0.043 0.102,-0.023 0.027,0.016 0.016,0.066 0.023,0.098 0.036,-0.008 0.071,-0.043 0.102,-0.028 0.027,0.02 -0.004,0.082 0.027,0.102 0.028,0.015 0.071,-0.047 0.098,-0.028 0.031,0.016 -0.004,0.082 0.027,0.098 0.032,0.02 0.071,-0.043 0.098,-0.027 0.031,0.019 0,0.082 0.027,0.101 0.032,0.016 0.071,-0.043 0.102,-0.027 0.062,0.035 0.015,0.262 0.078,0.297 0.031,0.019 0.07,-0.043 0.102,-0.027 0.058,0.035 -0.008,0.164 0.05,0.199 0.032,0.015 0.071,-0.043 0.102,-0.028 0.027,0.02 0.016,0.067 0.023,0.102 0.036,-0.012 0.071,-0.043 0.102,-0.027 0.058,0.035 -0.008,0.164 0.051,0.199 0.031,0.015 0.07,-0.043 0.101,-0.028 0.028,0.016 -0.004,0.083 0.028,0.098 0.027,0.02 0.07,-0.043 0.097,-0.027 0.059,0.035 -0.004,0.164 0.055,0.199 0.027,0.02 0.07,-0.043 0.098,-0.027 0.058,0.035 -0.004,0.164 0.054,0.199 0.028,0.019 0.071,-0.043 0.098,-0.027 0.031,0.019 0.004,0.074 0.027,0.101 0.032,0.035 0.094,0.035 0.125,0.07 0.024,0.028 0,0.082 0.028,0.102 0.031,0.016 0.07,-0.043 0.101,-0.027 0.059,0.035 -0.008,0.164 0.051,0.199 0.031,0.015 0.07,-0.043 0.102,-0.027 0.07,0.265 -0.043,-0.024 0.125,0.074 0.031,0.015 -0.004,0.082 0.027,0.097 0.027,0.016 0.07,-0.043 0.098,-0.027 0.058,0.035 -0.004,0.164 0.054,0.199 0.028,0.016 0.071,-0.043 0.098,-0.027 0.058,0.035 -0.004,0.164 0.055,0.199 0.027,0.016 0.07,-0.043 0.097,-0.027 0.031,0.015 0.02,0.066 0.028,0.097 0.035,-0.007 0.07,-0.043 0.101,-0.023 0.027,0.016 -0.004,0.082 0.024,0.098 0.031,0.015 0.07,-0.043 0.101,-0.028 0.059,0.035 0.008,0.149 0.051,0.2 0.066,0.074 0.187,0.074 0.254,0.144 0.023,0.027 -0.004,0.082 0.027,0.102 0.028,0.015 0.07,-0.047 0.098,-0.028 0.031,0.016 -0.004,0.082 0.027,0.098 0.266,-0.07 -0.043,-0.023 0.125,0.074 0.031,0.016 0.067,-0.035 0.102,-0.027 0.047,0.008 0.078,0.062 0.125,0.074 0.035,0.004 0.07,-0.047 0.097,-0.027 0.032,0.015 0,0.082 0.028,0.097 0.031,0.02 0.07,-0.043 0.101,-0.027 0.028,0.02 -0.004,0.082 0.024,0.102 0.031,0.015 0.07,-0.043 0.101,-0.028 0.028,0.016 -0.004,0.082 0.028,0.098 0.062,0.039 0.234,-0.113 0.296,-0.078 0.032,0.015 -0.003,0.082 0.028,0.097 0.058,0.036 0.129,-0.066 0.199,-0.05 0.047,0.007 0.078,0.062 0.125,0.07 0.031,0.008 0.066,-0.031 0.098,-0.027 0.05,0.011 0.078,0.066 0.129,0.074 0.043,0.008 0.269,-0.094 0.297,-0.078 0.027,0.015 -0.004,0.082 0.027,0.097 0.004,0.004 0.449,-0.121 0.496,-0.132 l 0.594,-0.161 c 0.035,-0.007 0.086,0.004 0.101,-0.027 0.016,-0.074 0.032,-0.148 0.047,-0.223 0.031,-0.007 0.082,0.004 0.098,-0.027 0.019,-0.031 -0.043,-0.07 -0.028,-0.098 0.02,-0.031 0.075,-0.004 0.102,-0.027 0.035,-0.031 0.035,-0.094 0.07,-0.125 0.028,-0.023 0.082,0 0.102,-0.027 0.015,-0.032 -0.043,-0.071 -0.027,-0.102 0.015,-0.027 0.074,-0.004 0.097,-0.023 0.36,-0.321 -0.101,0.035 0.047,-0.227 0.02,-0.031 0.082,0.004 0.102,-0.027 0.015,-0.028 -0.043,-0.071 -0.028,-0.098 0.016,-0.031 0.082,0.004 0.098,-0.027 0.019,-0.031 -0.043,-0.071 -0.027,-0.098 0.019,-0.031 0.086,0 0.101,-0.027 0.016,-0.031 -0.035,-0.067 -0.027,-0.102 0.012,-0.047 0.062,-0.078 0.074,-0.125 0.004,-0.031 -0.043,-0.07 -0.027,-0.097 0.015,-0.032 0.082,0.003 0.097,-0.028 0.035,-0.058 -0.066,-0.133 -0.05,-0.199 0.007,-0.047 0.062,-0.078 0.07,-0.125 0.008,-0.031 -0.031,-0.066 -0.024,-0.098 0.008,-0.047 0.063,-0.078 0.071,-0.125 0.008,-0.035 -0.043,-0.07 -0.028,-0.101 0.02,-0.028 0.082,0.004 0.102,-0.028 0.035,-0.058 -0.09,-0.136 -0.055,-0.195 0.02,-0.031 0.082,0 0.102,-0.027 0.031,-0.059 -0.09,-0.141 -0.055,-0.199 0.016,-0.032 0.082,0.003 0.098,-0.028 0.035,-0.058 -0.067,-0.129 -0.051,-0.199 0.008,-0.047 0.063,-0.078 0.07,-0.125 0.016,-0.066 -0.066,-0.129 -0.05,-0.199 0.007,-0.047 0.062,-0.078 0.07,-0.125 0.015,-0.059 -0.125,-0.363 -0.106,-0.395 0.016,-0.031 0.082,0 0.102,-0.027 0.016,-0.031 -0.02,-0.066 -0.027,-0.102 l -0.133,-0.492 c -0.012,-0.039 -0.11,-0.394 -0.11,-0.398 0.02,-0.032 0.082,0.004 0.102,-0.028 0,-0.004 -0.074,-0.273 -0.082,-0.296 -0.012,-0.043 -0.086,-0.262 -0.078,-0.297 0.008,-0.047 0.062,-0.078 0.074,-0.125 0.004,-0.032 -0.144,-0.528 -0.16,-0.598 -0.012,-0.031 -0.047,-0.07 -0.027,-0.098 0.015,-0.031 0.082,0.004 0.097,-0.027 0.004,-0.004 -0.074,-0.273 -0.078,-0.297 -0.07,-0.266 -0.023,0.043 0.07,-0.125 0.016,-0.027 -0.086,-0.254 -0.078,-0.297 0.008,-0.051 0.063,-0.082 0.075,-0.129 0.003,-0.031 -0.047,-0.066 -0.028,-0.097 0.016,-0.032 0.082,0.004 0.098,-0.028 0.035,-0.058 -0.086,-0.136 -0.051,-0.199 0.016,-0.027 0.082,0.004 0.098,-0.023 0.035,-0.067 -0.117,-0.239 -0.078,-0.301 0.015,-0.027 0.066,-0.016 0.097,-0.024 0.035,-0.011 0.082,0 0.098,-0.027 0.019,-0.031 -0.016,-0.066 -0.024,-0.101 -0.035,-0.129 -0.074,-0.262 -0.109,-0.395 z"
         id="path202"
         inkscape:connector-curvature="0" /></clipPath><clipPath
       clipPathUnits="userSpaceOnUse"
       id="clipPath214"><path
         d="m 352,39 h 10 v 11 h -10 z"
         id="path212"
         inkscape:connector-curvature="0" /></clipPath></defs><sodipodi:namedview
     pagecolor="#ffffff"
     bordercolor="#666666"
     borderopacity="1"
     objecttolerance="10"
     gridtolerance="10"
     guidetolerance="10"
     inkscape:pageopacity="0"
     inkscape:pageshadow="2"
     inkscape:window-width="2495"
     inkscape:window-height="1416"
     id="namedview4"
     showgrid="false"
     inkscape:zoom="1.4681865"
     inkscape:cx="371.09802"
     inkscape:cy="131.26538"
     inkscape:window-x="65"
     inkscape:window-y="24"
     inkscape:window-maximized="1"
     inkscape:current-layer="g12" /><g
     id="g10"
     inkscape:groupmode="layer"
     inkscape:label="epipolar_geom"
     transform="matrix(1.3333333,0,0,-1.3333333,0,296.18803)"><g
       id="g12"><path
         d="m 17.891,183.969 v -62.191 l 84.636,-84.492 v 62.781 z"
         style="fill:#0000ff;fill-opacity:0.07843137;fill-rule:nonzero;stroke:none"
         id="path16"
         inkscape:connector-curvature="0" /><g
         id="g18"
         transform="matrix(1,0,0,-1,0,222.14102)"><path
           d="m 17.891,38.172 v 62.191 l 84.636,84.492 v -62.781 z"
           style="fill:none;stroke:#000000;stroke-width:0.80000001;stroke-linecap:butt;stroke-linejoin:miter;stroke-miterlimit:3.79999995;stroke-dasharray:none;stroke-opacity:1"
           id="path20"
           inkscape:connector-curvature="0" /></g><path
         d="M 369.375,162.668 V 100.473 L 284.734,1.086 v 62.782 z"
         style="fill:#0000ff;fill-opacity:0.07843137;fill-rule:nonzero;stroke:none"
         id="path22"
         inkscape:connector-curvature="0" /><g
         id="g24"
         transform="matrix(1,0,0,-1,0,222.14102)"><path
           d="m 369.375,59.473 v 62.195 l -84.641,99.387 v -62.782 z"
           style="fill:none;stroke:#000000;stroke-width:0.80000001;stroke-linecap:butt;stroke-linejoin:miter;stroke-miterlimit:3.79999995;stroke-dasharray:none;stroke-opacity:1"
           id="path26"
           inkscape:connector-curvature="0" /></g><text
         transform="matrix(1,0,0,-1,212.17556,215.24258)"
         style="font-variant:normal;font-weight:normal;font-size:16px;font-family:cmr10;-inkscape-font-specification:Cmr10;writing-mode:lr-tb;fill:#000000;fill-opacity:1;fill-rule:nonzero;stroke:none"
         id="text30"><tspan
           x="0"
           y="0"
           id="tspan28">x</tspan></text>
<g
         id="g32"
         transform="matrix(1,0,0,-1,0,222.14102)"><path
           d="M 29.066,142.074 207.836,16.988"
           style="fill:#000000;fill-opacity:1;fill-rule:nonzero;stroke:#808080;stroke-width:0.80000001;stroke-linecap:butt;stroke-linejoin:miter;stroke-miterlimit:3.79999995;stroke-dasharray:6.4, 6.4;stroke-dashoffset:0;stroke-opacity:1"
           id="path34"
           inkscape:connector-curvature="0" /></g><g
         id="g36"
         transform="matrix(1,0,0,-1,0,222.14102)"><path
           d="M 358.465,179.949 207.836,16.988"
           style="fill:#000000;fill-opacity:1;fill-rule:nonzero;stroke:#808080;stroke-width:0.80000001;stroke-linecap:butt;stroke-linejoin:miter;stroke-miterlimit:3.79999995;stroke-dasharray:6.4, 6.4;stroke-dashoffset:0;stroke-opacity:1"
           id="path38"
           inkscape:connector-curvature="0" /></g><g
         id="g40"
         transform="matrix(1,0,0,-1,0,222.14102)"><path
           d="m 284.734,204.375 84.641,-98.801"
           style="fill:#000000;fill-opacity:1;fill-rule:nonzero;stroke:#ff0000;stroke-width:0.80000001;stroke-linecap:butt;stroke-linejoin:miter;stroke-miterlimit:3.79999995;stroke-dasharray:none;stroke-opacity:1"
           id="path42"
           inkscape:connector-curvature="0" /></g><g
         id="g44"
         transform="matrix(1,0,0,-1,0,222.14102)"><path
           d="m 17.891,77.148 84.636,83.903"
           style="fill:none;stroke:#ff0000;stroke-width:0.80000001;stroke-linecap:butt;stroke-linejoin:miter;stroke-miterlimit:3.79999995;stroke-dasharray:none;stroke-opacity:1"
           id="path46"
           inkscape:connector-curvature="0" /></g><g
         id="g48"
         transform="matrix(1,0,0,-1,0,222.14102)"><path
           d="m 62.84,119.902 c 0,1.157 -0.938,2.09 -2.09,2.09 -1.152,0 -2.086,-0.933 -2.086,-2.09 0,-1.152 0.934,-2.086 2.086,-2.086 1.152,0 2.09,0.934 2.09,2.086 z"
           style="fill:#000000;fill-opacity:1;fill-rule:nonzero;stroke:#000000;stroke-width:0.80000001;stroke-linecap:butt;stroke-linejoin:miter;stroke-miterlimit:3.79999995;stroke-dasharray:none;stroke-opacity:1"
           id="path50"
           inkscape:connector-curvature="0" /></g><g
         id="g52"
         transform="matrix(1,0,0,-1,0,222.14102)"><path
           d="m 333.07,150.219 c 0,1.152 -0.933,2.09 -2.086,2.09 -1.156,0 -2.089,-0.938 -2.089,-2.09 0,-1.153 0.933,-2.09 2.089,-2.09 1.153,0 2.086,0.937 2.086,2.09 z"
           style="fill:#000000;fill-opacity:1;fill-rule:nonzero;stroke:#000000;stroke-width:0.80000001;stroke-linecap:butt;stroke-linejoin:miter;stroke-miterlimit:3.79999995;stroke-dasharray:none;stroke-opacity:1"
           id="path54"
           inkscape:connector-curvature="0" /></g><text
         transform="matrix(1,0,0,-1,322.51931,82.055121)"
         style="font-variant:normal;font-weight:normal;font-size:16px;font-family:cmr10;-inkscape-font-specification:Cmr10;writing-mode:lr-tb;fill:#000000;fill-opacity:1;fill-rule:nonzero;stroke:none"
         id="text72"><tspan
           x="0"
           y="0"
           id="tspan68">u</tspan><tspan
           x="0.54296798"
           y="-0.35234401"
           id="tspan70">~</tspan></text>
<text
         transform="matrix(1,0,0,-1,331.17775,78.381537)"
         style="font-variant:normal;font-weight:normal;font-size:10px;font-family:cmr10;-inkscape-font-specification:Cmr10;writing-mode:lr-tb;fill:#000000;fill-opacity:1;fill-rule:nonzero;stroke:none"
         id="text76"><tspan
           x="0"
           y="0"
           id="tspan74">R</tspan></text>
<text
         transform="matrix(1,0,0,-1,54.659322,111.6001)"
         style="font-variant:normal;font-weight:normal;font-size:16px;font-family:cmr10;-inkscape-font-specification:Cmr10;writing-mode:lr-tb;fill:#000000;fill-opacity:1;fill-rule:nonzero;stroke:none"
         id="text86"><tspan
           x="0"
           y="0"
           id="tspan82">u</tspan><tspan
           x="0.54296798"
           y="-0.35234401"
           id="tspan84">~</tspan></text>
<text
         transform="matrix(1,0,0,-1,63.31777,107.92651)"
         style="font-variant:normal;font-weight:normal;font-size:10px;font-family:cmr10;-inkscape-font-specification:Cmr10;writing-mode:lr-tb;fill:#000000;fill-opacity:1;fill-rule:nonzero;stroke:none"
         id="text90"><tspan
           x="0"
           y="0"
           id="tspan88">L</tspan></text>
</g><g
       id="g96"><g
         id="g98"
         clip-path="url(#clipPath102)"><g
           id="g104"
           clip-path="url(#clipPath108)"><g
             id="g110"
             transform="translate(0,-0.858978)"><g
               id="g112"><g
                 id="g114"
                 clip-path="url(#clipPath118)"><g
                   id="g120"><g
                     id="g122"
                     transform="matrix(1,0.998249,1,-0.998249,0,223)"><path
                       d="m -54.707,77.176 c 0,5.878 -2.327,11.518 -6.473,15.676"
                       style="fill:#ffffff;fill-opacity:1;fill-rule:nonzero;stroke:#000000;stroke-width:1.13236296;stroke-linecap:butt;stroke-linejoin:miter;stroke-miterlimit:4;stroke-dasharray:none;stroke-opacity:1"
                       id="path124"
                       inkscape:connector-curvature="0" /></g></g></g></g></g></g></g></g><g
       id="g126"><g
         id="g128"
         clip-path="url(#clipPath132)"><g
           id="g134"
           clip-path="url(#clipPath138)"><g
             id="g140"
             transform="translate(0,-0.858978)"><g
               id="g142"><g
                 id="g144"
                 clip-path="url(#clipPath148)"><g
                   id="g150"><g
                     id="g152"
                     transform="matrix(1,0.576339,0.57735,-0.998249,0,223)"><path
                       d="m -36.971,119.327 c 0,2.015 -1.277,3.645 -2.855,3.646 -1.579,0 -2.855,-1.633 -2.857,-3.645 10e-4,-2.011 1.28,-3.644 2.858,-3.645 1.574,10e-4 2.854,1.633 2.854,3.644 z"
                       style="fill:#000000;fill-opacity:1;fill-rule:nonzero;stroke:#000000;stroke-width:1.38685501;stroke-linecap:butt;stroke-linejoin:miter;stroke-miterlimit:4;stroke-dasharray:none;stroke-opacity:1"
                       id="path154"
                       inkscape:connector-curvature="0" /></g></g></g></g></g></g></g></g><g
       id="g156"><g
         id="g158"
         transform="matrix(1,0.998249,1,-0.998249,0,222.14102)"><path
           d="m -56.949,97.231 c -2.206,-5.599 -14.062,-17.849 -19.916,-20.03 5.823,2.146 22.292,2.364 28.167,0.001"
           style="fill:none;stroke:#000000;stroke-width:1.13236296;stroke-linecap:butt;stroke-linejoin:miter;stroke-miterlimit:4;stroke-dasharray:none;stroke-opacity:1"
           id="path160"
           inkscape:connector-curvature="0" /></g></g><g
       id="g162"><g
         id="g164"
         clip-path="url(#clipPath168)"><g
           id="g170"
           clip-path="url(#clipPath174)"><g
             id="g176"
             transform="translate(0,-0.858978)"><g
               id="g178"><g
                 id="g180"
                 clip-path="url(#clipPath184)"><g
                   id="g186"><g
                     id="g188"
                     transform="matrix(-1,0.26748,0.267949,0.998249,0,223)"><path
                       d="m -375.331,-89.462 c 0,8.033 -3.182,15.734 -8.84,21.413"
                       style="fill:#ffffff;fill-opacity:1;fill-rule:nonzero;stroke:#000000;stroke-width:1.54683602;stroke-linecap:butt;stroke-linejoin:miter;stroke-miterlimit:4;stroke-dasharray:none;stroke-opacity:1"
                       id="path190"
                       inkscape:connector-curvature="0" /></g></g></g></g></g></g></g></g><g
       id="g192"><g
         id="g194"
         clip-path="url(#clipPath198)"><g
           id="g200"
           clip-path="url(#clipPath204)"><g
             id="g206"
             transform="translate(0,-0.858978)"><g
               id="g208"><g
                 id="g210"
                 clip-path="url(#clipPath214)"><g
                   id="g216"><g
                     id="g218"
                     transform="matrix(-1,0.576339,0.57735,0.998249,0,223)"><path
                       d="m -342.522,20.307 c 10e-4,2.011 -1.278,3.646 -2.856,3.645 -1.576,-0.002 -2.853,-1.632 -2.853,-3.643 0,-2.015 1.278,-3.645 2.856,-3.645 1.574,0 2.853,1.633 2.853,3.643 z"
                       style="fill:#000000;fill-opacity:1;fill-rule:nonzero;stroke:#000000;stroke-width:1.38685501;stroke-linecap:butt;stroke-linejoin:miter;stroke-miterlimit:4;stroke-dasharray:none;stroke-opacity:1"
                       id="path220"
                       inkscape:connector-curvature="0" /></g></g></g></g></g></g></g></g><g
       id="g222"><g
         id="g224"
         transform="matrix(-1,0.26748,0.267949,0.998249,0,222.14102)"><path
           d="m -378.395,-62.063 c -3.015,-7.649 -19.206,-24.383 -27.207,-27.361 7.958,2.931 30.455,3.227 38.477,0.001"
           style="fill:none;stroke:#000000;stroke-width:1.54683602;stroke-linecap:butt;stroke-linejoin:miter;stroke-miterlimit:4;stroke-dasharray:none;stroke-opacity:1"
           id="path226"
           inkscape:connector-curvature="0" /></g><g
         id="g228"
         transform="matrix(1,0,0,-1,0,222.14102)"><path
           d="m 209.926,16.988 c 0,1.153 -0.938,2.086 -2.09,2.086 -1.152,0 -2.09,-0.933 -2.09,-2.086 0,-1.156 0.938,-2.09 2.09,-2.09 1.152,0 2.09,0.934 2.09,2.09 z"
           style="fill:#000000;fill-opacity:1;fill-rule:nonzero;stroke:#000000;stroke-width:0.80000001;stroke-linecap:butt;stroke-linejoin:miter;stroke-miterlimit:3.79999995;stroke-dasharray:none;stroke-opacity:1"
           id="path230"
           inkscape:connector-curvature="0" /></g></g></g></svg>