<?xml version="1.0" encoding="UTF-8" standalone="no"?>
<!DOCTYPE svg PUBLIC "-//W3C//DTD SVG 1.1//EN"
"http://www.w3.org/Graphics/SVG/1.1/DTD/svg11.dtd">


<!-- Page 1 -->
<svg x="0" y="0" width="1298" height="281" viewBox="0 0 1298 281" version="1.1" xmlns="http://www.w3.org/2000/svg" xmlns:xlink="http://www.w3.org/1999/xlink"
style="display: block;margin-left: auto;margin-right: auto;">
<defs>
<clipPath id="c_1"><path d="M0,0H1298V281H0Z"/></clipPath>
<clipPath id="c0"><path d="M2.4,265.4V12.5H603.1V265.4Z"/></clipPath>
<clipPath id="c1"><path d="M603.1,276.9V0h682.4V276.9Z"/></clipPath>
<clipPath id="c2"><path d="M0,281.1V0H1298.6V281.1Z"/></clipPath>

<style type="text/css"><![CDATA[
text { white-space: pre; }
path, image { pointer-events: none; }
text::-moz-selection {
	color: transparent;
	background: rgba(0, 106, 173, 0.4);
}
text::selection {
	color: transparent;
	background: rgba(0, 106, 173, 0.4);
}

.s1{
font-size: 22.11px;
font-family: font0000000024878527_p;
fill: TRANSPARENT;
}
.s2{
font-size: 23.44px;
font-family: font000000002487847e_k;
fill: TRANSPARENT;
}

.g0{
fill: #FFFFFF;
}
.g1{
fill: #FF0000;
}
.g2{
fill: none;
stroke: #000000;
stroke-width: 1.721;
stroke-linecap: butt;
stroke-linejoin: miter;
stroke-miterlimit: 4;
}
.g3{
stroke: #000000;
stroke-width: 0.645;
stroke-linecap: butt;
stroke-linejoin: round;
stroke-miterlimit: 4;
}
.g4{
stroke: #000000;
stroke-width: 0.646;
stroke-linecap: butt;
stroke-linejoin: round;
stroke-miterlimit: 4;
}
.g5{
stroke: #000000;
stroke-width: 0.456;
stroke-linecap: butt;
stroke-linejoin: round;
stroke-miterlimit: 4;
}
.g6{
}
.g7{
fill: none;
stroke: #DCDCDC;
stroke-width: 1.033;
stroke-linecap: butt;
stroke-linejoin: miter;
stroke-miterlimit: 4;
}
.g8{
fill: #DCDCDC;
}
.g9{
fill: none;
stroke: #FF0000;
stroke-width: 1.549;
stroke-linecap: square;
stroke-linejoin: bevel;
stroke-miterlimit: 4;
stroke-dasharray: 2,4;
}
.ga{
fill: none;
stroke: #FF0000;
stroke-width: 1.205;
stroke-linecap: butt;
stroke-linejoin: miter;
stroke-miterlimit: 4;
}
.gb{
fill: #F90000;
}
.gc{
fill: #F0F0F0;
}
.gd{
fill: #F5F5F5;
}
.ge{
fill: #FAFAFA;
}
.gf{
fill: none;
stroke: #000000;
stroke-width: 1.825;
stroke-linecap: butt;
stroke-linejoin: miter;
stroke-miterlimit: 4;
}
.gg{
stroke: #000000;
stroke-width: 0.684;
stroke-linecap: butt;
stroke-linejoin: round;
stroke-miterlimit: 4;
}
.gh{
stroke: #000000;
stroke-width: 0.685;
stroke-linecap: butt;
stroke-linejoin: round;
stroke-miterlimit: 4;
}
.gi{
stroke: #000000;
stroke-width: 0.484;
stroke-linecap: butt;
stroke-linejoin: round;
stroke-miterlimit: 4;
}
.gj{
fill: none;
stroke: #969696;
stroke-width: 1.095;
stroke-linecap: butt;
stroke-linejoin: miter;
stroke-miterlimit: 4;
}
.gk{
fill: #E60000;
}
.gl{
fill: #969696;
}
.gm{
fill: none;
stroke: #000000;
stroke-width: 3.651;
stroke-linecap: butt;
stroke-linejoin: miter;
stroke-miterlimit: 4;
}
.gn{
fill: none;
stroke: #000000;
stroke-width: 6.911;
stroke-linecap: square;
stroke-linejoin: miter;
stroke-miterlimit: 4;
}
.go{
fill: #FFFFFC;
}
.gp{
fill: none;
stroke: #000000;
stroke-width: 1.46;
stroke-linecap: square;
stroke-linejoin: miter;
stroke-miterlimit: 4;
}
.gq{
fill: #FFFFFF;
fill-opacity: 0.7489;
}
.gr{
fill: none;
stroke: #F90000;
stroke-width: 3.651;
stroke-linecap: butt;
stroke-linejoin: miter;
stroke-miterlimit: 4;
}
.gs{
fill: #F90000;
stroke: #F90000;
stroke-width: 1.369;
stroke-linecap: butt;
stroke-linejoin: round;
stroke-miterlimit: 4;
}
.gt{
fill: #F90000;
stroke: #F90000;
stroke-width: 1.37;
stroke-linecap: butt;
stroke-linejoin: round;
stroke-miterlimit: 4;
}
.gu{
fill: none;
stroke: #E60000;
stroke-width: 1.825;
stroke-linecap: butt;
stroke-linejoin: miter;
stroke-miterlimit: 4;
}

]]></style>

<path d="M557,522c0,0,238,0,238,211c0,0,0,204,-244,204H268V522ZM125,0V1051H568c0,0,176,0,273,-83c0,0,97,-83,97,-233c0,0,0,-149,-97,-237c0,0,-97,-89,-264,-89H268V0Z"
id="f0_2"
transform="scale(0.001,-0.001)"/>

<path d="M420,85c0,0,121,0,173,77c0,0,52,78,52,243c0,0,0,167,-50,242c0,0,-50,76,-167,76c0,0,-118,0,-170,-77c0,0,-53,-77,-53,-241c0,0,0,-160,52,-240c0,0,52,-80,163,-80Zm1,-99c0,0,-176,0,-267,107c0,0,-90,108,-90,312c0,0,0,417,362,417c0,0,185,0,272,-102c0,0,88,-101,88,-315c0,0,0,-212,-94,-316C692,89,599,-14,421,-14Z"
id="f0_3"
transform="scale(0.001,-0.001)"/>

<path d="M102,0V808H236V0Zm0,979v128H236V979Z"
id="f0_4"
transform="scale(0.001,-0.001)"/>

<path d="M106,0V635c0,0,0,141,-5,173H228c0,0,1,-4,2,-21c0,0,1,-16,2,-37c0,0,1,-22,2,-81h2c0,0,47,84,108,119c0,0,60,34,151,34c0,0,132,0,194,-66c0,0,61,-66,61,-218V0H615V512c0,0,0,80,-15,124c0,0,-16,44,-50,63c0,0,-35,20,-101,20c0,0,-97,0,-153,-67c0,0,-56,-66,-56,-184V0Z"
id="f0_5"
transform="scale(0.001,-0.001)"/>

<path d="M278,-11c0,0,-162,0,-162,182V710H23v98h99l39,181h90V808H400V710H251V200c0,0,0,-58,19,-82c0,0,19,-23,66,-23c0,0,27,0,77,10V6c0,0,-66,-17,-135,-17Z"
id="f0_6"
transform="scale(0.001,-0.001)"/>

<path d="M125,0V1051H291L859,150c0,0,-9,146,-9,212v689H979V0H807L245,895l3,-72l4,-125V0Z"
id="f0_7"
transform="scale(0.001,-0.001)"/>

<path d="M643,478c0,0,-11,128,-65,186c0,0,-54,59,-154,59c0,0,-98,0,-155,-65c0,0,-57,-66,-62,-180ZM431,-14c0,0,-179,0,-272,106c0,0,-94,107,-94,317c0,0,0,200,94,307c0,0,93,106,267,106c0,0,356,0,356,-429V375H206c0,0,0,-138,57,-214c0,0,58,-75,168,-75c0,0,87,0,140,35c0,0,53,35,71,89L760,177c0,0,-72,-191,-329,-191Z"
id="f0_8"
transform="scale(0.001,-0.001)"/>

<path d="M125,0V1051H923V935H268V597H878V483H268V116H953V0Z"
id="f0_9"
transform="scale(0.001,-0.001)"/>

<path d="M413,-14c0,0,-170,0,-259,106c0,0,-89,107,-89,313c0,0,0,203,89,310c0,0,90,107,257,107c0,0,124,0,206,-64c0,0,81,-64,102,-177L581,571c0,0,-10,67,-53,107c0,0,-42,39,-121,39c0,0,-106,0,-154,-71c0,0,-48,-71,-48,-238c0,0,0,-162,51,-239c0,0,51,-78,153,-78c0,0,71,0,120,39c0,0,48,39,59,119l136,-9C724,240,708,124,624,55c0,0,-83,-69,-211,-69Z"
id="f0_a"
transform="scale(0.001,-0.001)"/>

<path d="M395,89c0,0,115,0,166,79c0,0,51,79,51,246c0,0,0,160,-51,234c0,0,-51,75,-164,75c0,0,-102,0,-147,-75c0,0,-45,-75,-45,-243c0,0,0,-170,45,-243c0,0,45,-73,145,-73ZM361,-14c0,0,-153,0,-225,102c0,0,-72,103,-72,312c0,0,0,422,297,422c0,0,92,0,153,-33c0,0,61,-34,98,-107h2l-2,90v335H747V166c0,0,0,-126,4,-166H623c0,0,-2,12,-5,55c0,0,-3,44,-3,75h-3c0,0,-37,-78,-98,-111c0,0,-62,-33,-153,-33Z"
id="f0_b"
transform="scale(0.001,-0.001)"/>

<path d="M106,0V620c0,0,0,85,-5,188H228c0,0,6,-138,6,-165h3c0,0,32,103,74,141c0,0,42,38,118,38c0,0,27,0,54,-7V692c0,0,-26,7,-71,7c0,0,-84,0,-128,-72c0,0,-44,-72,-44,-206V0Z"
id="f0_c"
transform="scale(0.001,-0.001)"/>

<path d="M426,-14c0,0,-160,0,-255,71c0,0,-95,72,-113,213l139,13c0,0,27,-187,229,-187c0,0,101,0,159,50c0,0,58,51,58,149c0,0,0,86,-66,134c0,0,-66,48,-191,48H310V594h73c0,0,111,0,172,48c0,0,60,48,60,133c0,0,0,84,-49,133c0,0,-50,48,-147,48c0,0,-89,0,-144,-45c0,0,-55,-46,-64,-128L76,793c0,0,15,129,107,201c0,0,92,73,237,73c0,0,158,0,246,-74c0,0,87,-73,87,-204c0,0,0,-101,-56,-164c0,0,-56,-63,-164,-85v-3c0,0,118,-13,184,-79c0,0,66,-67,66,-167c0,0,0,-146,-93,-226c0,0,-92,-79,-264,-79Z"
id="f0_d"
transform="scale(0.001,-0.001)"/>

<path d="M502,114c0,0,116,0,203,51c0,0,88,51,135,146c0,0,47,96,47,225c0,0,0,196,-107,298c0,0,-107,103,-310,103H268V114ZM125,0V1051H473c0,0,267,0,412,-134c0,0,145,-134,145,-381c0,0,0,-162,-63,-284C967,252,903,130,787,65C787,65,671,0,518,0Z"
id="f0_e"
transform="scale(0.001,-0.001)"/>

<path d="M125,0V1051H872V935H268V544H854V426H268V0Z"
id="f0_g"
transform="scale(0.001,-0.001)"/>

<path d="M339,86c0,0,74,0,132,34c0,0,57,33,90,92c0,0,34,58,34,120v67L448,396c0,0,-95,-2,-144,-20c0,0,-49,-18,-75,-55c0,0,-26,-37,-26,-98c0,0,0,-65,35,-101c0,0,36,-36,101,-36ZM309,-14c0,0,-122,0,-183,64c0,0,-61,64,-61,176c0,0,0,125,82,192c0,0,83,67,266,72l182,3v44c0,0,0,98,-42,141c0,0,-42,42,-132,42c0,0,-90,0,-131,-31c0,0,-41,-30,-49,-97L101,604c0,0,34,218,323,218c0,0,153,0,229,-69c0,0,77,-70,77,-202V203c0,0,0,-60,16,-90c0,0,16,-31,60,-31c0,0,19,0,44,6V4C850,4,799,-7,746,-7c0,0,-75,0,-109,38c0,0,-33,40,-38,124h-4C595,155,543,62,475,24c0,0,-68,-38,-166,-38Z"
id="f0_h"
transform="scale(0.001,-0.001)"/>

<path d="M355,-14c0,0,-133,0,-194,65c0,0,-62,66,-62,219V808H234V296c0,0,0,-80,16,-124c0,0,16,-44,50,-64c0,0,34,-19,101,-19c0,0,97,0,153,66c0,0,55,67,55,185V808H744V172c0,0,0,-141,4,-172H621c0,0,0,4,-1,20c0,0,-1,17,-2,38c0,0,-1,21,-3,80h-2C613,138,567,55,506,20c0,0,-61,-34,-151,-34Z"
id="f0_i"
transform="scale(0.001,-0.001)"/>

<path d="M436,0L7,1051H157L448,311L510,125l63,186l289,740h150L583,0Z"
id="f0_j"
transform="scale(0.001,-0.001)"/>

<path d="M103,0V1107H237V0Z"
id="f0_k"
transform="scale(0.001,-0.001)"/>

<path d="M106,0V635c0,0,0,141,-5,173H228c0,0,1,-4,2,-21c0,0,1,-16,2,-37c0,0,1,-22,2,-81h2c0,0,44,86,100,120c0,0,56,33,136,33c0,0,92,0,145,-36c0,0,54,-37,75,-117h2c0,0,42,82,101,117c0,0,59,36,143,36c0,0,123,0,178,-66c0,0,56,-67,56,-218V0H1039V512c0,0,0,117,-32,162c0,0,-32,45,-116,45c0,0,-88,0,-136,-66c0,0,-49,-65,-49,-185V0H573V512c0,0,0,117,-32,162c0,0,-32,45,-116,45c0,0,-86,0,-136,-66c0,0,-50,-66,-50,-185V0Z"
id="f0_l"
transform="scale(0.001,-0.001)"/>

<path d="M141,0V1051H283V0Z"
id="f0_m"
transform="scale(0.001,-0.001)"/>

<path d="M453,85c0,0,100,0,146,73c0,0,46,74,46,247c0,0,0,169,-46,241c0,0,-45,73,-145,73c0,0,-80,0,-125,-34c0,0,-45,-34,-68,-105c0,0,-24,-71,-24,-186c0,0,0,-159,51,-234c0,0,51,-75,165,-75ZM103,-316V643c0,0,0,124,-5,165H228c0,0,1,-3,3,-22c0,0,1,-18,3,-56c0,0,2,-38,2,-52h3c0,0,36,75,94,110c0,0,59,34,156,34c0,0,149,0,223,-100c0,0,74,-100,74,-314c0,0,0,-422,-297,-422c0,0,-187,0,-251,140h-4c0,0,3,-6,3,-126V-316Z"
id="f0_n"
transform="scale(0.001,-0.001)"/>

<path d="M593,101c0,0,182,0,279,112c0,0,98,112,98,318c0,0,0,196,-98,308c0,0,-98,111,-277,111c0,0,-181,0,-279,-110c0,0,-99,-110,-99,-309c0,0,0,-198,100,-314c0,0,99,-116,276,-116Zm0,-115c0,0,-162,0,-279,65c0,0,-118,66,-180,190c0,0,-62,124,-62,290c0,0,0,252,138,394c0,0,138,142,385,142c0,0,160,0,278,-64c0,0,118,-64,180,-185c0,0,62,-122,62,-287c0,0,0,-165,-63,-289c0,0,-63,-124,-181,-190c0,0,-118,-66,-278,-66Z"
id="f1_2"
transform="scale(0.001,-0.001)"/>

<path d="M413,-14c0,0,-170,0,-259,106c0,0,-89,107,-89,313c0,0,0,203,89,310c0,0,90,107,257,107c0,0,124,0,206,-64c0,0,81,-64,102,-177L581,571c0,0,-10,67,-53,107c0,0,-42,39,-121,39c0,0,-106,0,-154,-71c0,0,-48,-71,-48,-238c0,0,0,-162,51,-239c0,0,51,-78,153,-78c0,0,71,0,120,39c0,0,48,39,59,119l136,-9C724,240,708,124,624,55c0,0,-83,-69,-211,-69Z"
id="f1_3"
transform="scale(0.001,-0.001)"/>

<path d="M355,-14c0,0,-133,0,-194,65c0,0,-62,66,-62,219V808H234V296c0,0,0,-80,16,-124c0,0,16,-44,50,-64c0,0,34,-19,101,-19c0,0,97,0,153,66c0,0,55,67,55,185V808H744V172c0,0,0,-141,4,-172H621c0,0,0,4,-1,20c0,0,-1,17,-2,38c0,0,-1,21,-3,80h-2C613,138,567,55,506,20c0,0,-61,-34,-151,-34Z"
id="f1_4"
transform="scale(0.001,-0.001)"/>

<path d="M453,85c0,0,100,0,146,73c0,0,46,74,46,247c0,0,0,169,-46,241c0,0,-45,73,-145,73c0,0,-80,0,-125,-34c0,0,-45,-34,-68,-105c0,0,-24,-71,-24,-186c0,0,0,-159,51,-234c0,0,51,-75,165,-75ZM103,-316V643c0,0,0,124,-5,165H228c0,0,1,-3,3,-22c0,0,1,-18,3,-56c0,0,2,-38,2,-52h3c0,0,36,75,94,110c0,0,59,34,156,34c0,0,149,0,223,-100c0,0,74,-100,74,-314c0,0,0,-422,-297,-422c0,0,-187,0,-251,140h-4c0,0,3,-6,3,-126V-316Z"
id="f1_5"
transform="scale(0.001,-0.001)"/>

<path d="M339,86c0,0,74,0,132,34c0,0,57,33,90,92c0,0,34,58,34,120v67L448,396c0,0,-95,-2,-144,-20c0,0,-49,-18,-75,-55c0,0,-26,-37,-26,-98c0,0,0,-65,35,-101c0,0,36,-36,101,-36ZM309,-14c0,0,-122,0,-183,64c0,0,-61,64,-61,176c0,0,0,125,82,192c0,0,83,67,266,72l182,3v44c0,0,0,98,-42,141c0,0,-42,42,-132,42c0,0,-90,0,-131,-31c0,0,-41,-30,-49,-97L101,604c0,0,34,218,323,218c0,0,153,0,229,-69c0,0,77,-70,77,-202V203c0,0,0,-60,16,-90c0,0,16,-31,60,-31c0,0,19,0,44,6V4C850,4,799,-7,746,-7c0,0,-75,0,-109,38c0,0,-33,40,-38,124h-4C595,155,543,62,475,24c0,0,-68,-38,-166,-38Z"
id="f1_6"
transform="scale(0.001,-0.001)"/>

<path d="M106,0V635c0,0,0,141,-5,173H228c0,0,1,-4,2,-21c0,0,1,-16,2,-37c0,0,1,-22,2,-81h2c0,0,47,84,108,119c0,0,60,34,151,34c0,0,132,0,194,-66c0,0,61,-66,61,-218V0H615V512c0,0,0,80,-15,124c0,0,-16,44,-50,63c0,0,-35,20,-101,20c0,0,-97,0,-153,-67c0,0,-56,-66,-56,-184V0Z"
id="f1_7"
transform="scale(0.001,-0.001)"/>

<path d="M142,-316c0,0,-55,0,-92,8v101c0,0,28,-4,63,-4c0,0,125,0,198,184L324,4L4,808H147L317,362c0,0,4,-11,9,-25c0,0,5,-15,34,-98c0,0,28,-83,30,-92l52,147L619,808H761L451,0c0,0,-50,-128,-94,-191c0,0,-43,-63,-96,-94c0,0,-52,-31,-119,-31Z"
id="f1_8"
transform="scale(0.001,-0.001)"/>

<path d="M557,522c0,0,238,0,238,211c0,0,0,204,-244,204H268V522ZM125,0V1051H568c0,0,176,0,273,-83c0,0,97,-83,97,-233c0,0,0,-149,-97,-237c0,0,-97,-89,-264,-89H268V0Z"
id="f1_9"
transform="scale(0.001,-0.001)"/>

<path d="M106,0V620c0,0,0,85,-5,188H228c0,0,6,-138,6,-165h3c0,0,32,103,74,141c0,0,42,38,118,38c0,0,27,0,54,-7V692c0,0,-26,7,-71,7c0,0,-84,0,-128,-72c0,0,-44,-72,-44,-206V0Z"
id="f1_a"
transform="scale(0.001,-0.001)"/>

<path d="M420,85c0,0,121,0,173,77c0,0,52,78,52,243c0,0,0,167,-50,242c0,0,-50,76,-167,76c0,0,-118,0,-170,-77c0,0,-53,-77,-53,-241c0,0,0,-160,52,-240c0,0,52,-80,163,-80Zm1,-99c0,0,-176,0,-267,107c0,0,-90,108,-90,312c0,0,0,417,362,417c0,0,185,0,272,-102c0,0,88,-101,88,-315c0,0,0,-212,-94,-316C692,89,599,-14,421,-14Z"
id="f1_b"
transform="scale(0.001,-0.001)"/>

<path d="M453,85c0,0,101,0,146,75c0,0,46,74,46,243c0,0,0,169,-45,243c0,0,-45,73,-146,73c0,0,-113,0,-165,-78c0,0,-52,-78,-52,-246c0,0,0,-159,51,-235c0,0,51,-75,165,-75Zm36,-99c0,0,-92,0,-153,33c0,0,-61,33,-99,107h-1c0,0,0,-24,-3,-71c0,0,-3,-48,-5,-55H98c0,0,5,40,5,166v941H237V792c0,0,0,-49,-3,-114h3c0,0,38,77,99,111c0,0,62,33,153,33c0,0,153,0,225,-103c0,0,72,-103,72,-311c0,0,0,-422,-297,-422Z"
id="f1_c"
transform="scale(0.001,-0.001)"/>

<path d="M102,0V808H236V0Zm0,979v128H236V979Z"
id="f1_d"
transform="scale(0.001,-0.001)"/>

<path d="M103,0V1107H237V0Z"
id="f1_e"
transform="scale(0.001,-0.001)"/>

<path d="M278,-11c0,0,-162,0,-162,182V710H23v98h99l39,181h90V808H400V710H251V200c0,0,0,-58,19,-82c0,0,19,-23,66,-23c0,0,27,0,77,10V6c0,0,-66,-17,-135,-17Z"
id="f1_f"
transform="scale(0.001,-0.001)"/>

<path d="M426,-14c0,0,-160,0,-255,71c0,0,-95,72,-113,213l139,13c0,0,27,-187,229,-187c0,0,101,0,159,50c0,0,58,51,58,149c0,0,0,86,-66,134c0,0,-66,48,-191,48H310V594h73c0,0,111,0,172,48c0,0,60,48,60,133c0,0,0,84,-49,133c0,0,-50,48,-147,48c0,0,-89,0,-144,-45c0,0,-55,-46,-64,-128L76,793c0,0,15,129,107,201c0,0,92,73,237,73c0,0,158,0,246,-74c0,0,87,-73,87,-204c0,0,0,-101,-56,-164c0,0,-56,-63,-164,-85v-3c0,0,118,-13,184,-79c0,0,66,-67,66,-167c0,0,0,-146,-93,-226c0,0,-92,-79,-264,-79Z"
id="f1_g"
transform="scale(0.001,-0.001)"/>

<path d="M502,114c0,0,116,0,203,51c0,0,88,51,135,146c0,0,47,96,47,225c0,0,0,196,-107,298c0,0,-107,103,-310,103H268V114ZM125,0V1051H473c0,0,267,0,412,-134c0,0,145,-134,145,-381c0,0,0,-162,-63,-284C967,252,903,130,787,65C787,65,671,0,518,0Z"
id="f1_h"
transform="scale(0.001,-0.001)"/>

<path d="M545,-14c0,0,-129,0,-225,46c0,0,-96,47,-149,137c0,0,-53,89,-53,213v669H260V394c0,0,0,-144,73,-218c0,0,74,-75,212,-75c0,0,141,0,220,77c0,0,79,77,79,226v647H985V396c0,0,0,-128,-54,-220C931,176,877,83,778,34c0,0,-98,-48,-233,-48Z"
id="f1_j"
transform="scale(0.001,-0.001)"/>

<path d="M68,346V465H441V346Z"
id="f1_k"
transform="scale(0.001,-0.001)"/>

<path d="M125,0V1051H291L859,150c0,0,-9,146,-9,212v689H979V0H807L245,895l3,-72l4,-125V0Z"
id="f1_l"
transform="scale(0.001,-0.001)"/>

<path d="M643,478c0,0,-11,128,-65,186c0,0,-54,59,-154,59c0,0,-98,0,-155,-65c0,0,-57,-66,-62,-180ZM431,-14c0,0,-179,0,-272,106c0,0,-94,107,-94,317c0,0,0,200,94,307c0,0,93,106,267,106c0,0,356,0,356,-429V375H206c0,0,0,-138,57,-214c0,0,58,-75,168,-75c0,0,87,0,140,35c0,0,53,35,71,89L760,177c0,0,-72,-191,-329,-191Z"
id="f1_m"
transform="scale(0.001,-0.001)"/>

<path d="M224,0L-1,808H131L267,259c0,0,5,-18,32,-147l13,55L480,808H624L765,253L800,112l23,103L976,808h131L876,0H720L579,571L552,697c0,0,-7,-33,-21,-96C531,601,517,537,379,0Z"
id="f1_n"
transform="scale(0.001,-0.001)"/>

<path d="M103,0V1107H237V416L592,808H749L421,461L766,0H609L336,369L237,287V0Z"
id="f1_o"
transform="scale(0.001,-0.001)"/>

<path d="M125,0V1051H872V935H268V544H854V426H268V0Z"
id="f1_p"
transform="scale(0.001,-0.001)"/>

<path d="M381,-14c0,0,-150,0,-232,49C149,35,67,85,43,190l118,23c0,0,17,-65,71,-95c0,0,54,-30,149,-30c0,0,102,0,150,31c0,0,47,31,47,94c0,0,0,47,-33,77c0,0,-33,30,-106,49l-96,26c0,0,-115,30,-164,58c0,0,-49,29,-77,70c0,0,-27,41,-27,101c0,0,0,110,78,168c0,0,79,57,230,57c0,0,133,0,212,-47c0,0,79,-47,100,-150L574,607c0,0,-12,53,-60,82c0,0,-49,29,-131,29c0,0,-91,0,-135,-28c0,0,-43,-27,-43,-83c0,0,0,-34,18,-57c0,0,18,-22,53,-38c0,0,35,-15,148,-43c0,0,106,-27,153,-50c0,0,47,-22,75,-50c0,0,27,-27,42,-64c0,0,15,-36,15,-82c0,0,0,-114,-86,-176c0,0,-87,-61,-242,-61Z"
id="f1_q"
transform="scale(0.001,-0.001)"/>

<path d="M125,0V1051H268V116H799V0Z"
id="f1_r"
transform="scale(0.001,-0.001)"/>

<path d="M395,0V935H34v116H898V935H537V0Z"
id="f1_s"
transform="scale(0.001,-0.001)"/>

<path d="M141,0V1051H283V0Z"
id="f1_t"
transform="scale(0.001,-0.001)"/>

<path d="M436,0L7,1051H157L448,311L510,125l63,186l289,740h150L583,0Z"
id="f1_u"
transform="scale(0.001,-0.001)"/>

<path d="M106,0V635c0,0,0,141,-5,173H228c0,0,1,-4,2,-21c0,0,1,-16,2,-37c0,0,1,-22,2,-81h2c0,0,44,86,100,120c0,0,56,33,136,33c0,0,92,0,145,-36c0,0,54,-37,75,-117h2c0,0,42,82,101,117c0,0,59,36,143,36c0,0,123,0,178,-66c0,0,56,-67,56,-218V0H1039V512c0,0,0,117,-32,162c0,0,-32,45,-116,45c0,0,-88,0,-136,-66c0,0,-49,-65,-49,-185V0H573V512c0,0,0,117,-32,162c0,0,-32,45,-116,45c0,0,-86,0,-136,-66c0,0,-50,-66,-50,-185V0Z"
id="f1_v"
transform="scale(0.001,-0.001)"/>


</defs>
<path d="M0,0
L0,281
L1298,281
L1298,0 Z " 
fill="#FFFFFF" stroke="none"/>
<g clip-path="url(#c_1)">
<path clip-path="url(#c2)" d="M0,0H1299.2V281.5H0Z" class="g0"/>
<path d="M336.4,63.5V207.2L391,131.9Z" class="g1"/>
<path d="M265.9,100.9H367.1v65.5H265.9Z" class="g1"/>
<g fill="#FFFFFF"  clip-path="url(#c0)">
<use xlink:href="#f0_2" transform="matrix(14.5,0,0,14.5,275,127.5)"/>
<use xlink:href="#f0_3" transform="matrix(14.5,0,0,14.5,289.7,127.5)"/>
<use xlink:href="#f0_4" transform="matrix(14.5,0,0,14.5,302,127.5)"/>
<use xlink:href="#f0_5" transform="matrix(14.5,0,0,14.5,306.9,127.5)"/>
<use xlink:href="#f0_6" transform="matrix(14.5,0,0,14.5,319.2,127.5)"/>
<use xlink:href="#f0_7" transform="matrix(14.5,0,0,14.5,325.3,127.5)"/>
<use xlink:href="#f0_8" transform="matrix(14.5,0,0,14.5,341.3,127.5)"/>
<use xlink:href="#f0_6" transform="matrix(14.5,0,0,14.5,353.6,127.5)"/>
<use xlink:href="#f0_9" transform="matrix(14.5,0,0,14.5,276.2,155.1)"/>
</g>
<text clip-path="url(#c0)" x="275" y="127" dx="0,0,0,0,0,0,0,.1" class="s1">PointNet</text>
<g fill="#FFFFFF"  clip-path="url(#c0)">
<use xlink:href="#f0_5" transform="matrix(14.5,0,0,14.5,290.9,155.1)"/>
<use xlink:href="#f0_a" transform="matrix(14.5,0,0,14.5,303.2,155.1)"/>
<use xlink:href="#f0_3" transform="matrix(14.5,0,0,14.5,314.3,155.1)"/>
<use xlink:href="#f0_b" transform="matrix(14.5,0,0,14.5,326.6,155.1)"/>
<use xlink:href="#f0_8" transform="matrix(14.5,0,0,14.5,338.8,155.1)"/>
<use xlink:href="#f0_c" transform="matrix(14.5,0,0,14.5,351.2,155.1)"/>
</g>
<text clip-path="url(#c0)" x="276" y="155" dx="0,0,0,0,0,0,.1" class="s1">Encoder</text>
<path d="M98.9,188.4H272" class="g2"/>
<path fill-rule="evenodd" d="M263,184.2l11.3,4.2L263,192.5c1.8,-2.4,1.8,-5.8,0,-8.3Z" class="g3"/>
<path d="M98.9,188.4V15.1" class="g2"/>
<path fill-rule="evenodd" d="M94.7,24.1L98.9,12.8L103,24.1c-2.4,-1.8,-5.8,-1.8,-8.3,0Z" class="g4"/>
<path d="M98.9,188.4L26,261.4" class="g2"/>
<path fill-rule="evenodd" d="M35.3,257.9L24.4,263l5.1,-10.9c.4,3,2.8,5.3,5.8,5.8Z" class="g5"/>
<path fill-rule="evenodd" d="M269,199.4l.1,-.1V199l.1,-.1v-.2l.1,-.1v-.2l.2,-.2v-.1h.1V198l.1,-.1h.1v-.1l.1,-.1h.1v-.1h.2l.1,-.1h.3c.1,0,.5,0,.8,.2c-.4,.1,-.8,.5,-.8,.9c0,.2,.2,.5,.7,.5c.3,0,.8,-.3,.8,-.9c0,-.8,-.9,-1.1,-1.5,-1.1c-.9,0,-1.5,.9,-1.7,1.3c-.4,-1.1,-1.2,-1.3,-1.7,-1.3c-1.7,0,-2.6,2.1,-2.6,2.5c0,.2,.2,.2,.2,.2c.1,0,.2,-.1,.2,-.2c.6,-1.7,1.6,-2.1,2.2,-2.1c.3,0,.8,.1,.8,1.1c0,.5,-.2,1.5,-.8,3.8c-.3,1,-.8,1.6,-1.5,1.6c-.1,0,-.5,0,-.8,-.2c.4,0,.7,-.4,.7,-.8c0,-.5,-.3,-.6,-.6,-.6c-.5,0,-.9,.4,-.9,.9c0,.8,.8,1.1,1.5,1.1c1.1,0,1.7,-1.1,1.7,-1.2c.2,.6,.8,1.2,1.7,1.2c1.7,0,2.6,-2.1,2.6,-2.5c0,-.1,-.1,-.1,-.2,-.1q-.1,0,-.2,.1c-.5,1.8,-1.6,2.1,-2.1,2.1c-.6,0,-.9,-.5,-.9,-1c0,-.4,.1,-.7,.3,-1.4Z" class="g6"/>
<path fill-rule="evenodd" d="M46.9,251.1V251l.1,-.1v-.2c0,-.3,-.3,-.4,-.5,-.4c-.2,0,-.4,.1,-.6,.3c0,.1,-.1,.6,-.2,.9c-.1,.4,-.2,.8,-.3,1.3l-.7,2.9c-.1,.2,-.8,1.3,-1.8,1.3c-.9,0,-1,-.7,-1,-1.3c0,-.7,.2,-1.7,.8,-3.1c.3,-.7,.3,-.8,.3,-1.2c0,-.7,-.5,-1.3,-1.3,-1.3c-1.5,0,-2.1,2.3,-2.1,2.5c0,.1,.1,.1,.2,.1q.1,0,.2,-.3c.5,-1.4,1.1,-1.9,1.6,-1.9c.2,0,.4,0,.4,.5c0,.4,-.1,.8,-.2,1.1c-.7,1.7,-1,2.6,-1,3.4c0,1.4,1.1,1.9,2,1.9c.6,0,1.2,-.3,1.6,-.7c-.2,.8,-.4,1.6,-1,2.4c-.4,.6,-1,1,-1.8,1c-.2,0,-.9,0,-1.2,-.6c.2,0,.5,0,.7,-.2c.1,-.2,.3,-.4,.3,-.7c0,-.5,-.4,-.6,-.6,-.6c-.4,0,-.9,.3,-.9,1.1c0,.8,.7,1.4,1.7,1.4c1.7,0,3.3,-1.5,3.8,-3.3Z" class="g6"/>
<path fill-rule="evenodd" d="M107.8,20.8l.2,-.1l.1,-.1l.1,-.1v-.1h.1l.1,-.1v-.1h.1l.1,-.1l.1,-.1v-.1h.1l.1,-.1l.1,-.1l.1,-.1l.1,-.1l.1,-.1l.2,-.2l.1,-.1l.2,-.1c0,0,.9,-.8,1.5,-1.4c1.6,-1.5,1.9,-2.3,1.9,-2.3c0,-.2,-.1,-.2,-.2,-.2q-.1,0,-.2,.2c-.5,.7,-.8,1,-1.2,1c-.4,0,-.6,-.2,-.8,-.5c-.3,-.4,-.6,-.7,-1.2,-.7c-1.1,0,-1.9,1.5,-1.9,1.8c0,.1,.1,.2,.2,.2c.2,0,.2,-.1,.2,-.2c.3,-.7,1.3,-.7,1.4,-.7c.3,0,.6,.1,1,.2c.6,.3,.8,.3,1.2,.3c-.6,.6,-1.9,1.8,-2.2,2.1l-1.4,1.3c-1.1,1.1,-1.7,2,-1.7,2.1c0,.1,.2,.1,.2,.1c.1,0,.2,0,.2,-.2c.4,-.5,.9,-1,1.4,-1c.4,0,.5,.2,1,.7c.2,.3,.5,.5,1,.5c1.6,0,2.5,-2,2.5,-2.4c0,-.1,-.1,-.2,-.2,-.2c-.2,0,-.2,.1,-.2,.2c-.4,1.1,-1.4,1.4,-2,1.4c-.3,0,-.6,-.1,-.9,-.2c-.5,-.2,-.8,-.3,-1.1,-.3c-.1,0,-.3,0,-.5,0Z" class="g6"/>
<path d="M116.6,69.8h6.9v6.9h-6.9Z" class="g6"/>
<path d="M155,47h6.9v6.9H155Z" class="g6"/>
<path d="M226.8,118.4h6.9v6.9h-6.9Z" class="g6"/>
<path d="M218,71.9h6.9v6.9H218Z" class="g6"/>
<path d="M195,217h6.9v6.9H195Z" class="g6"/>
<path d="M120,217h6.9v6.9H120Z" class="g6"/>
<path d="M72.6,151.6h6.9v6.9H72.6Z" class="g6"/>
<path d="M137,140.1h6.9V147H137Z" class="g6"/>
<path d="M113.2,113.4h6.9v6.9h-6.9Z" class="g6"/>
<path d="M182.6,106h6.9v6.9h-6.9Z" class="g6"/>
<path d="M177.5,71.4h7v7h-7Z" class="g6"/>
<path d="M196.4,154.8h6.9v6.9h-6.9Z" class="g6"/>
<path d="M164.2,203.2h6.9v6.9h-6.9Z" class="g6"/>
<path d="M241.5,164h6.9v6.9h-6.9Z" class="g6"/>
<path d="M224.9,200.9h6.9v6.9h-6.9Z" class="g6"/>
<path d="M99.3,200h6.9v6.9H99.3Z" class="g6"/>
<path d="M79.5,97.7h6.9v6.9H79.5Z" class="g6"/>
<path d="M80,57.6h6.9v6.9H80Z" class="g6"/>
<path d="M427.4,188.6H600.5" class="g2"/>
<path fill-rule="evenodd" d="M591.5,184.4l11.3,4.1l-11.3,4.2c1.8,-2.5,1.8,-5.8,0,-8.3Z" class="g3"/>
<path d="M427.4,188.6V15.3" class="g2"/>
<path fill-rule="evenodd" d="M423.2,24.3L427.4,13l4.1,11.3c-2.4,-1.8,-5.8,-1.8,-8.3,0Z" class="g4"/>
<path d="M427.4,188.6l-72.9,72.9" class="g2"/>
<path fill-rule="evenodd" d="M363.8,258.1l-10.9,5L358,252.2c.4,3,2.8,5.4,5.8,5.9Z" class="g5"/>
<path d="M427.4,115.6H573.2M427.4,42.6L372.7,97.3M500.3,42.6L445.6,97.3M573.2,42.6L518.5,97.3m54.7,18.3l-54.7,54.7M500.3,115.6l-54.7,54.7M427.4,115.6l-54.7,54.7m200.5,18.3l-54.7,54.7M500.3,188.6l-54.7,54.7m-72.9,0H518.5M400.1,215.9H545.8M372.7,170.3H518.5M400.1,142.9H545.8M400.1,70H545.8M427.4,42.6H573.2M372.7,97.3H518.5" class="g7"/>
<path fill-rule="evenodd" d="M597.5,199.6v-.1h.1v-.4h.1v-.2l.1,-.1v-.2l.2,-.2v-.1l.1,-.1l.1,-.1l.1,-.1v-.1h.1l.1,-.1h.1v-.1h.5c.1,0,.5,0,.8,.2c-.4,0,-.8,.4,-.8,.8c0,.3,.2,.6,.7,.6c.3,0,.8,-.3,.8,-.9c0,-.9,-.9,-1.1,-1.5,-1.1c-.9,0,-1.5,.8,-1.7,1.2c-.4,-1,-1.2,-1.2,-1.7,-1.2c-1.7,0,-2.6,2.1,-2.6,2.5c0,.1,.2,.1,.2,.1q.2,0,.2,-.2c.6,-1.7,1.6,-2,2.2,-2c.3,0,.8,.1,.8,1c0,.5,-.2,1.6,-.8,3.8c-.3,1,-.8,1.7,-1.5,1.7c-.1,0,-.5,0,-.8,-.2c.4,-.1,.7,-.4,.7,-.9c0,-.4,-.3,-.5,-.6,-.5c-.5,0,-.9,.4,-.9,.9c0,.7,.8,1,1.5,1c1.1,0,1.7,-1.1,1.7,-1.2c.2,.6,.8,1.2,1.8,1.2c1.6,0,2.5,-2,2.5,-2.4c0,-.2,-.1,-.2,-.2,-.2c-.1,0,-.1,.1,-.2,.2c-.5,1.7,-1.6,2.1,-2.1,2.1c-.6,0,-.9,-.5,-.9,-1.1c0,-.3,.1,-.7,.3,-1.4Z" class="g6"/>
<path fill-rule="evenodd" d="M375.4,254.9v-.1l.1,-.1v-.2c0,-.3,-.2,-.4,-.5,-.4c-.2,0,-.4,.1,-.6,.3c0,.1,-.1,.6,-.2,.9c-.1,.4,-.2,.8,-.3,1.3l-.7,2.9c-.1,.2,-.8,1.3,-1.8,1.3c-.8,0,-1,-.7,-1,-1.3c0,-.7,.3,-1.7,.8,-3.1c.3,-.7,.3,-.8,.3,-1.2c0,-.7,-.5,-1.3,-1.3,-1.3c-1.5,0,-2.1,2.3,-2.1,2.5c0,.1,.1,.1,.2,.1q.1,0,.2,-.2c.5,-1.5,1.1,-2,1.7,-2c.1,0,.4,0,.4,.5c0,.4,-.2,.8,-.3,1.1c-.7,1.7,-.9,2.6,-.9,3.4c0,1.4,1,1.9,1.9,1.9c.6,0,1.2,-.3,1.6,-.7c-.2,.8,-.4,1.6,-1,2.4c-.4,.6,-1,1,-1.8,1c-.2,0,-.9,0,-1.2,-.6c.3,0,.5,0,.7,-.2c.2,-.2,.3,-.4,.3,-.7c0,-.5,-.4,-.6,-.6,-.6c-.4,0,-.9,.3,-.9,1.1c0,.8,.7,1.4,1.7,1.4c1.7,0,3.3,-1.5,3.8,-3.3Z" class="g6"/>
<path fill-rule="evenodd" d="M436.4,21l.1,-.2h.1l.1,-.1v-.1l.1,-.1h.1v-.1l.2,-.1v-.1l.1,-.1l.1,-.1l.1,-.1l.1,-.1l.1,-.1l.1,-.1l.1,-.1l.2,-.1l.2,-.1l.1,-.1c0,0,.9,-.9,1.5,-1.5c1.6,-1.4,1.9,-2.2,1.9,-2.3c0,-.1,-.1,-.1,-.2,-.1q-.1,0,-.2,.1c-.5,.8,-.8,1.1,-1.2,1.1c-.4,0,-.6,-.3,-.8,-.6c-.3,-.3,-.6,-.6,-1.1,-.6c-1.2,0,-2,1.5,-2,1.8c0,.1,.1,.2,.2,.2c.2,0,.2,-.1,.2,-.2c.3,-.8,1.3,-.8,1.4,-.8c.3,0,.6,.1,1,.3c.6,.2,.8,.2,1.2,.2c-.5,.7,-1.9,1.9,-2.2,2.1l-1.4,1.3c-1.1,1.1,-1.7,2,-1.7,2.2c0,.1,.2,.1,.2,.1c.1,0,.2,0,.3,-.2c.3,-.6,.8,-1,1.3,-1c.4,0,.6,.1,1,.6c.2,.4,.5,.6,1,.6c1.6,0,2.5,-2,2.5,-2.5c0,0,-.1,-.1,-.2,-.1c-.1,0,-.2,.1,-.2,.2c-.4,1,-1.4,1.3,-2,1.3c-.3,0,-.6,-.1,-.9,-.2c-.5,-.2,-.8,-.2,-1.1,-.2c0,0,-.3,0,-.4,0Z" class="g6"/>
<path d="M500.3,42.6v146m72.9,-146v146M545.8,70V215.9M445.6,97.3v146M372.7,97.3v146M400.1,70V215.9M473,70V215.9M518.5,97.3v146" class="g7"/>
<path d="M477.7,142.9c0,2.7,-2.1,4.8,-4.7,4.8c-2.7,0,-4.8,-2.1,-4.8,-4.8c0,-2.6,2.1,-4.7,4.8,-4.7c2.6,0,4.7,2.1,4.7,4.7Z" class="g1"/>
<path d="M523.3,97.3c0,2.7,-2.2,4.8,-4.8,4.8c-2.6,0,-4.8,-2.1,-4.8,-4.8c0,-2.6,2.2,-4.7,4.8,-4.7c2.6,0,4.8,2.1,4.8,4.7Z" class="g8"/>
<g fill="#000000"  clip-path="url(#c0)">
<use xlink:href="#f0_d" transform="matrix(14.5,0,0,14.5,385.9,265.2)"/>
<use xlink:href="#f0_e" transform="matrix(14.5,0,0,14.5,398.2,265.2)"/>
<use xlink:href="#f0_g" transform="matrix(14.5,0,0,14.5,420.3,265.2)"/>
<use xlink:href="#f0_8" transform="matrix(14.5,0,0,14.5,433.8,265.2)"/>
<use xlink:href="#f0_h" transform="matrix(14.5,0,0,14.5,446,265.2)"/>
<use xlink:href="#f0_6" transform="matrix(14.5,0,0,14.5,458.3,265.2)"/>
<use xlink:href="#f0_i" transform="matrix(14.5,0,0,14.5,464.4,265.2)"/>
<use xlink:href="#f0_c" transform="matrix(14.5,0,0,14.5,476.7,265.2)"/>
<use xlink:href="#f0_8" transform="matrix(14.5,0,0,14.5,484.1,265.2)"/>
<use xlink:href="#f0_j" transform="matrix(14.5,0,0,14.5,502.5,265.2)"/>
<use xlink:href="#f0_3" transform="matrix(14.5,0,0,14.5,516.1,265.2)"/>
<use xlink:href="#f0_k" transform="matrix(14.5,0,0,14.5,528.3,265.2)"/>
<use xlink:href="#f0_i" transform="matrix(14.5,0,0,14.5,533.2,265.2)"/>
<use xlink:href="#f0_l" transform="matrix(14.5,0,0,14.5,545.5,265.2)"/>
<use xlink:href="#f0_8" transform="matrix(14.5,0,0,14.5,564,265.2)"/>
</g>
<text clip-path="url(#c0)" x="385" y="265" dx="0,0,0,0,0,0,0,0,0,.1,0,0,-1.2,0,0,0,.1" class="s1">3D Feature Volume</text>
<path d="M520.6,168.9l-27.3,27.4M447.1,168.9l-26.7,27.4m0,0h72.9M447.1,168.9h73.5m0,-74.7l-27.3,27.3M447.1,94.2l-26.7,27.3m0,0h72.9M447.1,94.2h73.5m0,75v-75m-27.3,27.3v74.6M420.4,121.5v74.6m26.7,-27.6V94.2" class="g9"/>
<path d="M445,69.3h6.9v6.9H445Z" class="g6"/>
<path d="M483.4,46.5h6.9v6.9h-6.9Z" class="g6"/>
<path d="M555.2,117.9h6.9v6.9h-6.9Z" class="g6"/>
<path d="M546.5,71.4h6.9v6.9h-6.9Z" class="g6"/>
<path d="M523.5,216.5h6.9v6.9h-6.9Z" class="g6"/>
<path d="M448.5,216.5h6.9v6.9h-6.9Z" class="g6"/>
<path d="M401.1,151.1H408V158h-6.9Z" class="g6"/>
<path d="M458.2,138.9h6.9v6.9h-6.9Z" class="g1"/>
<path d="M438.3,112.4h6.9v6.9h-6.9Z" class="g1"/>
<path d="M511,105.5h6.9v6.9H511Z" class="g1"/>
<path d="M506,70.9h6.9v6.9H506Z" class="g6"/>
<path d="M524.8,154.3h7v6.9h-7Z" class="g6"/>
<path d="M492.6,202.7h6.9v6.9h-6.9Z" class="g6"/>
<path d="M569.9,163.5h7v6.9h-7Z" class="g6"/>
<path d="M553.4,200.4h6.9v6.9h-6.9Z" class="g6"/>
<path d="M427.8,199.4h6.9v6.9h-6.9Z" class="g6"/>
<path d="M408,97.2h6.9v6.9H408Z" class="g6"/>
<path d="M408.4,57.1h6.9V64h-6.9Z" class="g6"/>
<path d="M441.8,115.8L473,142.9m0,0l41.5,-34m-41.5,34l-11.3,-.6" class="ga"/>
<path d="M159.1,169.3H166v6.9h-6.9Z" class="g6"/>
<path d="M484.3,169.9h6.9v6.9h-6.9Z" class="gb"/>
<path d="M487.8,173.3L473,142.9" class="ga"/>
<path fill-rule="evenodd" d="M67.9,22.2l2.8,-3.1c.4,-.3,.5,-.5,2.5,-.5V17.5c-.8,0,-2.1,0,-2.2,0c-.6,0,-1.8,0,-2.5,0v1.1c.3,0,.6,0,.9,.2q-.1,.2,-.2,.3l-2,2.2L64.9,18.6h.9V17.5c-.6,0,-2.1,0,-2.9,0c-.8,0,-1.9,0,-2.6,0v1.1H62L65.7,23l-3.1,3.5c-.4,.5,-1.3,.5,-2.5,.5v1.1c.9,0,2.1,-.1,2.3,-.1c.6,0,2,.1,2.4,.1V27c-.4,0,-.9,-.1,-.9,-.3l.2,-.2l2.3,-2.6L69.1,27h-1v1.1c.7,0,2.1,-.1,2.9,-.1c.8,0,1.9,.1,2.7,.1V27H72Z" class="g6"/>
<g fill="#000000"  clip-path="url(#c0)">
<use xlink:href="#f0_m" transform="matrix(14.5,0,0,14.5,0.4,29)"/>
<use xlink:href="#f0_5" transform="matrix(14.5,0,0,14.5,6.5,29)"/>
<use xlink:href="#f0_n" transform="matrix(14.5,0,0,14.5,18.8,29)"/>
<use xlink:href="#f0_i" transform="matrix(14.5,0,0,14.5,31.1,29)"/>
<use xlink:href="#f0_6" transform="matrix(14.5,0,0,14.5,43.4,29)"/>
</g>
<text clip-path="url(#c0)" x="0" y="29" class="s1">Input</text>
<path d="M755.2,248.5l57.9,-58H967.7l-58,58Z" class="gc"/>
<path d="M755.2,248.5l57.9,-58V35.8l-57.9,58Z" class="gd"/>
<path d="M816.1,35.8H964.7c1.7,0,3,1.3,3,2.9V187.5c0,1.6,-1.3,3,-3,3H816.1c-1.7,0,-3,-1.4,-3,-3V38.7c0,-1.6,1.3,-2.9,3,-2.9Z" class="ge"/>
<path d="M813.1,190.5H996.7" class="gf"/>
<path fill-rule="evenodd" d="M987.1,186l12,4.4l-12,4.5c1.9,-2.6,1.9,-6.2,0,-8.9Z" class="gg"/>
<path d="M813.1,190.5V6.8" class="gf"/>
<path fill-rule="evenodd" d="M808.7,16.3l4.4,-12l4.4,12c-2.6,-1.9,-6.2,-1.9,-8.8,0Z" class="gh"/>
<path d="M813.1,190.5l-77.3,77.3" class="gf"/>
<path fill-rule="evenodd" d="M745.7,264.2l-11.6,5.3L739.5,258c.5,3.1,3,5.7,6.2,6.2Z" class="gi"/>
<path d="M813.1,113.1H967.7" class="gj"/>
<path d="M927.1,118.4c0,4.1,-3.3,7.3,-7.4,7.3c-4,0,-7.3,-3.2,-7.3,-7.3c0,-4.1,3.3,-7.4,7.3,-7.4c4.1,0,7.4,3.3,7.4,7.4Z" class="gk"/>
<path d="M813.1,35.8l-57.9,58m135.2,-58l-58,58m135.3,-58l-58,58m58,19.3l-58,58m-19.3,-58l-58,58m-19.3,-58l-57.9,58m212.5,19.4l-58,58m-19.3,-58l-58,58m-77.2,0H909.7m-125.6,-29H938.7M755.2,171.1H909.7m-125.6,-29H938.7M784.1,64.8H938.7M813.1,35.8H967.7m-77.3,0V190.5M967.7,35.8V190.5M938.7,64.8V219.5M832.4,93.8V248.5M755.2,93.8V248.5M784.1,64.8V219.5M861.4,64.8V219.5" class="gj"/>
<path d="M789.2,64.8c0,2.8,-2.3,5,-5.1,5c-2.7,0,-5,-2.2,-5,-5c0,-2.8,2.3,-5.1,5,-5.1c2.8,0,5.1,2.3,5.1,5.1Z" class="gl"/>
<path d="M866.5,64.8c0,2.8,-2.3,5,-5.1,5c-2.8,0,-5,-2.2,-5,-5c0,-2.8,2.2,-5.1,5,-5.1c2.8,0,5.1,2.3,5.1,5.1Z" class="gk"/>
<path d="M943.7,64.8c0,2.8,-2.2,5,-5,5c-2.8,0,-5.1,-2.2,-5.1,-5c0,-2.8,2.3,-5.1,5.1,-5.1c2.8,0,5,2.3,5,5.1Z" class="gk"/>
<path d="M789.2,142.1c0,2.8,-2.3,5.1,-5.1,5.1c-2.7,0,-5,-2.3,-5,-5.1c0,-2.8,2.3,-5,5,-5c2.8,0,5.1,2.2,5.1,5Z" class="gl"/>
<path d="M866.5,142.1c0,2.8,-2.3,5.1,-5.1,5.1c-2.8,0,-5,-2.3,-5,-5.1c0,-2.8,2.2,-5,5,-5c2.8,0,5.1,2.2,5.1,5Z" class="gk"/>
<path d="M943.7,142.1c0,2.8,-2.2,5.1,-5,5.1c-2.8,0,-5.1,-2.3,-5.1,-5.1c0,-2.8,2.3,-5,5.1,-5c2.8,0,5,2.2,5,5Z" class="gk"/>
<path d="M789.2,219.5c0,2.8,-2.3,5,-5.1,5c-2.7,0,-5,-2.2,-5,-5c0,-2.8,2.3,-5.1,5,-5.1c2.8,0,5.1,2.3,5.1,5.1Z" class="gl"/>
<path d="M866.5,219.5c0,2.8,-2.3,5,-5.1,5c-2.8,0,-5,-2.2,-5,-5c0,-2.8,2.2,-5.1,5,-5.1c2.8,0,5.1,2.3,5.1,5.1Z" class="gl"/>
<path d="M943.7,219.5c0,2.8,-2.2,5,-5,5c-2.8,0,-5.1,-2.2,-5.1,-5c0,-2.8,2.3,-5.1,5.1,-5.1c2.8,0,5,2.3,5,5.1Z" class="gl"/>
<path d="M818.2,35.8c0,2.8,-2.3,5,-5.1,5c-2.8,0,-5,-2.2,-5,-5c0,-2.8,2.2,-5.1,5,-5.1c2.8,0,5.1,2.3,5.1,5.1Z" class="gl"/>
<path d="M895.4,35.8c0,2.8,-2.2,5,-5,5c-2.8,0,-5.1,-2.2,-5.1,-5c0,-2.8,2.3,-5.1,5.1,-5.1c2.8,0,5,2.3,5,5.1Z" class="gl"/>
<path d="M972.7,35.8c0,2.8,-2.2,5,-5,5c-2.8,0,-5.1,-2.2,-5.1,-5c0,-2.8,2.3,-5.1,5.1,-5.1c2.8,0,5,2.3,5,5.1Z" class="gl"/>
<path d="M818.2,113.1c0,2.8,-2.3,5.1,-5.1,5.1c-2.8,0,-5,-2.3,-5,-5.1c0,-2.8,2.2,-5,5,-5c2.8,0,5.1,2.2,5.1,5Z" class="gl"/>
<path d="M895.4,113.1c0,2.8,-2.2,5.1,-5,5.1c-2.8,0,-5.1,-2.3,-5.1,-5.1c0,-2.8,2.3,-5,5.1,-5c2.8,0,5,2.2,5,5Z" class="gl"/>
<path d="M972.7,113.1c0,2.8,-2.2,5.1,-5,5.1c-2.8,0,-5.1,-2.3,-5.1,-5.1c0,-2.8,2.3,-5,5.1,-5c2.8,0,5,2.2,5,5Z" class="gl"/>
<path d="M818.2,190.5c0,2.8,-2.3,5,-5.1,5c-2.8,0,-5,-2.2,-5,-5c0,-2.8,2.2,-5.1,5,-5.1c2.8,0,5.1,2.3,5.1,5.1Z" class="gl"/>
<path d="M895.4,190.5c0,2.8,-2.2,5,-5,5c-2.8,0,-5.1,-2.2,-5.1,-5c0,-2.8,2.3,-5.1,5.1,-5.1c2.8,0,5,2.3,5,5.1Z" class="gl"/>
<path d="M972.7,190.5c0,2.8,-2.2,5,-5,5c-2.8,0,-5.1,-2.2,-5.1,-5c0,-2.8,2.3,-5.1,5.1,-5.1c2.8,0,5,2.3,5,5.1Z" class="gl"/>
<path d="M755.2,93.8H909.7" class="gj"/>
<path fill-rule="evenodd" d="M993.5,202.1V202l.1,-.1v-.3l.1,-.1v-.1l.1,-.2v-.1l.1,-.1l.1,-.1v-.1l.1,-.1l.1,-.1l.1,-.1l.1,-.1l.1,-.1h.1v-.1h.3v-.1h.3c.1,0,.5,0,.8,.2c-.4,.1,-.8,.5,-.8,1c0,.2,.2,.6,.7,.6c.3,0,.9,-.4,.9,-1c0,-.9,-1,-1.2,-1.6,-1.2c-1,0,-1.6,.9,-1.8,1.3c-.4,-1.1,-1.3,-1.3,-1.8,-1.3c-1.8,0,-2.8,2.2,-2.8,2.6c0,.2,.2,.2,.3,.2q.1,0,.2,-.2c.6,-1.8,1.7,-2.2,2.3,-2.2c.3,0,.9,.2,.9,1.2c0,.5,-.3,1.6,-.9,4c-.3,1,-.9,1.8,-1.7,1.8c-.1,0,-.5,0,-.8,-.3c.4,0,.8,-.4,.8,-.9c0,-.4,-.4,-.6,-.6,-.6c-.6,0,-1,.5,-1,1c0,.8,.9,1.1,1.6,1.1c1.1,0,1.8,-1.2,1.8,-1.3c.2,.7,.8,1.3,1.8,1.3c1.8,0,2.8,-2.2,2.8,-2.6c0,-.2,-.2,-.2,-.2,-.2c-.2,0,-.2,.1,-.3,.2c-.5,1.9,-1.7,2.3,-2.2,2.3c-.7,0,-1,-.6,-1,-1.2c0,-.3,.1,-.7,.3,-1.5Z" class="g6"/>
<path fill-rule="evenodd" d="M758,260.8v-.2l.1,-.1v-.1c0,-.3,-.3,-.4,-.5,-.4c-.2,0,-.5,.1,-.6,.3c-.1,.1,-.2,.6,-.3,.9c-.1,.5,-.2,.9,-.3,1.4l-.8,3c0,.3,-.8,1.5,-1.9,1.5c-.9,0,-1,-.8,-1,-1.4c0,-.8,.2,-1.8,.8,-3.3c.3,-.7,.3,-.9,.3,-1.2c0,-.8,-.5,-1.4,-1.3,-1.4c-1.7,0,-2.3,2.4,-2.3,2.6c0,.1,.2,.1,.2,.1q.2,0,.3,-.3c.5,-1.5,1.1,-2.1,1.7,-2.1c.1,0,.4,0,.4,.6c0,.4,-.1,.9,-.3,1.2c-.6,1.8,-.9,2.7,-.9,3.5c0,1.6,1,2,2,2c.7,0,1.3,-.2,1.7,-.7c-.2,.9,-.4,1.7,-1,2.6c-.5,.6,-1.1,1.1,-1.9,1.1c-.3,0,-1,-.1,-1.3,-.7c.3,0,.5,0,.7,-.2c.2,-.2,.4,-.4,.4,-.7c0,-.6,-.5,-.6,-.7,-.6c-.4,0,-.9,.2,-.9,1.1c0,.8,.7,1.4,1.8,1.4c1.7,0,3.5,-1.5,4,-3.4Z" class="g6"/>
<path fill-rule="evenodd" d="M822.6,12.8h.1l.1,-.1v-.1l.1,-.1l.1,-.1l.1,-.1h.1v-.1l.1,-.1h.1V12l.1,-.1l.1,-.1l.1,-.1l.2,-.1l.1,-.1l.1,-.1l.1,-.1l.2,-.2l.1,-.1l.1,-.1c0,0,1.1,-.9,1.7,-1.5c1.6,-1.6,2,-2.4,2,-2.5c0,-.2,-.2,-.2,-.2,-.2c-.1,0,-.2,.1,-.3,.2C827.3,7.8,827,8,826.6,8c-.4,0,-.6,-.2,-.9,-.5c-.3,-.4,-.6,-.8,-1.2,-.8c-1.2,0,-2,1.6,-2,2c0,.1,0,.2,.2,.2c.1,0,.2,-.1,.2,-.2c.3,-.8,1.3,-.8,1.4,-.8c.4,0,.7,.1,1.1,.2c.7,.3,.9,.3,1.3,.3c-.6,.7,-2,1.9,-2.3,2.2L822.8,12c-1.1,1.2,-1.7,2.2,-1.7,2.3c0,.1,.1,.1,.2,.1c.1,0,.2,0,.3,-.2c.3,-.6,.9,-1,1.4,-1c.4,0,.6,.1,1,.6c.3,.4,.6,.6,1.1,.6c1.7,0,2.6,-2.1,2.6,-2.6c0,-.1,0,-.2,-.2,-.2c-.1,0,-.1,.1,-.2,.3c-.4,1.1,-1.5,1.4,-2,1.4c-.4,0,-.7,-.1,-1,-.2c-.6,-.2,-.9,-.3,-1.2,-.3c-.1,0,-.3,0,-.5,0Z" class="g6"/>
<path d="M1055.6,105.5H1100l-44.4,36.6H1100l-44.4,36.6L1100,105.5m-44.4,73.2H1100l-44.4,-36.6m44.4,36.6l-44.4,-73.2m44.4,36.6l-44.4,-36.6" class="gm"/>
<path d="M1064.8,105.5c0,5.1,-4.1,9.2,-9.2,9.2c-5,0,-9.1,-4.1,-9.1,-9.2c0,-5,4.1,-9.1,9.1,-9.1c5.1,0,9.2,4.1,9.2,9.1Z" class="gn"/>
<path d="M1064.8,105.5c0,5.1,-4.1,9.2,-9.2,9.2c-5,0,-9.1,-4.1,-9.1,-9.2c0,-5,4.1,-9.1,9.1,-9.1c5.1,0,9.2,4.1,9.2,9.1Z" class="go"/>
<path d="M1064.8,142.1c0,5.1,-4.1,9.2,-9.2,9.2c-5,0,-9.1,-4.1,-9.1,-9.2c0,-5,4.1,-9.1,9.1,-9.1c5.1,0,9.2,4.1,9.2,9.1Z" class="gn"/>
<path d="M1064.8,142.1c0,5.1,-4.1,9.2,-9.2,9.2c-5,0,-9.1,-4.1,-9.1,-9.2c0,-5,4.1,-9.1,9.1,-9.1c5.1,0,9.2,4.1,9.2,9.1Z" class="go"/>
<path d="M1064.8,178.7c0,5.1,-4.1,9.2,-9.2,9.2c-5,0,-9.1,-4.1,-9.1,-9.2c0,-5,4.1,-9.1,9.1,-9.1c5.1,0,9.2,4.1,9.2,9.1Z" class="gn"/>
<path d="M1064.8,178.7c0,5.1,-4.1,9.2,-9.2,9.2c-5,0,-9.1,-4.1,-9.1,-9.2c0,-5,4.1,-9.1,9.1,-9.1c5.1,0,9.2,4.1,9.2,9.1Z" class="go"/>
<path d="M1100,105.5l38.7,36.6H1100h38.7L1100,178.7" class="gm"/>
<path d="M1147.8,142.1c0,5.1,-4.1,9.2,-9.1,9.2c-5.1,0,-9.2,-4.1,-9.2,-9.2c0,-5,4.1,-9.1,9.2,-9.1c5,0,9.1,4.1,9.1,9.1Z" class="gn"/>
<path d="M1147.8,142.1c0,5.1,-4.1,9.2,-9.1,9.2c-5.1,0,-9.2,-4.1,-9.2,-9.2c0,-5,4.1,-9.1,9.2,-9.1c5,0,9.1,4.1,9.1,9.1Z" class="go"/>
<path d="M1109.2,105.5c0,5.1,-4.1,9.2,-9.2,9.2c-5,0,-9.1,-4.1,-9.1,-9.2c0,-5,4.1,-9.1,9.1,-9.1c5.1,0,9.2,4.1,9.2,9.1Z" class="gn"/>
<path d="M1109.2,105.5c0,5.1,-4.1,9.2,-9.2,9.2c-5,0,-9.1,-4.1,-9.1,-9.2c0,-5,4.1,-9.1,9.1,-9.1c5.1,0,9.2,4.1,9.2,9.1Z" class="go"/>
<path d="M1109.2,142.1c0,5.1,-4.1,9.2,-9.2,9.2c-5,0,-9.1,-4.1,-9.1,-9.2c0,-5,4.1,-9.1,9.1,-9.1c5.1,0,9.2,4.1,9.2,9.1Z" class="gn"/>
<path d="M1109.2,142.1c0,5.1,-4.1,9.2,-9.2,9.2c-5,0,-9.1,-4.1,-9.1,-9.2c0,-5,4.1,-9.1,9.1,-9.1c5.1,0,9.2,4.1,9.2,9.1Z" class="go"/>
<path d="M1109.2,178.7c0,5.1,-4.1,9.2,-9.2,9.2c-5,0,-9.1,-4.1,-9.1,-9.2c0,-5,4.1,-9.1,9.1,-9.1c5.1,0,9.2,4.1,9.2,9.1Z" class="gn"/>
<path d="M1109.2,178.7c0,5.1,-4.1,9.2,-9.2,9.2c-5,0,-9.1,-4.1,-9.1,-9.2c0,-5,4.1,-9.1,9.1,-9.1c5.1,0,9.2,4.1,9.2,9.1Z" class="go"/>
<path d="M1200.5,124.7H1215v53.1h-14.5Z" class="gl"/>
<path d="M1200.5,95.6H1215v82.2h-14.5Z" class="gp"/>
<path d="M909.7,93.8V248.5" class="gj"/>
<path d="M760.2,93.8c0,2.8,-2.3,5,-5,5c-2.8,0,-5.1,-2.2,-5.1,-5c0,-2.8,2.3,-5.1,5.1,-5.1c2.7,0,5,2.3,5,5.1Z" class="gl"/>
<path d="M837.5,93.8c0,2.8,-2.3,5,-5.1,5c-2.7,0,-5,-2.2,-5,-5c0,-2.8,2.3,-5.1,5,-5.1c2.8,0,5.1,2.3,5.1,5.1Z" class="gk"/>
<path d="M760.2,171.1c0,2.8,-2.3,5.1,-5,5.1c-2.8,0,-5.1,-2.3,-5.1,-5.1c0,-2.8,2.3,-5,5.1,-5c2.7,0,5,2.2,5,5Z" class="gl"/>
<path d="M837.5,171.1c0,2.8,-2.3,5.1,-5.1,5.1c-2.7,0,-5,-2.3,-5,-5.1c0,-2.8,2.3,-5,5,-5c2.8,0,5.1,2.2,5.1,5Z" class="gk"/>
<path d="M760.2,248.5c0,2.8,-2.3,5,-5,5c-2.8,0,-5.1,-2.2,-5.1,-5c0,-2.8,2.3,-5.1,5.1,-5.1c2.7,0,5,2.3,5,5.1Z" class="gl"/>
<path d="M837.5,248.5c0,2.8,-2.3,5,-5.1,5c-2.7,0,-5,-2.2,-5,-5c0,-2.8,2.3,-5.1,5,-5.1c2.8,0,5.1,2.3,5.1,5.1Z" class="gl"/>
<path d="M914.8,248.5c0,2.8,-2.3,5,-5.1,5c-2.8,0,-5,-2.2,-5,-5c0,-2.8,2.2,-5.1,5,-5.1c2.8,0,5.1,2.3,5.1,5.1Z" class="gl"/>
<path d="M914.8,171.1c0,2.8,-2.3,5.1,-5.1,5.1c-2.8,0,-5,-2.3,-5,-5.1c0,-2.8,2.2,-5,5,-5c2.8,0,5.1,2.2,5.1,5Z" class="gk"/>
<path d="M914.8,93.8c0,2.8,-2.3,5,-5.1,5c-2.8,0,-5,-2.2,-5,-5c0,-2.8,2.2,-5.1,5,-5.1c2.8,0,5.1,2.3,5.1,5.1Z" class="gk"/>
<path fill-rule="evenodd" d="M909.2,134.7v.1h.1l.1,.1l.1,.1h.2v.1h.1l.1,.1h.2v.1h.2l.1,.1h.5l.2,.1h.2l-.1,-.6c-.3,0,-1.1,0,-1.8,-1q-.2,-.2,-.2,-.5v-3.6q0,-.3,.2,-.6c.7,-.7,1.6,-.8,2,-.8c1.1,0,2.1,1.1,2.1,3.2c0,2.4,-1.2,3.3,-2.3,3.3l.1,.6c2.6,0,4.3,-1.6,4.3,-3.9c0,-2.3,-1.5,-3.9,-4,-3.9c-1.2,0,-2.2,.6,-2.5,.9v-.9l-3,.2v.8c1,0,1.1,0,1.1,.6v8.6h-1.1v.8c.4,-.1,1.5,-.1,2.1,-.1c.7,0,1.7,0,2.1,.1v-.8h-1.1Z" class="g6"/>
<path fill-rule="evenodd" d="M1145.6,67.4h2.2c.5,0,.7,0,.7,-.5c0,-.2,-.2,-.2,-.7,-.2h-2.1l.6,-2.9c.1,-.6,.4,-2.4,.6,-2.7c.2,-.5,.6,-.8,1.2,-.8c.1,0,.7,0,1.2,.4c-1.1,.1,-1.4,1,-1.4,1.4c0,.6,.5,.9,1,.9c.7,0,1.4,-.6,1.4,-1.5c0,-1.2,-1.2,-1.8,-2.2,-1.8c-.9,0,-2.5,.5,-3.3,3c-.1,.5,-.2,.8,-.8,4h-1.8c-.5,0,-.7,0,-.7,.4c0,.3,.2,.3,.7,.3h1.6L1142,77.5c-.5,2.5,-.9,4.8,-2.3,4.8c-.1,0,-.7,0,-1.2,-.5c1.2,-.1,1.4,-1,1.4,-1.3c0,-.6,-.5,-.9,-.9,-.9c-.7,0,-1.4,.5,-1.4,1.5c0,1.1,1.1,1.7,2.1,1.7c1.4,0,2.5,-1.4,2.9,-2.4c.8,-1.6,1.4,-4.7,1.4,-4.9Z" class="g6"/>
<path fill-rule="evenodd" d="M1157.8,72.8v-.9l-.1,-.2v-.3l-.1,-.2v-.3l-.1,-.2v-.1l-.1,-.2l-.1,-.1v-.2l-.1,-.1l-.1,-.1l-.1,-.1l-.1,-.1l-.1,-.2l-.1,-.1l-.1,-.1h-.1l-.1,-.1l-.2,-.1h-.1L1156,69h-.2l-.1,-.1h-.3l-.1,.5c1.2,0,1.2,2,1.2,2.3c0,.7,-.2,1.8,-.5,3.2h-4.2c1,-3.8,2.5,-5.5,3.5,-5.5l.1,-.5c-2.7,0,-5.6,4.8,-5.6,8.9c0,2.1,.8,3.8,2.5,3.8v-.5c-1,0,-1.2,-1.3,-1.2,-2.3c0,-1.2,.4,-2.5,.6,-3.2h4.1c-.5,1.9,-.9,2.9,-1.4,3.8c-.6,.9,-1.3,1.7,-2.1,1.7v.5c2.7,0,5.5,-4.8,5.5,-8.8Z" class="g6"/>
<path fill-rule="evenodd" d="M1168.7,83.7h-.1v-.1l-.1,-.1v-.1h-.1v-.1h-.1v-.1h-.1c-3.2,-3.2,-4,-8,-4,-11.9c0,-4.5,1,-8.9,4.1,-12.1q.4,-.3,.4,-.4c0,-.2,-.1,-.3,-.3,-.3c-.2,0,-2.6,1.8,-4.1,5c-1.3,2.8,-1.6,5.6,-1.6,7.8c0,2,.3,5,1.7,7.9c1.5,3.1,3.8,4.8,4,4.8c.2,0,.3,-.1,.3,-.3Z" class="g6"/>
<path fill-rule="evenodd" d="M1175.7,76.6l.1,.1l.2,.1l.1,.1h.1l.1,.1l.1,.1h.1l.1,.1l.1,.1h.2l.1,.1h.1l.1,.1h.1l.2,.1h.1l.2,.1h.6l.2,.1h.4l-.3,-.9c-.3,0,-1.5,0,-2.7,-1.4c-.3,-.3,-.3,-.4,-.3,-.9V69.3c0,-.5,.1,-.5,.4,-.9c1,-1.1,2.4,-1.2,2.9,-1.2c1.7,0,3.2,1.6,3.2,4.8c0,3.5,-1.8,4.9,-3.5,4.9l.3,.9c3.8,0,6.4,-2.3,6.4,-5.8c0,-3.4,-2.3,-5.8,-6,-5.8c-1.9,0,-3.2,.8,-3.8,1.2V66.2l-4.5,.2v1.2c1.6,0,1.7,0,1.7,.9V81.4h-1.7v1.2c.7,-.1,2.2,-.1,3.2,-.1c1,0,2.5,0,3.2,.1V81.4h-1.8Z" class="g6"/>
<path fill-rule="evenodd" d="M1191.6,77.6V77l-.1,-.1v-.4l-.1,-.1v-.3l-.1,-.1v-.2l-.1,-.1v-.1l-.1,-.1l-.1,-.1l-.1,-.1h-.1v-.1h-.1l-.1,-.1l-.1,-.1h-.2l-.1,-.1h-.3c-.8,0,-1.3,.7,-1.3,1.4c0,.7,.5,1.3,1.3,1.3c.4,0,.7,-.1,.9,-.3c.1,0,.1,-.1,.2,-.1c0,0,0,.1,0,.4c0,1.9,-.9,3.4,-1.7,4.2c-.3,.3,-.3,.4,-.3,.5c0,.1,.1,.2,.3,.2c.2,0,2.3,-1.9,2.3,-4.9Z" class="g6"/>
<path fill-rule="evenodd" d="M1210,60.6h.1v-.3c0,-.3,-.1,-.3,-.3,-.3q-.3,0,-.4,.5l-4.2,16.8c-1.9,-.2,-2.9,-1.2,-2.9,-2.9c0,-.5,0,-1.1,1.4,-4.7c.1,-.3,.2,-.7,.2,-1.2c0,-1.2,-.8,-2.1,-2.1,-2.1c-2.4,0,-3.3,3.7,-3.3,3.9c0,.2,.2,.2,.3,.2q.3,0,.4,-.4c.7,-2.4,1.7,-3.2,2.6,-3.2c.2,0,.6,0,.6,.9c0,.6,-.3,1.3,-.6,2.2c-1.2,3.2,-1.2,3.8,-1.2,4.2c0,2.5,2,3.5,4.4,3.6q-.2,1,-.5,2.4c-.1,.3,-.6,2.3,-.6,2.4c0,0,0,.2,.3,.2c0,0,.2,0,.2,-.1c.1,0,.3,-.7,.3,-1l1,-3.8c1,0,3.2,0,5.6,-2.7c1,-1.2,1.6,-2.3,1.8,-3.1c.3,-.6,.8,-2.8,.8,-3.9c0,-1.5,-.6,-1.8,-1.1,-1.8c-.6,0,-1.3,.6,-1.3,1.2c0,.3,.2,.5,.4,.7c.3,.3,.9,.9,.9,2.1c0,1.7,-1.3,3.8,-2.2,4.7c-2.2,2.3,-3.8,2.3,-4.8,2.3Z" class="g6"/>
<path fill-rule="evenodd" d="M1223.7,83.7v-.1h-.1v-.1h-.1v-.1l-.1,-.1l-.1,-.1c-3.2,-3.2,-4,-8,-4,-11.9c0,-4.5,.9,-8.9,4.1,-12.1q.3,-.3,.3,-.4c0,-.2,-.1,-.3,-.3,-.3c-.2,0,-2.5,1.8,-4,5c-1.3,2.8,-1.6,5.6,-1.6,7.8c0,2,.3,5,1.7,7.9c1.5,3.1,3.7,4.8,3.9,4.8c.2,0,.3,-.1,.3,-.3Z" class="g6"/>
<path fill-rule="evenodd" d="M1230.8,76.6l.1,.1l.1,.1l.1,.1h.1l.1,.1l.1,.1h.1l.1,.1l.1,.1h.2l.1,.1h.1l.1,.1h.1l.2,.1h.1l.2,.1h.6l.2,.1h.4l-.2,-.9c-.4,0,-1.6,0,-2.7,-1.4c-.3,-.3,-.3,-.4,-.3,-.9V69.3q0,-.5,.4,-.9c1,-1.1,2.3,-1.2,2.9,-1.2c1.7,0,3.1,1.6,3.1,4.8c0,3.5,-1.8,4.9,-3.4,4.9l.2,.9c3.9,0,6.5,-2.3,6.5,-5.8c0,-3.4,-2.4,-5.8,-6,-5.8c-1.9,0,-3.3,.8,-3.9,1.2V66.2l-4.5,.2v1.2c1.6,0,1.8,0,1.8,.9V81.4h-1.8v1.2c.7,-.1,2.2,-.1,3.2,-.1c1,0,2.5,0,3.2,.1V81.4h-1.7Z" class="g6"/>
<path fill-rule="evenodd" d="M1246.6,77.6v-.9l-.1,-.1v-.4l-.1,-.1V76l-.1,-.1v-.1l-.1,-.1v-.1l-.1,-.1l-.1,-.1l-.1,-.1l-.1,-.1l-.1,-.1h-.1l-.1,-.1h-.1l-.1,-.1h-.3c-.8,0,-1.4,.7,-1.4,1.4c0,.7,.6,1.3,1.4,1.3c.3,0,.6,-.1,.9,-.3c.1,0,.1,-.1,.1,-.1c0,0,.1,.1,.1,.4c0,1.9,-.9,3.4,-1.8,4.2c-.3,.3,-.3,.4,-.3,.5c0,.1,.2,.2,.3,.2c.3,0,2.3,-1.9,2.3,-4.9Z" class="g6"/>
<path fill-rule="evenodd" d="M1261.6,71.4l3,-3.3c.3,-.4,.5,-.6,2.6,-.6V66.3c-.9,.1,-2.2,.1,-2.3,.1c-.7,0,-2,-.1,-2.7,-.1v1.2c.4,0,.7,.1,1,.3c-.1,.1,-.1,.2,-.2,.3l-2.2,2.3l-2.5,-2.9h1.1V66.3c-.7,0,-2.3,.1,-3.1,.1c-.8,0,-2,-.1,-2.8,-.1v1.2h1.8l3.9,4.7l-3.3,3.8c-.4,.4,-1.3,.4,-2.6,.4v1.2c.9,0,2.3,-.1,2.4,-.1c.6,0,2.1,.1,2.6,.1V76.4c-.5,0,-.9,-.1,-.9,-.2q0,-.1,.1,-.3l2.5,-2.8l2.8,3.3h-1v1.2c.7,0,2.3,-.1,3.1,-.1c.8,0,1.9,.1,2.8,.1V76.4h-1.8Z" class="g6"/>
<path fill-rule="evenodd" d="M1275.6,71.3V70l-.1,-.4v-.5l-.1,-.4v-.6l-.1,-.5l-.1,-.5l-.1,-.5l-.2,-.6l-.1,-.5l-.2,-.5l-.2,-.6l-.1,-.3l-.1,-.2l-.1,-.3l-.2,-.3c-1.5,-3.1,-3.7,-4.8,-4,-4.8c-.1,0,-.2,.1,-.2,.3q0,.1,.5,.6c2.5,2.5,3.9,6.6,3.9,11.9c0,4.3,-.9,8.8,-4.1,12c-.3,.3,-.3,.4,-.3,.4c0,.2,.1,.3,.2,.3c.3,0,2.6,-1.7,4.1,-5c1.3,-2.8,1.6,-5.6,1.6,-7.7Z" class="g6"/>
<path clip-path="url(#c1)" fill-rule="evenodd" d="M1285.5,71.3V69.6l-.1,-.5v-.4l-.2,-1.1l-.1,-.5l-.1,-.5l-.1,-.6l-.2,-.5l-.2,-.5l-.2,-.6l-.1,-.3l-.1,-.2l-.1,-.3l-.2,-.3c-1.5,-3.1,-3.7,-4.8,-3.9,-4.8c-.2,0,-.3,.1,-.3,.3q0,.1,.5,.6c2.5,2.5,3.9,6.6,3.9,11.9c0,4.3,-.9,8.8,-4.1,12c-.3,.3,-.3,.4,-.3,.4c0,.2,.1,.3,.3,.3c.2,0,2.5,-1.7,4,-5c1.3,-2.8,1.6,-5.6,1.6,-7.7Z" class="g6"/>
<g fill="#000000"  clip-path="url(#c1)">
<use xlink:href="#f1_2" transform="matrix(15.3,0,0,15.3,1150.6,16.4)"/>
<use xlink:href="#f1_3" transform="matrix(15.3,0,0,15.3,1168.8,16.4)"/>
<use xlink:href="#f1_3" transform="matrix(15.3,0,0,15.3,1180.5,16.4)"/>
<use xlink:href="#f1_4" transform="matrix(15.3,0,0,15.3,1192.2,16.4)"/>
<use xlink:href="#f1_5" transform="matrix(15.3,0,0,15.3,1205.2,16.4)"/>
<use xlink:href="#f1_6" transform="matrix(15.3,0,0,15.3,1218.3,16.4)"/>
<use xlink:href="#f1_7" transform="matrix(15.3,0,0,15.3,1231.3,16.4)"/>
<use xlink:href="#f1_3" transform="matrix(15.3,0,0,15.3,1244.3,16.4)"/>
<use xlink:href="#f1_8" transform="matrix(15.3,0,0,15.3,1256,16.4)"/>
<use xlink:href="#f1_9" transform="matrix(15.3,0,0,15.3,1154.5,45.7)"/>
</g>
<text clip-path="url(#c1)" x="1150" y="16" class="s2">Occupancy</text>
<g fill="#000000"  clip-path="url(#c1)">
<use xlink:href="#f1_a" transform="matrix(15.3,0,0,15.3,1170.1,45.7)"/>
<use xlink:href="#f1_b" transform="matrix(15.3,0,0,15.3,1177.9,45.7)"/>
<use xlink:href="#f1_c" transform="matrix(15.3,0,0,15.3,1190.9,45.7)"/>
<use xlink:href="#f1_6" transform="matrix(15.3,0,0,15.3,1204,45.7)"/>
<use xlink:href="#f1_c" transform="matrix(15.3,0,0,15.3,1217,45.7)"/>
<use xlink:href="#f1_d" transform="matrix(15.3,0,0,15.3,1230,45.7)"/>
<use xlink:href="#f1_e" transform="matrix(15.3,0,0,15.3,1235.2,45.7)"/>
<use xlink:href="#f1_d" transform="matrix(15.3,0,0,15.3,1240.4,45.7)"/>
<use xlink:href="#f1_f" transform="matrix(15.3,0,0,15.3,1245.6,45.7)"/>
<use xlink:href="#f1_8" transform="matrix(15.3,0,0,15.3,1252.1,45.7)"/>
</g>
<text clip-path="url(#c1)" x="1154" y="45" dx="0,0,0,0,.1,0,0,0,0,0,0" class="s2">Probability</text>
<path d="M639.2,142.1v19.4l87,58V74.4l-87,58.1Z" class="g1"/>
<path d="M697.2,142.1v19.4l-87,58V74.4l87,58.1Z" class="g1"/>
<g fill="#FFFFFF"  clip-path="url(#c1)">
<use xlink:href="#f1_g" transform="matrix(15.3,0,0,15.3,618.7,153.8)"/>
<use xlink:href="#f1_h" transform="matrix(15.3,0,0,15.3,631.7,153.8)"/>
<use xlink:href="#f1_j" transform="matrix(15.3,0,0,15.3,655.1,153.8)"/>
<use xlink:href="#f1_k" transform="matrix(15.3,0,0,15.3,672,153.8)"/>
<use xlink:href="#f1_l" transform="matrix(15.3,0,0,15.3,679.8,153.8)"/>
<use xlink:href="#f1_m" transform="matrix(15.3,0,0,15.3,696.7,153.8)"/>
<use xlink:href="#f1_f" transform="matrix(15.3,0,0,15.3,709.8,153.8)"/>
</g>
<text clip-path="url(#c1)" x="618" y="153" dx="0,0,0,0,0,0,0,.1" class="s2">3D U-Net</text>
<path d="M939.7,71.6h100.9v56.1H939.7Z" class="gq"/>
<path d="M824.3,2.7h136V58.8h-136Z" class="gq"/>
<path d="M1156.1,142.1h33.3" class="gr"/>
<path fill-rule="evenodd" d="M1170.3,133.3l23.9,8.8l-23.9,8.8c3.8,-5.2,3.8,-12.3,0,-17.6Z" class="gs"/>
<path fill-rule="evenodd" d="M1227.5,92.7v-.6h-.1V92h-.5c-1.5,1.7,-3.8,1.7,-4.6,1.7v.7c.5,0,2,0,3.3,-.6v13.1c0,1,0,1.3,-2.3,1.3h-.9v.8c.9,-.1,3.2,-.1,4.2,-.1c1,0,3.2,0,4.1,.1v-.8h-.8c-2.3,0,-2.4,-.3,-2.4,-1.3Z" class="g6"/>
<path fill-rule="evenodd" d="M1230.9,172.5v-1.9l-.1,-.4v-.4l-.1,-.4v-.3l-.1,-.4l-.1,-.4l-.1,-.3l-.1,-.4l-.1,-.4l-.2,-.3v-.2l-.1,-.2c-1.2,-2.4,-3.3,-2.8,-4.3,-2.8c-1.6,0,-3.4,.7,-4.5,3c-.8,1.8,-.9,3.7,-.9,5.8c0,1.9,.1,4.2,1.1,6.1c1.1,2.1,3,2.6,4.2,2.6v-.6c-1,0,-2.5,-.6,-2.9,-3.1c-.3,-1.5,-.3,-3.8,-.3,-5.3c0,-1.7,0,-3.3,.2,-4.7c.5,-3,2.4,-3.3,3,-3.3c.9,0,2.5,.5,3,3c.3,1.5,.3,3.4,.3,5c0,1.9,0,3.6,-.3,5.2c-.4,2.5,-1.8,3.2,-3,3.2v.6c1.4,0,3.3,-.5,4.5,-3c.8,-1.7,.9,-3.7,.9,-5.7Z" class="g6"/>
<path fill-rule="evenodd" d="M964.4,101.4v0l.1,-.1V101c0,-.2,-.2,-.2,-.3,-.2q-.3,0,-.4,.5l-4.2,16.8c-2,-.2,-2.9,-1.2,-2.9,-2.9c0,-.5,0,-1.1,1.4,-4.7c.1,-.3,.2,-.7,.2,-1.2c0,-1.2,-.8,-2.1,-2.1,-2.1c-2.4,0,-3.3,3.6,-3.3,3.9c0,.2,.2,.2,.3,.2c.2,0,.3,0,.4,-.4c.7,-2.4,1.7,-3.2,2.6,-3.2c.2,0,.6,0,.6,.8c0,.7,-.3,1.3,-.6,2.2c-1.2,3.2,-1.2,3.9,-1.2,4.3c0,2.4,2,3.5,4.4,3.6c-.2,.9,-.2,1,-.5,2.4c-.1,.2,-.6,2.3,-.6,2.4c0,0,0,.2,.3,.2c0,0,.2,0,.2,-.1c.1,0,.2,-.7,.3,-1l1,-3.8c.9,0,3.2,0,5.6,-2.7c1,-1.2,1.5,-2.3,1.9,-3.1c.2,-.6,.7,-2.8,.7,-4c0,-1.4,-.7,-1.7,-1.1,-1.7c-.6,0,-1.3,.6,-1.3,1.2c0,.3,.2,.5,.4,.7c.3,.3,.9,.9,.9,2.1c0,1.7,-1.3,3.7,-2.2,4.7c-2.2,2.2,-3.9,2.2,-4.8,2.2Z" class="g6"/>
<path fill-rule="evenodd" d="M978.1,124.5v-.1H978v-.1h-.1v-.1h-.1v-.1l-.1,-.1c-3.2,-3.3,-4.1,-8.1,-4.1,-12c0,-4.4,1,-8.8,4.2,-12c.3,-.3,.3,-.4,.3,-.4c0,-.2,-.1,-.3,-.3,-.3c-.2,0,-2.5,1.8,-4,5c-1.3,2.8,-1.6,5.6,-1.6,7.7c0,2,.3,5.1,1.6,8c1.6,3.1,3.8,4.8,4,4.8c.2,0,.3,-.1,.3,-.3Z" class="g6"/>
<path fill-rule="evenodd" d="M985.2,117.4l.1,.1l.1,.1l.2,.1l.1,.1l.1,.1h.1l.1,.1h.1l.1,.1h.1l.1,.1h.2l.1,.1h.2l.1,.1h.2l.2,.1h1l-.3,-.8c-.3,0,-1.5,0,-2.6,-1.4q-.3,-.4,-.3,-.9V110c0,-.4,0,-.5,.4,-.8c1,-1.1,2.3,-1.2,2.9,-1.2c1.7,0,3.1,1.5,3.1,4.7c0,3.6,-1.8,5,-3.5,5l.3,.8c3.9,0,6.5,-2.2,6.5,-5.8c0,-3.3,-2.4,-5.7,-6,-5.7c-1.9,0,-3.3,.7,-3.9,1.2V107l-4.5,.2v1.2c1.6,0,1.8,0,1.8,.9v12.9h-1.8v1.1c.7,0,2.2,0,3.2,0c1,0,2.5,0,3.2,0v-1.1h-1.7Z" class="g6"/>
<path fill-rule="evenodd" d="M1001,118.4v-.9l-.1,-.1v-.3l-.1,-.1v-.2l-.1,-.1v-.1l-.1,-.1v-.1l-.1,-.1v-.1h-.1l-.1,-.1V116h-.1l-.1,-.1h-.1l-.1,-.1h-.2v-.1h-.3c-.8,0,-1.4,.6,-1.4,1.4c0,.7,.6,1.3,1.4,1.3c.3,0,.6,-.1,.9,-.3c0,-.1,.1,-.1,.1,-.1c0,0,.1,0,.1,.4c0,1.9,-.9,3.4,-1.8,4.2q-.2,.3,-.2,.4c0,.2,.1,.3,.2,.3c.3,0,2.3,-1.9,2.3,-4.9Z" class="g6"/>
<path fill-rule="evenodd" d="M1016,112.1l3,-3.3c.3,-.3,.5,-.5,2.6,-.5v-1.2c-.9,.1,-2.2,.1,-2.4,.1c-.6,0,-1.9,-.1,-2.6,-.1v1.2c.4,0,.7,.1,1,.2q-.1,.2,-.2,.3l-2.2,2.4l-2.5,-2.9h1.1v-1.2c-.7,0,-2.3,.1,-3.1,.1c-.9,0,-2,-.1,-2.8,-.1v1.2h1.8l3.9,4.7l-3.3,3.7c-.4,.5,-1.3,.5,-2.6,.5v1.2c.9,-.1,2.2,-.1,2.4,-.1c.6,0,2.1,.1,2.6,.1v-1.2c-.5,0,-.9,-.1,-.9,-.3l.1,-.2l2.5,-2.8l2.8,3.3h-1v1.2c.7,0,2.2,-.1,3.1,-.1c.8,0,1.9,.1,2.8,.1v-1.2h-1.8Z" class="g6"/>
<path fill-rule="evenodd" d="M1030,112v-1.2l-.1,-.4v-.5l-.1,-.5v-.5l-.1,-.5l-.1,-.5l-.1,-.5l-.2,-.6l-.1,-.5l-.2,-.6l-.2,-.5l-.1,-.3l-.1,-.3l-.1,-.2l-.2,-.3c-1.5,-3.1,-3.7,-4.8,-4,-4.8c-.1,0,-.2,.1,-.2,.3c0,0,0,.1,.5,.6c2.5,2.5,3.9,6.5,3.9,11.8c0,4.4,-.9,8.9,-4.1,12.1q-.3,.3,-.3,.4c0,.2,.1,.3,.2,.3c.3,0,2.6,-1.8,4.1,-5c1.3,-2.8,1.6,-5.6,1.6,-7.8Z" class="g6"/>
<g fill="#000000"  clip-path="url(#c1)">
<use xlink:href="#f1_2" transform="matrix(15.3,0,0,15.3,1036.8,215.8)"/>
<use xlink:href="#f1_3" transform="matrix(15.3,0,0,15.3,1055,215.8)"/>
<use xlink:href="#f1_3" transform="matrix(15.3,0,0,15.3,1066.7,215.8)"/>
<use xlink:href="#f1_4" transform="matrix(15.3,0,0,15.3,1078.4,215.8)"/>
<use xlink:href="#f1_5" transform="matrix(15.3,0,0,15.3,1091.5,215.8)"/>
<use xlink:href="#f1_6" transform="matrix(15.3,0,0,15.3,1104.5,215.8)"/>
<use xlink:href="#f1_7" transform="matrix(15.3,0,0,15.3,1117.5,215.8)"/>
<use xlink:href="#f1_3" transform="matrix(15.3,0,0,15.3,1130.5,215.8)"/>
<use xlink:href="#f1_8" transform="matrix(15.3,0,0,15.3,1142.2,215.8)"/>
<use xlink:href="#f1_l" transform="matrix(15.3,0,0,15.3,1052.4,245.1)"/>
</g>
<text clip-path="url(#c1)" x="1036" y="215" class="s2">Occupancy</text>
<g fill="#000000"  clip-path="url(#c1)">
<use xlink:href="#f1_m" transform="matrix(15.3,0,0,15.3,1069.3,245.1)"/>
<use xlink:href="#f1_f" transform="matrix(15.3,0,0,15.3,1082.4,245.1)"/>
<use xlink:href="#f1_n" transform="matrix(15.3,0,0,15.3,1088.9,245.1)"/>
<use xlink:href="#f1_b" transform="matrix(15.3,0,0,15.3,1105.8,245.1)"/>
<use xlink:href="#f1_a" transform="matrix(15.3,0,0,15.3,1118.8,245.1)"/>
<use xlink:href="#f1_o" transform="matrix(15.3,0,0,15.3,1126.6,245.1)"/>
<use xlink:href="#f1_p" transform="matrix(15.3,0,0,15.3,945.3,92.3)"/>
</g>
<text clip-path="url(#c1)" x="1052" y="245" class="s2">Network</text>
<g fill="#000000"  clip-path="url(#c1)">
<use xlink:href="#f1_m" transform="matrix(15.3,0,0,15.3,959.6,92.3)"/>
<use xlink:href="#f1_6" transform="matrix(15.3,0,0,15.3,972.6,92.3)"/>
<use xlink:href="#f1_f" transform="matrix(15.3,0,0,15.3,985.7,92.3)"/>
<use xlink:href="#f1_4" transform="matrix(15.3,0,0,15.3,992.1,92.3)"/>
<use xlink:href="#f1_a" transform="matrix(15.3,0,0,15.3,1005.2,92.3)"/>
<use xlink:href="#f1_m" transform="matrix(15.3,0,0,15.3,1013,92.3)"/>
<use xlink:href="#f1_q" transform="matrix(15.3,0,0,15.3,1026.1,92.3)"/>
</g>
<text clip-path="url(#c1)" x="945" y="92" dx="0,0,0,0,0,0,0,.1" class="s2">Features</text>
<path fill-rule="evenodd" d="M1124.4,15.8l.1,.1h.1l.1,.1l.1,.1h.1l.1,.1l.1,.1h.1l.1,.1l.1,.1h.1l.2,.1h.2l.1,.1h.2l.1,.1h.4l.6,.1h.4l-.3,-.9c-.4,0,-1.6,0,-2.7,-1.4q-.3,-.3,-.3,-.8V8.4q0,-.5,.4,-.9c1,-1,2.3,-1.2,2.9,-1.2c1.7,0,3.1,1.6,3.1,4.8c0,3.6,-1.8,4.9,-3.4,4.9l.3,.9c3.8,0,6.4,-2.3,6.4,-5.8c0,-3.4,-2.3,-5.8,-6,-5.8c-1.9,0,-3.3,.8,-3.8,1.3V5.3l-4.6,.2V6.7c1.6,0,1.8,0,1.8,1V20.5h-1.8v1.2c.8,0,2.3,-.1,3.3,-.1c1,0,2.5,.1,3.2,.1V20.5h-1.8Z" class="g6"/>
<g fill="#000000"  clip-path="url(#c1)">
<use xlink:href="#f1_g" transform="matrix(15.3,0,0,15.3,987,17.4)"/>
<use xlink:href="#f1_h" transform="matrix(15.3,0,0,15.3,1000,17.4)"/>
<use xlink:href="#f1_r" transform="matrix(15.3,0,0,15.3,1023.4,17.4)"/>
<use xlink:href="#f1_b" transform="matrix(15.3,0,0,15.3,1036.4,17.4)"/>
<use xlink:href="#f1_3" transform="matrix(15.3,0,0,15.3,1049.4,17.4)"/>
<use xlink:href="#f1_6" transform="matrix(15.3,0,0,15.3,1061.2,17.4)"/>
<use xlink:href="#f1_f" transform="matrix(15.3,0,0,15.3,1074.2,17.4)"/>
<use xlink:href="#f1_d" transform="matrix(15.3,0,0,15.3,1080.7,17.4)"/>
<use xlink:href="#f1_b" transform="matrix(15.3,0,0,15.3,1085.9,17.4)"/>
<use xlink:href="#f1_7" transform="matrix(15.3,0,0,15.3,1098.9,17.4)"/>
</g>
<text clip-path="url(#c1)" x="986" y="17" class="s2">3D Location</text>
<path d="M1081.6,24.2v58" class="gr"/>
<path fill-rule="evenodd" d="M1090.5,63.1L1081.7,87l-8.9,-23.9c5.2,3.8,12.4,3.8,17.7,0Z" class="gt"/>
<path d="M832.4,171.1l87.3,-52.7l-58.3,23.7m-29,-48.3l87.3,24.6L861.4,64.8m48.3,29l10,24.6l19,-53.6m-29,106.3l10,-52.7l19,23.7" class="gu"/>
<path d="M1032.1,142.1H985c-36.8,0,-22.8,-24.2,-55.2,-24.2" class="gr"/>
<path fill-rule="evenodd" d="M1013,133.3l23.9,8.8l-23.9,8.8c3.8,-5.2,3.8,-12.3,0,-17.6Z" class="gs"/>
<g fill="#E60000"  clip-path="url(#c1)">
<use xlink:href="#f1_s" transform="matrix(15.3,0,0,15.3,850.6,24.2)"/>
<use xlink:href="#f1_a" transform="matrix(15.3,0,0,15.3,864.1,24.2)"/>
<use xlink:href="#f1_d" transform="matrix(15.3,0,0,15.3,871.9,24.2)"/>
<use xlink:href="#f1_e" transform="matrix(15.3,0,0,15.3,877.1,24.2)"/>
<use xlink:href="#f1_d" transform="matrix(15.3,0,0,15.3,882.3,24.2)"/>
<use xlink:href="#f1_7" transform="matrix(15.3,0,0,15.3,887.5,24.2)"/>
<use xlink:href="#f1_m" transform="matrix(15.3,0,0,15.3,900.5,24.2)"/>
<use xlink:href="#f1_6" transform="matrix(15.3,0,0,15.3,913.6,24.2)"/>
<use xlink:href="#f1_a" transform="matrix(15.3,0,0,15.3,926.6,24.2)"/>
<use xlink:href="#f1_t" transform="matrix(15.3,0,0,15.3,828.1,53.5)"/>
</g>
<text clip-path="url(#c1)" x="850" y="24" dx="0,-.9,0,0,0,.1,0,0,0" class="s2">Trilinear</text>
<g fill="#E60000"  clip-path="url(#c1)">
<use xlink:href="#f1_7" transform="matrix(15.3,0,0,15.3,834.6,53.5)"/>
<use xlink:href="#f1_f" transform="matrix(15.3,0,0,15.3,847.6,53.5)"/>
<use xlink:href="#f1_m" transform="matrix(15.3,0,0,15.3,854.1,53.5)"/>
<use xlink:href="#f1_a" transform="matrix(15.3,0,0,15.3,867.1,53.5)"/>
<use xlink:href="#f1_5" transform="matrix(15.3,0,0,15.3,874.9,53.5)"/>
<use xlink:href="#f1_b" transform="matrix(15.3,0,0,15.3,887.9,53.5)"/>
<use xlink:href="#f1_e" transform="matrix(15.3,0,0,15.3,900.9,53.5)"/>
<use xlink:href="#f1_6" transform="matrix(15.3,0,0,15.3,906.1,53.5)"/>
<use xlink:href="#f1_f" transform="matrix(15.3,0,0,15.3,919.2,53.5)"/>
<use xlink:href="#f1_d" transform="matrix(15.3,0,0,15.3,925.7,53.5)"/>
<use xlink:href="#f1_b" transform="matrix(15.3,0,0,15.3,930.9,53.5)"/>
<use xlink:href="#f1_7" transform="matrix(15.3,0,0,15.3,943.9,53.5)"/>
</g>
<g fill="#000000"  clip-path="url(#c1)">
<use xlink:href="#f1_g" transform="matrix(15.3,0,0,15.3,770.5,276.7)"/>
</g>
<text clip-path="url(#c1)" x="828" y="53" dx="0,0,0,0,0,0,0,0,0,.1,0,0,0" class="s2">Interpolation</text>
<g fill="#000000"  clip-path="url(#c1)">
<use xlink:href="#f1_h" transform="matrix(15.3,0,0,15.3,783.5,276.7)"/>
<use xlink:href="#f1_p" transform="matrix(15.3,0,0,15.3,806.9,276.7)"/>
<use xlink:href="#f1_m" transform="matrix(15.3,0,0,15.3,821.2,276.7)"/>
<use xlink:href="#f1_6" transform="matrix(15.3,0,0,15.3,834.2,276.7)"/>
<use xlink:href="#f1_f" transform="matrix(15.3,0,0,15.3,847.2,276.7)"/>
<use xlink:href="#f1_4" transform="matrix(15.3,0,0,15.3,853.7,276.7)"/>
<use xlink:href="#f1_a" transform="matrix(15.3,0,0,15.3,866.7,276.7)"/>
<use xlink:href="#f1_m" transform="matrix(15.3,0,0,15.3,874.6,276.7)"/>
<use xlink:href="#f1_u" transform="matrix(15.3,0,0,15.3,894.1,276.7)"/>
<use xlink:href="#f1_b" transform="matrix(15.3,0,0,15.3,908.4,276.7)"/>
<use xlink:href="#f1_e" transform="matrix(15.3,0,0,15.3,921.5,276.7)"/>
<use xlink:href="#f1_4" transform="matrix(15.3,0,0,15.3,926.7,276.7)"/>
<use xlink:href="#f1_v" transform="matrix(15.3,0,0,15.3,939.7,276.7)"/>
<use xlink:href="#f1_m" transform="matrix(15.3,0,0,15.3,959.3,276.7)"/>
</g>
<text clip-path="url(#c1)" x="770" y="276" dx="0,0,0,0,0,0,0,0,0,.1,0,0,-1.3,0,0,0,.1" class="s2">3D Feature Volume</text>

</g>

<!-- Any embedded fonts defined here -->
<style type="text/css" ><![CDATA[

@font-face {
	font-family: font000000002487847e_k;
	src: url("fonts/font000000002487847e_k.woff") format("woff");
}

@font-face {
	font-family: font0000000024878527_p;
	src: url("fonts/font0000000024878527_p.woff") format("woff");
}

]]></style>

</svg>
