<?xml version="1.0" encoding="UTF-8" standalone="no"?>
<!-- Created with Inkscape (http://www.inkscape.org/) -->

<svg
   xmlns:dc="http://purl.org/dc/elements/1.1/"
   xmlns:cc="http://creativecommons.org/ns#"
   xmlns:rdf="http://www.w3.org/1999/02/22-rdf-syntax-ns#"
   xmlns:svg="http://www.w3.org/2000/svg"
   xmlns="http://www.w3.org/2000/svg"
   xmlns:sodipodi="http://sodipodi.sourceforge.net/DTD/sodipodi-0.dtd"
   xmlns:inkscape="http://www.inkscape.org/namespaces/inkscape"
   width="25.682289mm"
   height="25.682289mm"
   viewBox="0 0 91.000237 91.000237"
   id="svg4195"
   version="1.1"
   inkscape:version="0.91 r13725"
   sodipodi:docname="plus.svg">
  <defs
     id="defs4197" />
  <sodipodi:namedview
     id="base"
     pagecolor="#ffffff"
     bordercolor="#666666"
     borderopacity="1.0"
     inkscape:pageopacity="0.0"
     inkscape:pageshadow="2"
     inkscape:zoom="0.35"
     inkscape:cx="-1010.9284"
     inkscape:cy="-128.78571"
     inkscape:document-units="px"
     inkscape:current-layer="layer1"
     showgrid="false"
     fit-margin-top="0"
     fit-margin-left="0"
     fit-margin-right="0"
     fit-margin-bottom="0"
     inkscape:window-width="2495"
     inkscape:window-height="1416"
     inkscape:window-x="65"
     inkscape:window-y="24"
     inkscape:window-maximized="1" />
  <metadata
     id="metadata4200">
    <rdf:RDF>
      <cc:Work
         rdf:about="">
        <dc:format>image/svg+xml</dc:format>
        <dc:type
           rdf:resource="http://purl.org/dc/dcmitype/StillImage" />
        <dc:title></dc:title>
      </cc:Work>
    </rdf:RDF>
  </metadata>
  <g
     inkscape:label="Layer 1"
     inkscape:groupmode="layer"
     id="layer1"
     transform="translate(-151.64273,-312.57625)">
    <path
       style="display:inline;fill:#049909;fill-opacity:1;stroke:#000000;stroke-opacity:1"
       inkscape:connector-curvature="0"
       d="m 242.14235,358.07757 c 0,4.35005 -3.52544,7.8754 -7.87796,7.8754 l -29.24751,0 0,29.24811 c 0,4.35123 -3.52661,7.87658 -7.87619,7.87541 -2.17519,0 -4.14404,-0.88016 -5.56797,-2.30484 -1.4257,-1.42664 -2.30705,-3.39446 -2.30608,-5.56841 l -7.5e-4,-29.25144 -29.25103,0 c -2.17381,0 -4.1411,-0.88017 -5.56797,-2.307 -1.42339,-1.42331 -2.30416,-3.39211 -2.30416,-5.56723 -0.001,-4.34928 3.52426,-7.8754 7.8762,-7.8754 l 29.24809,0 0,-29.2485 c 0,-4.35065 3.5274,-7.87717 7.87737,-7.87717 4.34841,10e-4 7.87267,3.52417 7.87503,7.87423 l 0,29.25144 29.25102,0 c 4.3492,0.002 7.87014,3.52612 7.87229,7.8754 z"
       id="path3360" />
  </g>
</svg>
