<?xml version="1.0" encoding="UTF-8" standalone="no"?>
<!DOCTYPE svg PUBLIC "-//W3C//DTD SVG 1.1//EN" "http://www.w3.org/Graphics/SVG/1.1/DTD/svg11.dtd">
<svg xmlns="http://www.w3.org/2000/svg" xmlns:xlink="http://www.w3.org/1999/xlink" version="1.1" width="1200pt" height="742pt" viewBox="0 0 1200 742">
<g enable-background="new">
<clipPath id="cp0">
<path transform="matrix(1,0,0,-1,0,742)" d="M 0 0 L 1200 0 L 1200 742 L 0 742 Z "/>
</clipPath>
<g clip-path="url(#cp0)">
<path transform="matrix(1,0,0,-1,0,742)" d="M 0 742 L 1200 742 L 1200 0 L 0 0 Z " fill="#ffffff"/>
</g>
<clipPath id="cp1">
<path transform="matrix(1,0,0,-1,0,742)" d="M 0 0 L 1200 0 L 1200 742 L 0 742 Z "/>
</clipPath>
<g clip-path="url(#cp1)">
<path transform="matrix(1,0,0,-1,0,742)" d="M 0 742 L 1200 742 L 1200 0 L 0 0 L 0 742 Z " fill="#ffffff"/>
<path transform="matrix(2,0,0,2,0,0)" stroke-width="1" stroke-linecap="butt" stroke-miterlimit="10" stroke-linejoin="miter" fill="none" stroke="#333333" d="M 45.5 312.5 L 581.5 312.5 "/>
<path transform="matrix(2,0,0,2,0,0)" stroke-width="1" stroke-linecap="butt" stroke-miterlimit="10" stroke-linejoin="miter" fill="none" stroke="#cccccc" d="M 45.5 226.5 L 581.5 226.5 "/>
<path transform="matrix(2,0,0,2,0,0)" stroke-width="1" stroke-linecap="butt" stroke-miterlimit="10" stroke-linejoin="miter" fill="none" stroke="#cccccc" d="M 45.5 140.5 L 581.5 140.5 "/>
<path transform="matrix(2,0,0,2,0,0)" stroke-width="1" stroke-linecap="butt" stroke-miterlimit="10" stroke-linejoin="miter" fill="none" stroke="#cccccc" d="M 45.5 53.5 L 581.5 53.5 "/>
</g>
<clipPath id="cp2">
<path transform="matrix(1,0,0,-1,0,742)" d="M 91.1 634.1667 L 1162.9 634.1667 L 1162.9 117.1 L 91.1 117.1 L 91.1 634.1667 Z "/>
</clipPath>
<g clip-path="url(#cp2)">
<clipPath id="cp3">
<path transform="matrix(1,0,0,-1,0,742)" d="M 0 0 L 1200 0 L 1200 742 L 0 742 Z "/>
</clipPath>
<g clip-path="url(#cp3)">
<path transform="matrix(1,0,0,-1,0,742)" d="M 256 116 L 256 116 L 180 116 L 178 116 L 178 118 L 178 128 L 180 128 L 178 128 C 178 131.314 180.6863 134 184 134 L 184 132 L 184 134 L 252 134 L 252 132 L 252 134 C 255.3137 134 258 131.314 258 128 L 256 128 L 258 128 L 258 118 L 258 116 L 256 116 M 256 120 L 256 118 L 254 118 L 254 128 C 254 129.1048 253.1047 130 252 130 L 184 130 C 182.8954 130 182 129.1048 182 128 L 182 118 L 180 118 L 180 120 L 256 120 Z " fill-opacity="0"/>
<path transform="matrix(1,0,0,-1,0,742)" d="M 256 118 L 180 118 L 180 128 C 180 130.2092 181.7909 132 184 132 L 252 132 C 254.2091 132 256 130.2092 256 128 Z " fill="#4285f4"/>
<path transform="matrix(1,0,0,-1,0,742)" d="M 502 116 L 502 116 L 426 116 L 424 116 L 424 118 L 424 252 L 426 252 L 424 252 C 424 255.3137 426.6863 258 430 258 L 430 256 L 430 258 L 498 258 L 498 256 L 498 258 C 501.3137 258 504 255.3137 504 252 L 502 252 L 504 252 L 504 118 L 504 116 L 502 116 M 502 120 L 502 118 L 500 118 L 500 252 C 500 253.1046 499.1046 254 498 254 L 430 254 C 428.8954 254 428 253.1046 428 252 L 428 118 L 426 118 L 426 120 L 502 120 Z " fill-opacity="0"/>
<path transform="matrix(1,0,0,-1,0,742)" d="M 502 118 L 426 118 L 426 252 C 426 254.2091 427.7909 256 430 256 L 498 256 C 500.2091 256 502 254.2091 502 252 Z " fill="#4285f4"/>
<path transform="matrix(1,0,0,-1,0,742)" d="M 748 116 L 748 116 L 672 116 L 670 116 L 670 118 L 670 320 L 672 320 L 670 320 C 670 323.3137 672.686 326 676 326 L 676 324 L 676 326 L 744 326 L 744 324 L 744 326 C 747.314 326 750 323.3137 750 320 L 748 320 L 750 320 L 750 118 L 750 116 L 748 116 M 748 120 L 748 118 L 746 118 L 746 320 C 746 321.1046 745.1048 322 744 322 L 676 322 C 674.8952 322 674 321.1046 674 320 L 674 118 L 672 118 L 672 120 L 748 120 Z " fill-opacity="0"/>
<path transform="matrix(1,0,0,-1,0,742)" d="M 748 118 L 672 118 L 672 320 C 672 322.2091 673.7908 324 676 324 L 744 324 C 746.2092 324 748 322.2091 748 320 Z " fill="#4285f4"/>
<path transform="matrix(1,0,0,-1,0,742)" d="M 994 116 L 994 116 L 918 116 L 916 116 L 916 118 L 916 572 L 918 572 L 916 572 C 916 575.3137 918.686 578 922 578 L 922 576 L 922 578 L 990 578 L 990 576 L 990 578 C 993.314 578 996 575.3137 996 572 L 994 572 L 996 572 L 996 118 L 996 116 L 994 116 M 994 120 L 994 118 L 992 118 L 992 572 C 992 573.1046 991.1048 574 990 574 L 922 574 C 920.8952 574 920 573.1046 920 572 L 920 118 L 918 118 L 918 120 L 994 120 Z " fill-opacity="0"/>
<path transform="matrix(1,0,0,-1,0,742)" d="M 994 118 L 918 118 L 918 572 C 918 574.2091 919.7908 576 922 576 L 990 576 C 992.2092 576 994 574.2091 994 572 Z " fill="#4285f4"/>
</g>
</g>
<clipPath id="cp4">
<path transform="matrix(1,0,0,-1,0,742)" d="M 91.1 634.1667 L 1162.9 634.1667 L 1162.9 117.1 L 91.1 117.1 L 91.1 634.1667 Z "/>
</clipPath>
<g clip-path="url(#cp4)">
<clipPath id="cp5">
<path transform="matrix(1,0,0,-1,0,742)" d="M 0 0 L 1200 0 L 1200 742 L 0 742 Z "/>
</clipPath>
<g clip-path="url(#cp5)">
<path transform="matrix(1,0,0,-1,0,742)" d="M 336 116 L 336 116 L 260 116 L 258 116 L 258 118 L 258 128 L 260 128 L 258 128 C 258 131.314 260.6863 134 264 134 L 264 132 L 264 134 L 332 134 L 332 132 L 332 134 C 335.3137 134 338 131.314 338 128 L 336 128 L 338 128 L 338 118 L 338 116 L 336 116 M 336 120 L 336 118 L 334 118 L 334 128 C 334 129.1048 333.1046 130 332 130 L 264 130 C 262.8954 130 262 129.1048 262 128 L 262 118 L 260 118 L 260 120 L 336 120 Z " fill-opacity="0"/>
<path transform="matrix(1,0,0,-1,0,742)" d="M 336 118 L 260 118 L 260 128 C 260 130.2092 261.7909 132 264 132 L 332 132 C 334.2091 132 336 130.2092 336 128 Z " fill="#6aa84f"/>
<path transform="matrix(1,0,0,-1,0,742)" d="M 582 116 L 582 116 L 506 116 L 504 116 L 504 118 L 504 176 L 506 176 L 504 176 C 504 179.314 506.6863 182 510 182 L 510 180 L 510 182 L 578 182 L 578 180 L 578 182 C 581.3138 182 584 179.314 584 176 L 582 176 L 584 176 L 584 118 L 584 116 L 582 116 M 582 120 L 582 118 L 580 118 L 580 176 C 580 177.1048 579.1047 178 578 178 L 510 178 C 508.8954 178 508 177.1048 508 176 L 508 118 L 506 118 L 506 120 L 582 120 Z " fill-opacity="0"/>
<path transform="matrix(1,0,0,-1,0,742)" d="M 582 118 L 506 118 L 506 176 C 506 178.2092 507.7909 180 510 180 L 578 180 C 580.2092 180 582 178.2092 582 176 Z " fill="#6aa84f"/>
<path transform="matrix(1,0,0,-1,0,742)" d="M 828 116 L 828 116 L 752 116 L 750 116 L 750 118 L 750 122 L 752 122 L 750 122 C 750 125.3138 752.686 128 756 128 L 756 126 L 756 128 L 824 128 L 824 126 L 824 128 C 827.3138 128 830 125.314 830 122 L 828 122 L 830 122 L 830 118 L 830 116 L 828 116 M 828 120 L 828 118 L 826 118 L 826 122 C 826 123.1048 825.1047 124 824 124 L 756 124 C 754.8952 124 754 123.1047 754 122 L 754 118 L 752 118 L 752 120 L 828 120 Z " fill-opacity="0"/>
<path transform="matrix(1,0,0,-1,0,742)" d="M 828 118 L 752 118 L 752 122 C 752 124.2092 753.7908 126 756 126 L 824 126 C 826.2092 126 828 124.2092 828 122 Z " fill="#6aa84f"/>
<path transform="matrix(1,0,0,-1,0,742)" d="M 1074 116 L 1074 116 L 998 116 L 996 116 L 996 118 L 996 472 L 998 472 L 996 472 C 996 475.3137 998.686 478 1002 478 L 1002 476 L 1002 478 L 1070 478 L 1070 476 L 1070 478 C 1073.313 478 1076 475.3137 1076 472 L 1074 472 L 1076 472 L 1076 118 L 1076 116 L 1074 116 M 1074 120 L 1074 118 L 1072 118 L 1072 472 C 1072 473.1046 1071.105 474 1070 474 L 1002 474 C 1000.895 474 1000 473.1046 1000 472 L 1000 118 L 998 118 L 998 120 L 1074 120 Z " fill-opacity="0"/>
<path transform="matrix(1,0,0,-1,0,742)" d="M 1074 118 L 998 118 L 998 472 C 998 474.2091 999.7908 476 1002 476 L 1070 476 C 1072.209 476 1074 474.2091 1074 472 Z " fill="#6aa84f"/>
</g>
</g>
<clipPath id="cp6">
<path transform="matrix(1,0,0,-1,0,742)" d="M 0 0 L 1200 0 L 1200 742 L 0 742 Z "/>
</clipPath>
<g clip-path="url(#cp6)">
<text xml:space="preserve" transform="matrix(2 0 0 2 0 0)" font-size="12" font-family="font0000000026487c26"><tspan y="316.45" x="32.55">0</tspan></text>
<text xml:space="preserve" transform="matrix(2 0 0 2 0 0)" font-size="12" font-family="font0000000026487c26"><tspan y="230.2722" x="32.55">4</tspan></text>
<text xml:space="preserve" transform="matrix(2 0 0 2 0 0)" font-size="12" font-family="font0000000026487c26"><tspan y="144.0945" x="32.55">8</tspan></text>
<text xml:space="preserve" transform="matrix(2 0 0 2 0 0)" font-size="12" font-family="font0000000026487c26"><tspan y="57.91667" x="25.55 32.222">12</tspan></text>
<text xml:space="preserve" transform="matrix(2 0 0 2 0 0)" font-size="14" font-family="font0000000026487c26"><tspan y="332.45" x="102.2069 112.3149 120.09891 123.20691 126.31491 129.42292 136.42292 139.53092 147.31491 155.0989">Collision </tspan></text>
<text xml:space="preserve" transform="matrix(2 0 0 2 0 0)" font-size="14" font-family="font0000000026487c26"><tspan y="349.45" x="91.20689 100.53089 108.314899 116.0989 123.882907 130.8829 134.7609 139.4229 142.5309 150.3149 158.09889">Pedestrians</tspan></text>
<text xml:space="preserve" transform="matrix(2 0 0 2 0 0)" font-size="14" font-family="font0000000026487c26"><tspan y="332.45" x="225.4023 235.5103 243.2943 246.4023 249.5103 252.6183 259.6183 262.7263 270.51029 278.29429">Collision </tspan></text>
<text xml:space="preserve" transform="matrix(2 0 0 2 0 0)" font-size="14" font-family="font0000000026487c26"><tspan y="349.45" x="225.4023 234.72629 242.51029 250.29428 253.40229 260.40229 263.51029 271.29429">Vehicles</tspan></text>
<text xml:space="preserve" transform="matrix(2 0 0 2 0 0)" font-size="14" font-family="font0000000026487c26"><tspan y="332.45" x="348.5977 358.7057 366.4897 369.5977 372.7057 375.8137 382.8137 385.9217 393.7057 401.4897">Collision </tspan></text>
<text xml:space="preserve" transform="matrix(2 0 0 2 0 0)" font-size="14" font-family="font0000000026487c26"><tspan y="349.45" x="353.5977 361.38169 369.16569 376.16569 383.94969 391.73368">Layout</tspan></text>
<text xml:space="preserve" transform="matrix(2 0 0 2 0 0)" font-size="14" font-family="font0000000026487c26"><tspan y="332.45" x="467.7931 477.9011 485.6851 493.4691 497.34709 505.13108 508.23908 516.0231 523.80709 527.6851">Red Light </tspan></text>
<text xml:space="preserve" transform="matrix(2 0 0 2 0 0)" font-size="14" font-family="font0000000026487c26"><tspan y="349.45" x="471.2931 480.6171 483.7251 491.5091 494.6171 502.4011 506.27909 509.3871 517.1711">Violation</tspan></text>
<path transform="matrix(1,0,0,-1,0,742)" d="M 357 698.9 C 357 700.0046 357.8954 700.9 359 700.9 L 379 700.9 C 380.1046 700.9 381 700.0046 381 698.9 L 381 678.9 C 381 677.7954 380.1046 676.9 379 676.9 L 359 676.9 C 357.8954 676.9 357 677.7954 357 678.9 Z " fill="#4285f4"/>
<text xml:space="preserve" transform="matrix(2 0 0 2 0 0)" font-size="14" font-family="font0000000026487c26"><tspan y="31.55" x="198.5 209.37799 217.16199 224.94599 236.60799 244.39199 248.26998 252.93198 256.03999 263.03999 266.91798 275.45796 283.24195 290.24195 293.34996 301.13395">Geometric Fusion</tspan></text>
<path transform="matrix(1,0,0,-1,0,742)" d="M 655 698.9 C 655 700.0046 655.8954 700.9 657 700.9 L 677 700.9 C 678.1046 700.9 679 700.0046 679 698.9 L 679 678.9 C 679 677.7954 678.1046 676.9 677 676.9 L 657 676.9 C 655.8954 676.9 655 677.7954 655 678.9 Z " fill="#6aa84f"/>
<text xml:space="preserve" transform="matrix(2 0 0 2 0 0)" font-size="14" font-family="font0000000026487c26"><tspan y="31.55" x="347.5 356.03999 360.70198 368.48597 376.26997 383.26997 391.80995 399.59394 406.59394 414.37794">TransFuser</tspan></text>
</g>
<path transform="matrix(1,0,0,-1,0,742)" d="M 551 253 L 551.0001 204 L 545.0001 204 L 545 253 Z M 557.0001 207 L 548.0001 189 L 539.0001 207 Z " fill="#ff0000"/>
<path transform="matrix(1,0,0,-1,0,742)" d="M 795 318 L 795.0001 154.5397 L 789.0001 154.5397 L 789 318 Z M 801.0001 157.5397 L 792.0001 139.5397 L 783.0001 157.5397 Z " fill="#ff0000"/>
<path transform="matrix(1,0,0,-1,0,742)" d="M 1040 570 L 1040 512.1672 L 1034 512.1672 L 1034 570 Z M 1046 515.1673 L 1037 497.1672 L 1028 515.1672 Z " fill="#ff0000"/>
<path transform="matrix(1,0,0,-1,0,742)" d="M 498.703 289.47 L 508.4237 289.47 L 508.4237 286.2884 L 498.703 286.2884 Z " fill-rule="evenodd"/>
<path transform="matrix(1,0,0,1,497.5604,463.446)" stroke-width="1" stroke-linecap="butt" stroke-linejoin="round" fill="none" stroke="#ff0000" d="M 1.142578 -10.91602 L 10.86328 -10.91602 L 10.86328 -7.734375 L 1.142578 -7.734375 Z "/>
<path transform="matrix(1,0,0,-1,0,742)" d="M 593.8358 289.0482 C 593.0389 289.0482 592.3797 288.7083 591.8582 288.0286 C 591.3367 287.3489 591.076 286.1009 591.076 284.2845 C 591.076 282.6439 591.3397 281.4837 591.867 280.804 C 592.3943 280.1243 593.0447 279.7845 593.8182 279.7845 C 594.6268 279.7845 595.2918 280.1243 595.8133 280.804 C 596.3348 281.4837 596.5955 282.7259 596.5955 284.5306 C 596.5955 286.1946 596.3318 287.3636 595.8045 288.0374 C 595.2772 288.7112 594.6209 289.0482 593.8358 289.0482 Z M 593.7479 291.2278 C 595.3651 291.2278 596.7039 290.6507 597.7645 289.4964 C 598.825 288.3421 599.3553 286.6458 599.3553 284.4075 C 599.3553 282.2278 598.8192 280.5491 597.7469 279.3714 C 596.6746 278.1937 595.3475 277.6048 593.7654 277.6048 C 592.2068 277.6048 590.909 278.1878 589.8719 279.3538 C 588.8348 280.5198 588.3162 282.2689 588.3162 284.6009 C 588.3162 286.4525 588.7791 288.0198 589.7049 289.303 C 590.6307 290.5862 591.9783 291.2278 593.7479 291.2278 Z M 577.1541 302.5833 C 576.369 302.5833 575.7156 302.2435 575.1942 301.5638 C 574.6727 300.8841 574.4119 299.636 574.4119 297.8196 C 574.4119 296.1673 574.6756 295.0042 575.2029 294.3304 C 575.7303 293.6566 576.3807 293.3196 577.1541 293.3196 C 577.951 293.3196 578.6102 293.6595 579.1317 294.3392 C 579.6531 295.0189 579.9139 296.261 579.9139 298.0657 C 579.9139 299.7298 579.6502 300.8987 579.1229 301.5726 C 578.5955 302.2464 577.9393 302.5833 577.1541 302.5833 Z M 544.1131 303.972 L 556.9276 303.972 L 556.9276 300.9485 L 546.6444 300.9485 L 545.2557 294.0228 C 546.8026 295.1009 548.4256 295.64 550.1248 295.64 C 552.3748 295.64 554.2733 294.8607 555.8201 293.3021 C 557.367 291.7435 558.1404 289.7396 558.1404 287.2903 C 558.1404 284.9583 557.4608 282.9427 556.1014 281.2435 C 554.449 279.1575 552.1932 278.1146 549.3338 278.1146 C 546.9901 278.1146 545.077 278.7708 543.5945 280.0833 C 542.1121 281.3958 541.2654 283.136 541.0545 285.304 L 544.3768 285.5853 C 544.6229 283.9681 545.1942 282.7523 546.0906 281.9378 C 546.9871 281.1234 548.0682 280.7161 549.3338 280.7161 C 550.8572 280.7161 552.1463 281.2903 553.201 282.4388 C 554.2557 283.5872 554.783 285.1107 554.783 287.0091 C 554.783 288.8138 554.2762 290.2376 553.2625 291.2806 C 552.2488 292.3235 550.9217 292.845 549.2811 292.845 C 548.2615 292.845 547.3416 292.6136 546.5213 292.1507 C 545.701 291.6878 545.0565 291.0872 544.5877 290.3489 L 541.617 290.7357 Z M 524.1131 303.972 L 536.9276 303.972 L 536.9276 300.9485 L 526.6444 300.9485 L 525.2557 294.0228 C 526.8026 295.1009 528.4256 295.64 530.1248 295.64 C 532.3748 295.64 534.2733 294.8607 535.8201 293.3021 C 537.367 291.7435 538.1404 289.7396 538.1404 287.2903 C 538.1404 284.9583 537.4608 282.9427 536.1014 281.2435 C 534.449 279.1575 532.1932 278.1146 529.3338 278.1146 C 526.9901 278.1146 525.077 278.7708 523.5945 280.0833 C 522.1121 281.3958 521.2654 283.136 521.0545 285.304 L 524.3768 285.5853 C 524.6229 283.9681 525.1942 282.7523 526.0906 281.9378 C 526.9871 281.1234 528.0682 280.7161 529.3338 280.7161 C 530.8572 280.7161 532.1463 281.2903 533.201 282.4388 C 534.2557 283.5872 534.783 285.1107 534.783 287.0091 C 534.783 288.8138 534.2762 290.2376 533.2625 291.2806 C 532.2488 292.3235 530.9217 292.845 529.2811 292.845 C 528.2615 292.845 527.3416 292.6136 526.5213 292.1507 C 525.701 291.6878 525.0565 291.0872 524.5877 290.3489 L 521.617 290.7357 Z M 591.2693 304.763 L 593.8358 304.763 L 579.7908 277.6048 L 577.1717 277.6048 Z M 577.0662 304.763 C 578.6834 304.763 580.0223 304.1859 581.0828 303.0316 C 582.1434 301.8773 582.6736 300.181 582.6736 297.9427 C 582.6736 295.763 582.1375 294.0843 581.0653 292.9066 C 579.993 291.7288 578.6717 291.14 577.1014 291.14 C 575.5428 291.14 574.2449 291.72 573.2078 292.8802 C 572.1707 294.0403 571.6522 295.7923 571.6522 298.136 C 571.6522 299.9759 572.1151 301.5403 573.0408 302.8294 C 573.9666 304.1185 575.3084 304.763 577.0662 304.763 Z " fill-rule="evenodd"/>
<path transform="matrix(1,0,0,1,519.5604,463.446)" stroke-width="1" stroke-linecap="butt" stroke-linejoin="round" fill="none" stroke="#ff0000" d="M 74.27539 -10.49414 C 73.47851 -10.49414 72.81933 -10.1543 72.29785 -9.474609 C 71.77637 -8.794922 71.51562 -7.546875 71.51562 -5.730469 C 71.51562 -4.089844 71.7793 -2.929687 72.30664 -2.25 C 72.83398 -1.570312 73.48438 -1.230469 74.25781 -1.230469 C 75.06641 -1.230469 75.73144 -1.570312 76.25293 -2.25 C 76.77441 -2.929687 77.03516 -4.171875 77.03516 -5.976562 C 77.03516 -7.640625 76.77148 -8.80957 76.24414 -9.483398 C 75.7168 -10.15723 75.06054 -10.49414 74.27539 -10.49414 Z M 74.1875 -12.67383 C 75.80469 -12.67383 77.14355 -12.09668 78.2041 -10.94238 C 79.26464 -9.788086 79.79492 -8.091797 79.79492 -5.853516 C 79.79492 -3.673828 79.25879 -1.995117 78.18652 -.8173827 C 77.11426 .3603515 75.78711 .9492185 74.20508 .9492189 C 72.64648 .9492185 71.34863 .366211 70.31152 -.7998046 C 69.27441 -1.96582 68.75586 -3.714844 68.75586 -6.046875 C 68.75586 -7.898437 69.21875 -9.46582 70.14453 -10.74902 C 71.07031 -12.03223 72.41797 -12.67383 74.1875 -12.67383 Z M 57.59375 -24.0293 C 56.80859 -24.0293 56.15528 -23.68945 55.63379 -23.00977 C 55.1123 -22.33008 54.85156 -21.08203 54.85157 -19.26562 C 54.85156 -17.61328 55.11523 -16.4502 55.64258 -15.77637 C 56.16992 -15.10254 56.82031 -14.76562 57.59375 -14.76562 C 58.39062 -14.76562 59.0498 -15.10547 59.57129 -15.78516 C 60.09277 -16.46484 60.35352 -17.70703 60.35352 -19.51172 C 60.35352 -21.17578 60.08984 -22.34473 59.5625 -23.01855 C 59.03516 -23.69238 58.37891 -24.0293 57.59375 -24.0293 Z M 24.55274 -25.41797 L 37.36719 -25.41797 L 37.36719 -22.39453 L 27.08399 -22.39453 L 25.69531 -15.46875 C 27.24219 -16.54687 28.86524 -17.08594 30.56446 -17.08594 C 32.81445 -17.08594 34.71289 -16.30664 36.25977 -14.74805 C 37.80664 -13.18945 38.58008 -11.18555 38.58008 -8.736328 C 38.58008 -6.404296 37.90039 -4.388672 36.54102 -2.689453 C 34.88867 -.6035156 32.63281 .4394532 29.77344 .4394532 C 27.42969 .4394532 25.5166 -.216797 24.03418 -1.529297 C 22.55176 -2.841797 21.70508 -4.582031 21.49414 -6.75 L 24.81641 -7.03125 C 25.0625 -5.414062 25.63379 -4.198242 26.53027 -3.383789 C 27.42676 -2.569336 28.50781 -2.162109 29.77344 -2.162109 C 31.29688 -2.162109 32.58594 -2.736328 33.64062 -3.884766 C 34.69531 -5.033203 35.22266 -6.556641 35.22266 -8.455078 C 35.22266 -10.25976 34.71582 -11.68359 33.70215 -12.72656 C 32.68848 -13.76953 31.36133 -14.29101 29.7207 -14.29101 C 28.70117 -14.29101 27.78125 -14.05957 26.96094 -13.59668 C 26.14062 -13.13379 25.49609 -12.5332 25.02735 -11.79492 L 22.05664 -12.18164 Z M 4.552736 -25.41797 L 17.36719 -25.41797 L 17.36719 -22.39453 L 7.083986 -22.39453 L 5.695313 -15.46875 C 7.242188 -16.54687 8.865236 -17.08594 10.56446 -17.08594 C 12.81445 -17.08594 14.71289 -16.30664 16.25977 -14.74805 C 17.80664 -13.18945 18.58008 -11.18555 18.58008 -8.736328 C 18.58008 -6.404296 17.90039 -4.388672 16.54102 -2.689453 C 14.88867 -.6035156 12.63281 .4394532 9.773438 .4394532 C 7.429689 .4394532 5.516602 -.216797 4.03418 -1.529297 C 2.551759 -2.841797 1.705079 -4.582031 1.494142 -6.75 L 4.816408 -7.03125 C 5.062501 -5.414062 5.63379 -4.198242 6.530274 -3.383789 C 7.426759 -2.569336 8.507813 -2.162109 9.773438 -2.162109 C 11.29688 -2.162109 12.58594 -2.736328 13.64063 -3.884766 C 14.69531 -5.033203 15.22266 -6.556641 15.22266 -8.455078 C 15.22266 -10.25976 14.71582 -11.68359 13.70215 -12.72656 C 12.68848 -13.76953 11.36133 -14.29101 9.720704 -14.29101 C 8.701173 -14.29101 7.781252 -14.05957 6.960938 -13.59668 C 6.140626 -13.13379 5.496095 -12.5332 5.027345 -11.79492 L 2.056642 -12.18164 Z M 71.70898 -26.20898 L 74.27539 -26.20898 L 60.23047 .9492189 L 57.61133 .9492189 Z M 57.50586 -26.20898 C 59.12305 -26.20898 60.46191 -25.63184 61.52246 -24.47754 C 62.58301 -23.32324 63.11329 -21.62695 63.11329 -19.38867 C 63.11329 -17.20898 62.57715 -15.53027 61.50489 -14.35254 C 60.43262 -13.1748 59.11133 -12.58594 57.54102 -12.58594 C 55.98242 -12.58594 54.68457 -13.16601 53.64746 -14.32617 C 52.61036 -15.48633 52.0918 -17.23828 52.0918 -19.58203 C 52.0918 -21.42188 52.55469 -22.98633 53.48047 -24.27539 C 54.40625 -25.56445 55.74805 -26.20898 57.50586 -26.20898 Z "/>
<path transform="matrix(1,0,0,-1,0,742)" d="M 740.5471 355.8883 L 750.2678 355.8883 L 750.2678 352.7067 L 740.5471 352.7067 Z " fill-rule="evenodd"/>
<path transform="matrix(1,0,0,1,739.4045,397.0277)" stroke-width="1" stroke-linecap="butt" stroke-linejoin="round" fill="none" stroke="#ff0000" d="M 1.142578 -10.91602 L 10.86328 -10.91602 L 10.86328 -7.734375 L 1.142578 -7.734375 Z "/>
<path transform="matrix(1,0,0,-1,0,742)" d="M 835.6799 355.4664 C 834.883 355.4664 834.2238 355.1266 833.7023 354.4469 C 833.1808 353.7672 832.9201 352.5192 832.9201 350.7028 C 832.9201 349.0621 833.1838 347.902 833.7111 347.2223 C 834.2385 346.5426 834.8889 346.2028 835.6623 346.2028 C 836.4709 346.2028 837.1359 346.5426 837.6574 347.2223 C 838.1789 347.902 838.4396 349.1442 838.4396 350.9489 C 838.4396 352.6129 838.176 353.7819 837.6486 354.4557 C 837.1213 355.1295 836.465 355.4664 835.6799 355.4664 Z M 835.592 357.6461 C 837.2092 357.6461 838.548 357.069 839.6086 355.9147 C 840.6691 354.7604 841.1994 353.0641 841.1994 350.8258 C 841.1994 348.6461 840.6633 346.9674 839.591 345.7897 C 838.5187 344.6119 837.1916 344.0231 835.6096 344.0231 C 834.051 344.0231 832.7531 344.6061 831.716 345.7721 C 830.6789 346.9381 830.1603 348.6871 830.1603 351.0192 C 830.1603 352.8707 830.6232 354.4381 831.549 355.7213 C 832.4748 357.0045 833.8224 357.6461 835.592 357.6461 Z M 791.5295 358.8942 C 790.0998 358.8942 788.8869 358.3815 787.8908 357.3561 C 786.8947 356.3307 786.3967 354.986 786.3967 353.3219 C 786.3967 352.2321 786.6281 351.1891 787.091 350.193 C 787.5539 349.1969 788.2014 348.4381 789.0334 347.9166 C 789.8654 347.3951 790.7385 347.1344 791.6525 347.1344 C 792.9885 347.1344 794.1369 347.6735 795.0978 348.7516 C 796.0588 349.8297 796.5392 351.2946 796.5392 353.1461 C 796.5392 354.9274 796.0646 356.3307 795.1154 357.3561 C 794.1662 358.3815 792.9709 358.8942 791.5295 358.8942 Z M 771.3889 368.2281 C 769.9826 368.2281 768.758 367.6539 767.715 366.5055 C 766.6721 365.3571 766.1506 363.8688 766.1506 362.0406 C 766.1506 360.4 766.6457 359.067 767.6359 358.0416 C 768.6262 357.0162 769.8478 356.5035 771.301 356.5035 C 772.7658 356.5035 773.9699 357.0162 774.9133 358.0416 C 775.8566 359.067 776.3283 360.4879 776.3283 362.3043 C 776.3283 364.1207 775.8449 365.5621 774.8781 366.6285 C 773.9113 367.6949 772.7482 368.2281 771.3889 368.2281 Z M 818.9982 369.0016 C 818.2131 369.0016 817.5598 368.6617 817.0383 367.9821 C 816.5168 367.3024 816.256 366.0543 816.256 364.2379 C 816.256 362.5856 816.5197 361.4225 817.0471 360.7487 C 817.5744 360.0748 818.2248 359.7379 818.9982 359.7379 C 819.7951 359.7379 820.4543 360.0778 820.9758 360.7574 C 821.4973 361.4371 821.758 362.6793 821.758 364.484 C 821.758 366.1481 821.4943 367.317 820.967 367.9908 C 820.4396 368.6647 819.7834 369.0016 818.9982 369.0016 Z M 792.0041 370.8473 C 794.0314 370.8473 795.6926 370.2789 796.9875 369.1422 C 798.2824 368.0055 799.0588 366.4352 799.3166 364.4313 L 796.1701 364.1852 C 795.8889 365.4274 795.4904 366.3297 794.9748 366.8922 C 794.1193 367.7946 793.0646 368.2457 791.8107 368.2457 C 790.8029 368.2457 789.9182 367.9645 789.1564 367.402 C 788.1603 366.6754 787.3752 365.6149 786.801 364.2203 C 786.2267 362.8258 785.9279 360.8395 785.9045 358.2614 C 786.6662 359.4215 787.5978 360.2828 788.6994 360.8453 C 789.801 361.4078 790.9553 361.6891 792.1623 361.6891 C 794.2717 361.6891 796.0676 360.9127 797.55 359.36 C 799.0324 357.8072 799.7736 355.8004 799.7736 353.3395 C 799.7736 351.7223 799.425 350.2194 798.7277 348.8307 C 798.0305 347.442 797.0724 346.3785 795.8537 345.6403 C 794.6349 344.902 793.2521 344.5328 791.7053 344.5328 C 789.0685 344.5328 786.9182 345.5026 785.2541 347.442 C 783.59 349.3815 782.758 352.5778 782.758 357.0309 C 782.758 362.0114 783.6779 365.6324 785.5178 367.8942 C 787.1232 369.8629 789.2853 370.8473 792.0041 370.8473 Z M 771.0021 370.8473 C 772.6779 370.8473 774.2101 370.3961 775.5988 369.4938 C 776.9875 368.5914 778.0422 367.3053 778.7629 365.6354 C 779.4836 363.9655 779.8439 361.5485 779.8439 358.3844 C 779.8439 355.0914 779.4865 352.4694 778.7717 350.5182 C 778.0568 348.567 776.9933 347.0817 775.5812 346.0621 C 774.1691 345.0426 772.5139 344.5328 770.6154 344.5328 C 768.5998 344.5328 766.9533 345.0924 765.676 346.2115 C 764.3986 347.3307 763.631 348.9039 763.3732 350.9313 L 766.4142 351.2125 C 766.6721 349.7828 767.1642 348.7457 767.8908 348.1012 C 768.6174 347.4567 769.549 347.1344 770.6857 347.1344 C 771.6584 347.1344 772.5109 347.3571 773.2433 347.8024 C 773.9758 348.2477 774.5764 348.8424 775.0451 349.5865 C 775.5139 350.3307 775.9064 351.3356 776.2228 352.6012 C 776.5392 353.8668 776.6974 355.1559 776.6974 356.4684 C 776.6974 356.609 776.6916 356.8199 776.6799 357.1012 C 776.0471 356.0934 775.1828 355.276 774.0871 354.649 C 772.9914 354.0221 771.8049 353.7086 770.5275 353.7086 C 768.3947 353.7086 766.59 354.4821 765.1135 356.0289 C 763.6369 357.5758 762.8986 359.6149 762.8986 362.1461 C 762.8986 364.7594 763.6691 366.8629 765.2101 368.4567 C 766.7512 370.0504 768.6818 370.8473 771.0021 370.8473 Z M 833.1135 371.1813 L 835.6799 371.1813 L 821.635 344.0231 L 819.0158 344.0231 Z M 818.9103 371.1813 C 820.5275 371.1813 821.8664 370.6041 822.9269 369.4498 C 823.9875 368.2955 824.5178 366.5992 824.5178 364.361 C 824.5178 362.1813 823.9816 360.5026 822.9094 359.3248 C 821.8371 358.1471 820.5158 357.5582 818.9455 357.5582 C 817.3869 357.5582 816.0891 358.1383 815.0519 359.2985 C 814.0148 360.4586 813.4963 362.2106 813.4963 364.5543 C 813.4963 366.3942 813.9592 367.9586 814.885 369.2477 C 815.8107 370.5367 817.1525 371.1813 818.9103 371.1813 Z " fill-rule="evenodd"/>
<path transform="matrix(1,0,0,1,761.4045,397.0277)" stroke-width="1" stroke-linecap="butt" stroke-linejoin="round" fill="none" stroke="#ff0000" d="M 74.27539 -10.49414 C 73.47851 -10.49414 72.81933 -10.1543 72.29785 -9.474609 C 71.77637 -8.794922 71.51562 -7.546875 71.51562 -5.730469 C 71.51562 -4.089844 71.7793 -2.929687 72.30664 -2.25 C 72.83398 -1.570312 73.48438 -1.230469 74.25781 -1.230469 C 75.06641 -1.230469 75.73144 -1.570312 76.25293 -2.25 C 76.77441 -2.929687 77.03516 -4.171875 77.03516 -5.976562 C 77.03516 -7.640625 76.77148 -8.80957 76.24414 -9.483398 C 75.7168 -10.15723 75.06054 -10.49414 74.27539 -10.49414 Z M 74.1875 -12.67383 C 75.80469 -12.67383 77.14355 -12.09668 78.2041 -10.94238 C 79.26464 -9.788086 79.79492 -8.091797 79.79492 -5.853516 C 79.79492 -3.673828 79.25879 -1.995117 78.18652 -.8173827 C 77.11426 .3603515 75.78711 .9492185 74.20508 .9492189 C 72.64648 .9492185 71.34863 .366211 70.31152 -.7998046 C 69.27441 -1.96582 68.75586 -3.714844 68.75586 -6.046875 C 68.75586 -7.898437 69.21875 -9.46582 70.14453 -10.74902 C 71.07031 -12.03223 72.41797 -12.67383 74.1875 -12.67383 Z M 30.125 -13.92188 C 28.69531 -13.92187 27.48242 -13.40918 26.48633 -12.38379 C 25.49023 -11.3584 24.99219 -10.01367 24.99219 -8.349609 C 24.99219 -7.259766 25.22363 -6.216797 25.68653 -5.220703 C 26.14941 -4.224609 26.79688 -3.46582 27.62891 -2.944336 C 28.46094 -2.422851 29.33399 -2.162109 30.24805 -2.162109 C 31.58399 -2.162109 32.73242 -2.701172 33.69336 -3.779297 C 34.6543 -4.857421 35.13477 -6.322266 35.13477 -8.173828 C 35.13477 -9.955078 34.66016 -11.3584 33.71094 -12.38379 C 32.76172 -13.40918 31.5664 -13.92187 30.125 -13.92188 Z M 9.984376 -23.25586 C 8.578126 -23.25586 7.353517 -22.68164 6.310548 -21.5332 C 5.267579 -20.38477 4.746095 -18.89648 4.746095 -17.06836 C 4.746095 -15.42773 5.241212 -14.09472 6.231446 -13.06933 C 7.221681 -12.04394 8.44336 -11.53125 9.896485 -11.53125 C 11.36133 -11.53125 12.56543 -12.04394 13.50879 -13.06933 C 14.45215 -14.09472 14.92383 -15.51562 14.92383 -17.33203 C 14.92383 -19.14844 14.44043 -20.58984 13.47363 -21.65625 C 12.50684 -22.72266 11.34375 -23.25586 9.984376 -23.25586 Z M 57.59375 -24.0293 C 56.80859 -24.0293 56.15528 -23.68945 55.63379 -23.00977 C 55.1123 -22.33008 54.85156 -21.08203 54.85157 -19.26562 C 54.85156 -17.61328 55.11523 -16.4502 55.64258 -15.77637 C 56.16992 -15.10254 56.82031 -14.76562 57.59375 -14.76562 C 58.39062 -14.76562 59.0498 -15.10547 59.57129 -15.78516 C 60.09277 -16.46484 60.35352 -17.70703 60.35352 -19.51172 C 60.35352 -21.17578 60.08984 -22.34473 59.5625 -23.01855 C 59.03516 -23.69238 58.37891 -24.0293 57.59375 -24.0293 Z M 30.59961 -25.875 C 32.62695 -25.875 34.28809 -25.30664 35.58301 -24.16992 C 36.87793 -23.0332 37.6543 -21.46289 37.91211 -19.45898 L 34.76562 -19.21289 C 34.48438 -20.45508 34.08594 -21.35742 33.57031 -21.91992 C 32.71484 -22.82226 31.66016 -23.27344 30.40625 -23.27344 C 29.39844 -23.27344 28.51367 -22.99219 27.75195 -22.42969 C 26.75586 -21.70312 25.9707 -20.64258 25.39648 -19.24805 C 24.82227 -17.85352 24.52344 -15.86719 24.5 -13.28906 C 25.26172 -14.44922 26.19336 -15.31054 27.29492 -15.87305 C 28.39649 -16.43554 29.55078 -16.71679 30.75781 -16.7168 C 32.86719 -16.71679 34.66309 -15.94043 36.14551 -14.38769 C 37.62793 -12.83496 38.36914 -10.82812 38.36914 -8.367188 C 38.36914 -6.75 38.02051 -5.24707 37.32324 -3.858399 C 36.62598 -2.469727 35.66797 -1.40625 34.44922 -.6679688 C 33.23047 .07031265 31.84766 .4394532 30.30078 .4394532 C 27.66406 .4394532 25.51367 -.5302734 23.84961 -2.469727 C 22.18555 -4.409179 21.35352 -7.605469 21.35352 -12.05859 C 21.35352 -17.03906 22.27344 -20.66015 24.11328 -22.92188 C 25.71875 -24.89062 27.88086 -25.875 30.59961 -25.875 Z M 9.597657 -25.875 C 11.27344 -25.875 12.80567 -25.42383 14.19434 -24.52148 C 15.58301 -23.61914 16.6377 -22.33301 17.3584 -20.66309 C 18.0791 -18.99316 18.43946 -16.57617 18.43946 -13.41211 C 18.43946 -10.11914 18.08203 -7.49707 17.36719 -5.545898 C 16.65234 -3.594726 15.58887 -2.109375 14.17676 -1.089844 C 12.76465 -.07031265 11.10938 .4394532 9.210939 .4394532 C 7.195314 .4394532 5.54883 -.1201173 4.271485 -1.239258 C 2.994141 -2.358398 2.226564 -3.93164 1.968751 -5.958984 L 5.009767 -6.240234 C 5.267579 -4.810547 5.759767 -3.773438 6.486329 -3.128906 C 7.212891 -2.484375 8.144532 -2.162109 9.281251 -2.162109 C 10.25391 -2.162109 11.10645 -2.384765 11.83887 -2.830078 C 12.57129 -3.275391 13.17188 -3.870117 13.64063 -4.614258 C 14.10938 -5.358398 14.50195 -6.363281 14.81836 -7.628906 C 15.13477 -8.894531 15.29297 -10.18359 15.29297 -11.49609 C 15.29297 -11.63672 15.28711 -11.84766 15.27539 -12.12891 C 14.64258 -11.12109 13.77832 -10.30371 12.68262 -9.676758 C 11.58691 -9.049805 10.40039 -8.736328 9.123049 -8.736328 C 6.990236 -8.736328 5.185548 -9.509766 3.708986 -11.05664 C 2.232423 -12.60352 1.494142 -14.64258 1.494142 -17.17383 C 1.494142 -19.78711 2.26465 -21.89062 3.805665 -23.48438 C 5.346681 -25.07812 7.277345 -25.875 9.597657 -25.875 Z M 71.70898 -26.20898 L 74.27539 -26.20898 L 60.23047 .9492189 L 57.61133 .9492189 Z M 57.50586 -26.20898 C 59.12305 -26.20898 60.46191 -25.63184 61.52246 -24.47754 C 62.58301 -23.32324 63.11329 -21.62695 63.11329 -19.38867 C 63.11329 -17.20898 62.57715 -15.53027 61.50489 -14.35254 C 60.43262 -13.1748 59.11133 -12.58594 57.54102 -12.58594 C 55.98242 -12.58594 54.68457 -13.16601 53.64746 -14.32617 C 52.61036 -15.48633 52.0918 -17.23828 52.0918 -19.58203 C 52.0918 -21.42188 52.55469 -22.98633 53.48047 -24.27539 C 54.40625 -25.56445 55.74805 -26.20898 57.50586 -26.20898 Z "/>
<path transform="matrix(1,0,0,-1,0,742)" d="M 985.8804 610.7307 L 995.6011 610.7307 L 995.6011 607.5491 L 985.8804 607.5491 Z " fill-rule="evenodd"/>
<path transform="matrix(1,0,0,1,984.7379,142.1853)" stroke-width="1" stroke-linecap="butt" stroke-linejoin="round" fill="none" stroke="#ff0000" d="M 1.142578 -10.91602 L 10.86328 -10.91602 L 10.86328 -7.734375 L 1.142578 -7.734375 Z "/>
<path transform="matrix(1,0,0,-1,0,742)" d="M 1081.013 610.3089 C 1080.216 610.3089 1079.557 609.969 1079.036 609.2893 C 1078.514 608.6096 1078.253 607.3616 1078.253 605.5452 C 1078.253 603.9046 1078.517 602.7444 1079.044 602.0647 C 1079.572 601.385 1080.222 601.0452 1080.996 601.0452 C 1081.804 601.0452 1082.469 601.385 1082.991 602.0647 C 1083.512 602.7444 1083.773 603.9866 1083.773 605.7913 C 1083.773 607.4554 1083.509 608.6243 1082.982 609.2981 C 1082.455 609.972 1081.798 610.3089 1081.013 610.3089 Z M 1080.925 612.4886 C 1082.543 612.4886 1083.881 611.9114 1084.942 610.7571 C 1086.002 609.6028 1086.533 607.9065 1086.533 605.6682 C 1086.533 603.4886 1085.997 601.8098 1084.924 600.6321 C 1083.852 599.4544 1082.525 598.8655 1080.943 598.8655 C 1079.384 598.8655 1078.086 599.4485 1077.049 600.6145 C 1076.012 601.7805 1075.494 603.5296 1075.494 605.8616 C 1075.494 607.7132 1075.957 609.2805 1076.882 610.5638 C 1077.808 611.847 1079.156 612.4886 1080.925 612.4886 Z M 1064.332 623.844 C 1063.546 623.844 1062.893 623.5042 1062.372 622.8245 C 1061.85 622.1448 1061.589 620.8968 1061.589 619.0804 C 1061.589 617.428 1061.853 616.2649 1062.38 615.5911 C 1062.908 614.9173 1063.558 614.5804 1064.332 614.5804 C 1065.128 614.5804 1065.788 614.9202 1066.309 615.5999 C 1066.831 616.2796 1067.091 617.5218 1067.091 619.3264 C 1067.091 620.9905 1066.828 622.1595 1066.3 622.8333 C 1065.773 623.5071 1065.117 623.844 1064.332 623.844 Z M 1036.793 625.6897 C 1039.265 625.6897 1041.222 625.0042 1042.664 623.6331 C 1044.105 622.262 1044.826 620.5628 1044.826 618.5354 C 1044.826 617.5042 1044.615 616.4905 1044.193 615.4944 C 1043.771 614.4983 1043.071 613.4495 1042.092 612.3479 C 1041.114 611.2464 1039.488 609.7346 1037.214 607.8128 C 1035.316 606.219 1034.097 605.138 1033.558 604.5696 C 1033.019 604.0013 1032.574 603.43 1032.222 602.8557 L 1044.861 602.8557 L 1044.861 599.8147 L 1027.828 599.8147 C 1027.804 600.5764 1027.927 601.3089 1028.197 602.012 C 1028.63 603.1721 1029.325 604.3147 1030.28 605.4397 C 1031.235 606.5647 1032.615 607.8655 1034.419 609.3421 C 1037.22 611.6389 1039.113 613.4583 1040.097 614.8001 C 1041.082 616.1419 1041.574 617.4104 1041.574 618.6057 C 1041.574 619.8596 1041.126 620.9173 1040.229 621.7786 C 1039.333 622.6399 1038.164 623.0706 1036.722 623.0706 C 1035.199 623.0706 1033.98 622.6136 1033.066 621.6995 C 1032.152 620.7854 1031.689 619.5198 1031.677 617.9026 L 1028.425 618.2366 C 1028.648 620.6624 1029.486 622.511 1030.939 623.7825 C 1032.392 625.054 1034.343 625.6897 1036.793 625.6897 Z M 1016.793 625.6897 C 1019.265 625.6897 1021.222 625.0042 1022.664 623.6331 C 1024.105 622.262 1024.826 620.5628 1024.826 618.5354 C 1024.826 617.5042 1024.615 616.4905 1024.193 615.4944 C 1023.771 614.4983 1023.071 613.4495 1022.092 612.3479 C 1021.114 611.2464 1019.488 609.7346 1017.214 607.8128 C 1015.316 606.219 1014.097 605.138 1013.558 604.5696 C 1013.019 604.0013 1012.574 603.43 1012.222 602.8557 L 1024.861 602.8557 L 1024.861 599.8147 L 1007.828 599.8147 C 1007.804 600.5764 1007.927 601.3089 1008.197 602.012 C 1008.63 603.1721 1009.325 604.3147 1010.28 605.4397 C 1011.235 606.5647 1012.615 607.8655 1014.419 609.3421 C 1017.22 611.6389 1019.113 613.4583 1020.097 614.8001 C 1021.082 616.1419 1021.574 617.4104 1021.574 618.6057 C 1021.574 619.8596 1021.126 620.9173 1020.229 621.7786 C 1019.333 622.6399 1018.164 623.0706 1016.722 623.0706 C 1015.199 623.0706 1013.98 622.6136 1013.066 621.6995 C 1012.152 620.7854 1011.689 619.5198 1011.677 617.9026 L 1008.425 618.2366 C 1008.648 620.6624 1009.486 622.511 1010.939 623.7825 C 1012.392 625.054 1014.343 625.6897 1016.793 625.6897 Z M 1078.447 626.0237 L 1081.013 626.0237 L 1066.968 598.8655 L 1064.349 598.8655 Z M 1064.244 626.0237 C 1065.861 626.0237 1067.2 625.4466 1068.26 624.2923 C 1069.321 623.138 1069.851 621.4417 1069.851 619.2034 C 1069.851 617.0237 1069.315 615.345 1068.243 614.1673 C 1067.17 612.9895 1065.849 612.4007 1064.279 612.4007 C 1062.72 612.4007 1061.422 612.9807 1060.385 614.1409 C 1059.348 615.3011 1058.83 617.053 1058.83 619.3968 C 1058.83 621.2366 1059.293 622.8011 1060.218 624.0901 C 1061.144 625.3792 1062.486 626.0237 1064.244 626.0237 Z " fill-rule="evenodd"/>
<path transform="matrix(1,0,0,1,1006.738,142.1853)" stroke-width="1" stroke-linecap="butt" stroke-linejoin="round" fill="none" stroke="#ff0000" d="M 74.27539 -10.49414 C 73.47851 -10.49414 72.81933 -10.1543 72.29785 -9.474609 C 71.77637 -8.794922 71.51562 -7.546875 71.51562 -5.730469 C 71.51562 -4.089844 71.7793 -2.929687 72.30664 -2.25 C 72.83398 -1.570312 73.48437 -1.230469 74.25781 -1.230469 C 75.06641 -1.230469 75.73144 -1.570312 76.25293 -2.25 C 76.77441 -2.929687 77.03516 -4.171875 77.03516 -5.976562 C 77.03516 -7.640625 76.77148 -8.80957 76.24414 -9.483398 C 75.7168 -10.15723 75.06054 -10.49414 74.27539 -10.49414 Z M 74.1875 -12.67383 C 75.80469 -12.67383 77.14355 -12.09668 78.2041 -10.94238 C 79.26464 -9.788086 79.79492 -8.091797 79.79492 -5.853516 C 79.79492 -3.673828 79.25879 -1.995117 78.18652 -.8173827 C 77.11426 .3603515 75.78711 .9492185 74.20508 .9492189 C 72.64648 .9492185 71.34863 .366211 70.31152 -.7998046 C 69.27441 -1.96582 68.75586 -3.714844 68.75586 -6.046875 C 68.75586 -7.898437 69.21875 -9.46582 70.14453 -10.74902 C 71.07031 -12.03223 72.41797 -12.67383 74.1875 -12.67383 Z M 57.59375 -24.0293 C 56.80859 -24.0293 56.15528 -23.68945 55.63379 -23.00977 C 55.1123 -22.33008 54.85156 -21.08203 54.85157 -19.26562 C 54.85156 -17.61328 55.11523 -16.4502 55.64258 -15.77637 C 56.16992 -15.10254 56.82031 -14.76562 57.59375 -14.76562 C 58.39062 -14.76562 59.0498 -15.10547 59.57129 -15.78516 C 60.09277 -16.46484 60.35352 -17.70703 60.35352 -19.51172 C 60.35352 -21.17578 60.08984 -22.34473 59.5625 -23.01855 C 59.03516 -23.69238 58.37891 -24.0293 57.59375 -24.0293 Z M 30.05469 -25.875 C 32.52734 -25.875 34.48437 -25.18945 35.92578 -23.81836 C 37.36719 -22.44727 38.08789 -20.74804 38.08789 -18.7207 C 38.08789 -17.68945 37.87695 -16.67578 37.45508 -15.67969 C 37.0332 -14.68359 36.33301 -13.63476 35.35449 -12.5332 C 34.37598 -11.43164 32.75 -9.919922 30.47656 -7.998047 C 28.57813 -6.404296 27.35938 -5.323242 26.82031 -4.754883 C 26.28125 -4.186523 25.83594 -3.615234 25.48438 -3.041015 L 38.12305 -3.041015 L 38.12305 0 L 21.08985 0 C 21.06641 -.7617189 21.18945 -1.494141 21.45899 -2.197266 C 21.89258 -3.357422 22.58692 -4.5 23.54199 -5.625 C 24.49707 -6.75 25.87696 -8.050781 27.68164 -9.527344 C 30.48242 -11.82422 32.375 -13.64355 33.35937 -14.98535 C 34.34375 -16.32715 34.83594 -17.5957 34.83594 -18.79102 C 34.83594 -20.04492 34.3877 -21.10254 33.49121 -21.96387 C 32.59473 -22.8252 31.42578 -23.25586 29.98438 -23.25586 C 28.46094 -23.25586 27.24219 -22.79883 26.32813 -21.88477 C 25.41406 -20.9707 24.95117 -19.70508 24.93946 -18.08789 L 21.6875 -18.42188 C 21.91016 -20.84766 22.74805 -22.69629 24.20117 -23.96777 C 25.6543 -25.23926 27.60547 -25.875 30.05469 -25.875 Z M 10.05469 -25.875 C 12.52734 -25.875 14.48438 -25.18945 15.92578 -23.81836 C 17.36719 -22.44727 18.08789 -20.74804 18.08789 -18.7207 C 18.08789 -17.68945 17.87695 -16.67578 17.45508 -15.67969 C 17.0332 -14.68359 16.33301 -13.63476 15.35449 -12.5332 C 14.37598 -11.43164 12.75 -9.919922 10.47656 -7.998047 C 8.578127 -6.404296 7.359375 -5.323242 6.820313 -4.754883 C 6.28125 -4.186523 5.835939 -3.615234 5.484375 -3.041015 L 18.12305 -3.041015 L 18.12305 0 L 1.089845 0 C 1.066407 -.7617189 1.189455 -1.494141 1.458986 -2.197266 C 1.892579 -3.357422 2.586915 -4.5 3.541994 -5.625 C 4.497072 -6.75 5.876954 -8.050781 7.681641 -9.527344 C 10.48242 -11.82422 12.375 -13.64355 13.35938 -14.98535 C 14.34375 -16.32715 14.83594 -17.5957 14.83594 -18.79102 C 14.83594 -20.04492 14.3877 -21.10254 13.49121 -21.96387 C 12.59473 -22.8252 11.42578 -23.25586 9.984376 -23.25586 C 8.460938 -23.25586 7.242188 -22.79883 6.328126 -21.88477 C 5.414064 -20.9707 4.951172 -19.70508 4.939455 -18.08789 L 1.687501 -18.42188 C 1.910157 -20.84766 2.748049 -22.69629 4.201172 -23.96777 C 5.654298 -25.23926 7.60547 -25.875 10.05469 -25.875 Z M 71.70898 -26.20898 L 74.27539 -26.20898 L 60.23047 .9492189 L 57.61133 .9492189 Z M 57.50586 -26.20898 C 59.12305 -26.20898 60.46191 -25.63184 61.52246 -24.47754 C 62.58301 -23.32324 63.11329 -21.62695 63.11329 -19.38867 C 63.11329 -17.20898 62.57715 -15.53027 61.50489 -14.35254 C 60.43262 -13.1748 59.11133 -12.58594 57.54102 -12.58594 C 55.98242 -12.58594 54.68457 -13.16601 53.64746 -14.32617 C 52.61036 -15.48633 52.0918 -17.23828 52.0918 -19.58203 C 52.0918 -21.42188 52.55469 -22.98633 53.48047 -24.27539 C 54.40625 -25.56445 55.74805 -26.20898 57.50586 -26.20898 Z "/>
</g>
</svg>
